*
G04 Mass Parameters ***
*
G04 Image ***
*
%INE:\MUSHTAQ PCB\SAJJAD HUSSAIN\CHRONO32C\CHRONO32C_MC_R1\MC_BOARD3-53.SMT*%
%ICAS*%
%MOIN*%
%IPPOS*%
%ASAXBY*%
G74*%FSLAN2X34Y34*%
*
G04 Aperture Definitions ***
*
%ADD10C,0.1370*%
%ADD11R,0.1000X0.0510*%
%ADD12R,0.1000X0.0350*%
%ADD13R,0.1400X0.1600*%
%ADD14R,0.0500X0.0500*%
%ADD15R,0.0500X0.0520*%
%ADD16R,0.0520X0.0500*%
%ADD17R,0.1050X0.1200*%
%ADD18R,0.0800X0.0800*%
%ADD19C,0.0700*%
%ADD20R,0.0700X0.0700*%
%ADD21C,0.0600*%
%ADD22R,0.0600X0.0600*%
%ADD23R,0.0197X0.1575*%
%ADD24O,0.1200X0.0200*%
%ADD25R,0.1200X0.0200*%
%ADD26R,0.0200X0.1200*%
%ADD27R,0.0940X0.0250*%
%ADD28R,0.1600X0.0201*%
%ADD29O,0.0240X0.1700*%
%ADD30O,0.1700X0.0240*%
%ADD31R,0.1700X0.0240*%
%ADD32R,0.0240X0.1700*%
%ADD33R,0.2000X0.0830*%
%ADD34R,0.3000X0.1500*%
%ADD35R,0.1500X0.0600*%
%ADD36C,0.0420*%
%ADD37C,0.0010*%
%ADD38C,0.0150*%
%ADD39C,0.0100*%
%ADD40C,0.0420*%
%ADD41C,0.0120*%
%ADD42C,0.0200*%
%ADD43C,0.0300*%
%ADD44C,0.0500*%
%ADD45C,0.1370*%
%ADD46R,0.0800X0.0800*%
%ADD47R,0.0520X0.0500*%
%ADD48R,0.0500X0.0520*%
%ADD49R,0.0430X0.0350*%
%ADD50C,0.0700*%
%ADD51R,0.0700X0.0700*%
%ADD52C,0.0600*%
%ADD53R,0.0600X0.0600*%
%ADD54R,0.0500X0.0500*%
%ADD55C,0.0420*%
%ADD56C,0.0420*%
%ADD57C,0.0500*%
%ADD58C,0.0500*%
%ADD59C,0.0500*%
%ADD60R,0.1000X0.0510*%
%ADD61R,0.1000X0.0350*%
%ADD62R,0.1400X0.1600*%
%ADD63R,0.1050X0.1200*%
%ADD64C,0.0800*%
%ADD65C,0.0650*%
%ADD66R,0.0650X0.0650*%
%ADD67R,0.0197X0.1575*%
%ADD68O,0.1200X0.0200*%
%ADD69R,0.1200X0.0200*%
%ADD70R,0.0200X0.1200*%
%ADD71R,0.0940X0.0250*%
%ADD72R,0.1600X0.0201*%
%ADD73O,0.0240X0.1700*%
%ADD74O,0.1700X0.0240*%
%ADD75R,0.1700X0.0240*%
%ADD76R,0.0240X0.1700*%
%ADD77R,0.2000X0.0830*%
%ADD78R,0.3000X0.1500*%
%ADD79R,0.1500X0.0600*%
%ADD80C,0.0520*%
%ADD81C,0.0520*%
%ADD82C,0.0520*%
*
G04 Plot Data ***
*
G54D45*
X0112600Y0049860D03*
X0043790D03*
X0043800Y0086400D03*
X0078760Y0049820D03*
X0112590Y0086410D03*
X0078750Y0083520D03*
G54D46*
X0046100Y0053200D03*
X0046150Y0061550D03*
Y0070750D03*
X0046100Y0079350D03*
X0054780Y0078880D03*
X0053460D03*
X0053480Y0077370D03*
X0054800D03*
X0054780Y0081880D03*
X0053460D03*
X0054780Y0080380D03*
X0053460D03*
X0053580Y0068380D03*
X0054900D03*
X0054880Y0071480D03*
X0053560D03*
X0054880Y0069930D03*
X0053560D03*
X0054880Y0073080D03*
X0053560D03*
G54D47*
X0073920Y0075870D03*
X0074760D03*
X0060830Y0071630D03*
X0059990D03*
X0096610Y0072390D03*
X0097450D03*
X0071840Y0075980D03*
X0071000D03*
X0067150Y0077480D03*
X0066310D03*
X0087920Y0071380D03*
X0087080D03*
G54D48*
X0061280Y0060590D03*
Y0059750D03*
X0058540Y0082350D03*
Y0081510D03*
X0087830Y0067520D03*
Y0068360D03*
X0060320Y0060590D03*
Y0059750D03*
X0081650Y0078400D03*
Y0077560D03*
X0066220Y0070760D03*
Y0071600D03*
G54D54*
X0060920Y0079540D03*
X0060080D03*
X0056740Y0075570D03*
X0055900D03*
X0060930Y0078640D03*
X0060090D03*
X0060910Y0077740D03*
X0060070D03*
X0055040Y0075580D03*
X0054200D03*
X0060090Y0080450D03*
X0060930D03*
X0060070Y0076840D03*
X0060910D03*
X0060070Y0075940D03*
X0060910D03*
X0060830Y0069830D03*
X0059990D03*
X0056990Y0066710D03*
X0056150D03*
X0060830Y0068130D03*
X0059990D03*
X0060830Y0067230D03*
X0059990D03*
X0054570Y0066630D03*
Y0065790D03*
X0059980Y0070730D03*
X0060820D03*
X0060030Y0066380D03*
X0060870D03*
X0059980Y0068980D03*
X0060820D03*
X0103850Y0077860D03*
X0104690D03*
X0103850Y0078850D03*
X0104690D03*
X0103850Y0079860D03*
X0104690D03*
X0103870Y0076850D03*
X0104710D03*
X0064730Y0070710D03*
Y0071550D03*
X0066540Y0068190D03*
Y0067350D03*
X0065530Y0068190D03*
Y0067350D03*
X0052320Y0063720D03*
Y0064560D03*
X0087910Y0072470D03*
X0087070D03*
X0087940Y0073580D03*
X0087100D03*
X0087930Y0074680D03*
X0087090D03*
X0087910Y0075940D03*
X0087070D03*
X0087930Y0076960D03*
X0087090D03*
X0087910Y0077990D03*
X0087070D03*
X0087930Y0079050D03*
X0087090D03*
X0087940Y0080050D03*
X0087100D03*
X0096010Y0054260D03*
X0095170D03*
X0097450Y0073460D03*
X0096610D03*
X0097430Y0074640D03*
X0096590D03*
X0052320Y0061850D03*
Y0062690D03*
X0102320Y0075130D03*
Y0075970D03*
X0063470Y0060590D03*
Y0059750D03*
X0078960Y0065850D03*
X0078120D03*
X0080590Y0065430D03*
X0081430D03*
G54D60*
X0067520Y0061930D03*
G54D61*
X0068770Y0061380D03*
Y0062480D03*
G54D62*
X0109400Y0065690D03*
X0096800D03*
G54D63*
X0049250Y0061550D03*
Y0064000D03*
X0049300Y0053200D03*
Y0055650D03*
X0049400Y0070750D03*
Y0073200D03*
X0049350Y0079350D03*
Y0081800D03*
G54D64*
X0054570Y0049800D03*
X0098150Y0049770D03*
X0054570Y0053010D03*
X0098140Y0052990D03*
X0046100Y0055200D03*
Y0057200D03*
X0046150Y0063550D03*
Y0065550D03*
Y0072750D03*
Y0074750D03*
X0046100Y0081350D03*
Y0083350D03*
G54D65*
X0067540Y0065250D03*
X0066540D03*
X0065540D03*
X0106100Y0085360D03*
X0108050Y0079850D03*
Y0078850D03*
Y0077850D03*
Y0076850D03*
X0086850Y0085160D03*
X0087850Y0084160D03*
Y0085160D03*
X0088850Y0084160D03*
Y0085160D03*
X0089850Y0084160D03*
Y0085160D03*
X0090850Y0084160D03*
X0091850D03*
Y0085160D03*
X0092850Y0084160D03*
Y0085160D03*
X0070790Y0084060D03*
X0069790Y0085060D03*
Y0084060D03*
X0068790Y0085060D03*
Y0084060D03*
X0067790Y0085060D03*
Y0084060D03*
X0066790Y0085060D03*
X0065790D03*
Y0084060D03*
X0064790Y0085060D03*
Y0084060D03*
X0054570Y0084670D03*
X0053570D03*
X0056020Y0062500D03*
X0057020D03*
X0100020Y0056550D03*
X0099020Y0057550D03*
Y0056550D03*
X0098020Y0057550D03*
Y0056550D03*
X0097020Y0057550D03*
Y0056550D03*
X0096020Y0057550D03*
Y0056550D03*
X0071710Y0057550D03*
X0072710Y0056550D03*
X0072657Y0057543D03*
X0073710Y0056550D03*
Y0057550D03*
X0074710Y0056550D03*
Y0057550D03*
X0075710Y0056550D03*
Y0057550D03*
X0076710Y0056550D03*
X0076692Y0057499D03*
X0077710Y0056550D03*
Y0057550D03*
X0078710Y0056550D03*
Y0057550D03*
X0079710Y0056550D03*
Y0057550D03*
X0080710Y0056550D03*
Y0057550D03*
G54D66*
X0103100Y0085360D03*
X0108050Y0080850D03*
X0086850Y0084160D03*
X0090850Y0085160D03*
X0070790Y0085060D03*
X0066790Y0084060D03*
X0055570Y0084670D03*
X0055020Y0062500D03*
X0100020Y0057550D03*
X0071710Y0056550D03*
G54D67*
X0064260Y0057690D03*
X0063866D03*
X0063473D03*
X0063079D03*
X0062685D03*
X0062291D03*
X0061898D03*
X0061504D03*
X0061110D03*
X0060717D03*
X0060323D03*
X0059929D03*
X0059536D03*
X0059142D03*
X0058748D03*
X0058354D03*
X0057961D03*
X0057567D03*
X0057173D03*
X0056780D03*
G54D68*
X0093010Y0068860D03*
Y0069360D03*
Y0069860D03*
Y0070360D03*
Y0070860D03*
Y0071360D03*
Y0071860D03*
Y0072360D03*
X0089320D03*
Y0071860D03*
Y0071360D03*
Y0070860D03*
Y0070360D03*
Y0069860D03*
Y0069360D03*
Y0068860D03*
Y0068360D03*
G54D69*
X0100770Y0072030D03*
Y0072530D03*
Y0073030D03*
Y0073530D03*
X0098810D03*
Y0073030D03*
Y0072530D03*
Y0072030D03*
X0072000Y0074790D03*
Y0074290D03*
Y0073790D03*
Y0073290D03*
X0073940D03*
Y0073790D03*
Y0074290D03*
Y0074790D03*
X0093010Y0068360D03*
G54D70*
X0066220Y0074970D03*
X0065720D03*
X0065220D03*
X0064720D03*
X0064220D03*
X0063720D03*
X0063220D03*
X0066220Y0073030D03*
X0065720D03*
X0065220D03*
X0064720D03*
X0064220D03*
X0063720D03*
X0063220D03*
X0066310Y0080720D03*
X0065810D03*
X0065310D03*
X0064810D03*
X0064310D03*
X0063810D03*
X0063310D03*
X0066310Y0078780D03*
X0065810D03*
X0065310D03*
X0064810D03*
X0064310D03*
X0063810D03*
X0063310D03*
G54D71*
X0056530Y0080480D03*
Y0079980D03*
Y0079480D03*
Y0078980D03*
Y0078480D03*
Y0077980D03*
Y0077480D03*
Y0076980D03*
X0058530D03*
Y0077480D03*
Y0077980D03*
Y0078480D03*
Y0078980D03*
Y0079480D03*
Y0079980D03*
Y0080480D03*
X0056780Y0071080D03*
Y0070580D03*
Y0070080D03*
Y0069580D03*
Y0069080D03*
Y0068580D03*
Y0068080D03*
Y0067580D03*
X0058780D03*
Y0068080D03*
Y0068580D03*
Y0069080D03*
Y0069580D03*
Y0070080D03*
Y0070580D03*
Y0071080D03*
G54D72*
X0097550Y0080700D03*
Y0080200D03*
Y0079700D03*
Y0079200D03*
Y0078700D03*
Y0078200D03*
Y0077700D03*
Y0077200D03*
Y0076700D03*
X0101140D03*
Y0077200D03*
Y0077700D03*
Y0078200D03*
Y0078700D03*
Y0079200D03*
Y0079700D03*
Y0080200D03*
Y0080700D03*
G54D73*
X0080660Y0075460D03*
X0080160D03*
X0079660D03*
X0079160D03*
X0078660D03*
Y0068120D03*
X0079160D03*
X0080160D03*
X0080660D03*
X0081160D03*
X0081660D03*
X0082160D03*
X0082660D03*
X0083160D03*
X0083660D03*
Y0075460D03*
X0083160D03*
X0082660D03*
X0082160D03*
X0081660D03*
G54D74*
X0077490Y0074290D03*
Y0073790D03*
Y0073290D03*
Y0072290D03*
Y0071790D03*
Y0071290D03*
Y0070790D03*
Y0070290D03*
Y0069790D03*
Y0069290D03*
X0084830D03*
Y0070290D03*
Y0070790D03*
Y0071290D03*
Y0071790D03*
Y0072290D03*
Y0072790D03*
Y0073290D03*
Y0073790D03*
Y0074290D03*
G54D75*
X0077490Y0072790D03*
X0084830Y0069790D03*
G54D76*
X0081160Y0075460D03*
X0079660Y0068120D03*
G54D77*
X0077860Y0063480D03*
X0081600D03*
G54D78*
X0074370Y0078070D03*
G54D79*
X0071370Y0078560D03*
Y0077560D03*
G54D80*
X0080660Y0066320D03*
X0107510Y0085360D03*
G54D81*
X0087910Y0070580D03*
X0094120Y0072360D03*
X0081650Y0079450D03*
X0072870Y0076230D03*
X0075980Y0076190D03*
X0097020Y0069860D03*
X0098120Y0070720D03*
X0095160Y0065690D03*
X0063040Y0082080D03*
X0058540Y0083700D03*
X0062800Y0079880D03*
X0060040Y0081280D03*
X0056180Y0059990D03*
X0051100Y0063970D03*
X0053445Y0060255D03*
X0063580Y0076120D03*
X0067990Y0077690D03*
X0067720Y0080190D03*
X0097570Y0075820D03*
X0096140Y0076460D03*
X0095720Y0072680D03*
X0094760Y0075900D03*
X0081520Y0053600D03*
X0053120Y0064560D03*
X0058320Y0072060D03*
X0059180Y0060790D03*
X0062290Y0060820D03*
X0065280Y0058720D03*
X0102090Y0073730D03*
X0101520Y0075130D03*
X0065480Y0071980D03*
X0061140Y0072500D03*
X0102720Y0072730D03*
X0102100Y0071720D03*
X0051780Y0068940D03*
X0070870Y0073290D03*
X0066890Y0070170D03*
X0051890Y0077360D03*
X0063470Y0061420D03*
X0066890Y0075810D03*
X0065490Y0077400D03*
X0083920Y0081440D03*
X0077020D03*
X0064990Y0076050D03*
X0069790Y0082000D03*
X0062960Y0071900D03*
X0061580Y0068140D03*
X0072720Y0061350D03*
X0077440Y0061200D03*
X0095320Y0062410D03*
X0087830Y0066590D03*
X0079080Y0072790D03*
X0059290Y0081850D03*
X0057720Y0074460D03*
X0061780Y0068980D03*
Y0074540D03*
X0076150Y0070300D03*
X0086070Y0070610D03*
X0064720Y0069690D03*
X0064800Y0077790D03*
X0103100Y0081630D03*
X0094080Y0070870D03*
X0063760Y0071870D03*
X0051320Y0061550D03*
X0054250Y0076410D03*
X0102500Y0080200D03*
X0073540Y0070700D03*
X0077320Y0065850D03*
X0094080Y0070090D03*
X0090370Y0071450D03*
X0079060Y0070850D03*
G54D82*
X0099840Y0071240D03*
X0094350Y0054260D03*
X0087000Y0068360D03*
X0088730Y0080050D03*
X0088830Y0078970D03*
X0088710Y0077990D03*
X0088630Y0074680D03*
X0088660Y0076960D03*
X0088640Y0075940D03*
X0067680Y0079190D03*
X0062050Y0059750D03*
X0064300D03*
X0066990Y0071600D03*
X0099570Y0075770D03*
X0088730Y0073580D03*
X0086420Y0071970D03*
X0052360Y0071480D03*
X0065530Y0069060D03*
X0066520D03*
X0059500Y0059750D03*
X0059990Y0072390D03*
X0069790Y0061380D03*
X0071680Y0059730D03*
X0072750Y0071820D03*
X0072840Y0075340D03*
X0083280Y0072290D03*
X0081630Y0074130D03*
X0095480Y0074640D03*
X0095470Y0073610D03*
X0051850Y0080380D03*
M02*
