%
T1C0.0280F200S100
X051100Y063970
X051320Y061550
X051780Y068940
X051850Y080380
X051890Y077360
X052360Y071480
X053120Y064560
X053445Y060255
X054250Y076410
X056180Y059990
X057720Y074460
X058320Y072060
X058540Y083700
X059180Y060790
X059290Y081850
X059500Y059750
X059990Y072390
X060040Y081280
X061140Y072500
X061580Y068140
X061780Y068980
X061780Y074540
X062050Y059750
X062290Y060820
X062800Y079880
X062960Y071900
X063040Y082080
X063470Y061420
X063580Y076120
X063760Y071870
X064300Y059750
X064720Y069690
X064800Y077790
X064990Y076050
X065280Y058720
X065480Y071980
X065490Y077400
X065530Y069060
X066520Y069060
X066890Y070170
X066990Y071600
X066890Y075810
X067680Y079190
X067720Y080190
X067990Y077690
X069790Y061380
X069790Y082000
X070870Y073290
X071680Y059730
X072720Y061350
X072750Y071820
X072840Y075340
X072870Y076230
X073540Y070700
X075980Y076190
X076150Y070300
X077020Y081440
X077320Y065850
X077440Y061200
X079060Y070850
X079080Y072790
X080660Y066320
X081520Y053600
X081630Y074130
X081650Y079450
X083280Y072290
X083920Y081440
X086070Y070610
X086420Y071970
X087000Y068360
X087830Y066590
X087910Y070580
X088630Y074680
X088640Y075940
X088660Y076960
X088710Y077990
X088730Y073580
X088730Y080050
X088830Y078970
X090370Y071450
X094080Y070090
X094080Y070870
X094120Y072360
X094350Y054260
X094760Y075900
X095160Y065690
X095320Y062410
X095470Y073610
X095480Y074640
X095720Y072680
X096140Y076460
X097020Y069860
X097570Y075820
X098120Y070720
X099570Y075770
X099840Y071240
X101520Y075130
X102090Y073730
X102100Y071720
X102500Y080200
X102720Y072730
X103100Y081630
X107510Y085360
T2C0.0370F200S100
X053570Y084670
X054570Y084670
X055020Y062500
X055570Y084670
X056020Y062500
X057020Y062500
X064790Y084060
X064790Y085060
X065540Y065250
X065790Y084060
X065790Y085060
X066540Y065250
X066790Y084060
X066790Y085060
X067540Y065250
X067790Y084060
X067790Y085060
X068790Y084060
X068790Y085060
X069790Y084060
X069790Y085060
X070790Y084060
X070790Y085060
X071710Y056550
X071710Y057550
X072657Y057543
X072710Y056550
X073710Y056550
X073710Y057550
X074710Y056550
X074710Y057550
X075710Y056550
X075710Y057550
X076692Y057499
X076710Y056550
X077710Y056550
X077710Y057550
X078710Y056550
X078710Y057550
X079710Y056550
X079710Y057550
X080710Y056550
X080710Y057550
X086850Y084160
X086850Y085160
X087850Y084160
X087850Y085160
X088850Y084160
X088850Y085160
X089850Y084160
X089850Y085160
X090850Y084160
X090850Y085160
X091850Y084160
X091850Y085160
X092850Y084160
X092850Y085160
X096020Y056550
X096020Y057550
X097020Y056550
X097020Y057550
X098020Y056550
X098020Y057550
X099020Y056550
X099020Y057550
X100020Y056550
X100020Y057550
X103100Y085360
X106100Y085360
X108050Y076850
X108050Y077850
X108050Y078850
X108050Y079850
X108050Y080850
T4C0.0550F200S100
X054570Y049800
X054570Y053010
X098140Y052990
X098150Y049770
T5C0.1370F200S100
X043790Y049860
X043800Y086400
X078750Y083520
X078760Y049820
X112590Y086410
X112600Y049860
T3C0.0500F200S100
X046100Y053200
X046100Y055200
X046100Y057200
X046150Y061550
X046150Y063550
X046150Y065550
X046150Y070750
X046150Y072750
X046150Y074750
X046100Y079350
X046100Y081350
X046100Y083350
M30
