*
G04 Mass Parameters ***
*
G04 Image ***
*
%INTDC_16MFG.FAB*%
%ICAS*%
%MOIN*%
%IPPOS*%
%ASAXBY*%
G74*%FSLAN2X34Y34*%
*
G04 Aperture Definitions ***
*
%ADD10C,0.2000*%
%ADD11C,0.5118*%
%ADD12R,0.0800X0.0800*%
%ADD13R,0.1050X0.1200*%
%ADD14R,0.0500X0.0500*%
%ADD15R,0.0790X0.0790*%
%ADD16R,0.0600X0.0800*%
%ADD17C,0.0750*%
%ADD18C,0.0700*%
%ADD19R,0.0700X0.0700*%
%ADD20C,0.0350*%
%ADD21R,0.0350X0.0350*%
%ADD22C,0.0650*%
%ADD23R,0.0600X0.0600*%
%ADD24O,0.0500X0.1500*%
%ADD25R,0.0500X0.1500*%
%ADD26C,0.0920*%
%ADD27C,0.0580*%
%ADD28C,0.0800*%
%ADD29R,0.0520X0.0500*%
%ADD30O,0.0700X0.0110*%
%ADD31R,0.0700X0.0110*%
%ADD32O,0.0110X0.0700*%
%ADD33R,0.0110X0.0700*%
%ADD34O,0.0250X0.0940*%
%ADD35R,0.0250X0.0940*%
%ADD36C,0.0600*%
%ADD37O,0.0860X0.0250*%
%ADD38R,0.0860X0.0250*%
%ADD39R,0.0866X0.1023*%
%ADD40R,0.0580X0.0580*%
%ADD41C,0.0220*%
%ADD42C,0.0300*%
%ADD43C,0.0160*%
%ADD44C,0.0080*%
%ADD45C,0.0120*%
%ADD46C,0.0220*%
%ADD47C,0.0100*%
%ADD48C,0.0150*%
%ADD49C,0.0200*%
%ADD50C,0.0500*%
%ADD51C,0.0400*%
%ADD52C,0.0220*%
%ADD53C,0.0060*%
%ADD54C,0.2000*%
%ADD55C,0.5118*%
%ADD56R,0.0800X0.0800*%
%ADD57R,0.1200X0.1050*%
%ADD58R,0.0500X0.0500*%
%ADD59R,0.0600X0.0600*%
%ADD60C,0.0750*%
%ADD61C,0.0700*%
%ADD62R,0.0700X0.0700*%
%ADD63C,0.0350*%
%ADD64R,0.0350X0.0350*%
%ADD65C,0.0650*%
%ADD66C,0.0920*%
%ADD67C,0.0580*%
%ADD68C,0.0800*%
%ADD69O,0.0650X0.0160*%
%ADD70R,0.0650X0.0160*%
%ADD71O,0.0900X0.0160*%
%ADD72R,0.0900X0.0160*%
%ADD73C,0.0600*%
%ADD74R,0.0580X0.0580*%
%ADD75C,0.0220*%
%ADD76C,0.0220*%
%ADD77C,0.0250*%
%ADD78C,0.0010*%
%ADD79C,0.0500*%
%ADD80C,0.0500*%
%ADD81R,0.1050X0.1200*%
%ADD82R,0.0790X0.0790*%
%ADD83R,0.0600X0.0800*%
%ADD84C,0.0370*%
%ADD85R,0.0370X0.0370*%
%ADD86R,0.0650X0.0650*%
%ADD87O,0.0500X0.1500*%
%ADD88R,0.0500X0.1500*%
%ADD89C,0.0620*%
%ADD90C,0.0900*%
%ADD91R,0.0520X0.0500*%
%ADD92O,0.0700X0.0110*%
%ADD93R,0.0700X0.0110*%
%ADD94O,0.0110X0.0700*%
%ADD95R,0.0110X0.0700*%
%ADD96O,0.0250X0.0940*%
%ADD97R,0.0250X0.0940*%
%ADD98O,0.0860X0.0250*%
%ADD99R,0.0860X0.0250*%
%ADD100R,0.0945X0.1102*%
%ADD101C,0.0550*%
%ADD102C,0.0550*%
%ADD103C,0.0050*%
%ADD104C,0.0140*%
%ADD105C,0.0140*%
%ADD106C,0.0140*%
*
G04 Plot Data ***
*
G54D47*
G01X0167900Y0068090D02*
X0001200D01*
Y0000000D01*
X0167900D01*
Y0068090D01*
G54D104*
X0105050Y0040500D03*
X0054160Y0058540D03*
X0054000Y0057950D03*
X0030970Y0041870D03*
X0125500Y0036300D03*
X0162280Y0018520D03*
X0141480Y0018500D03*
X0112410Y0016040D03*
X0113430Y0016100D03*
X0102620Y0018580D03*
X0103620Y0016020D03*
X0093970D03*
X0083260Y0018590D03*
X0073600Y0018530D03*
X0063790Y0018610D03*
X0016380Y0016030D03*
X0005730Y0015960D03*
X0025090Y0023800D03*
X0023980Y0023460D03*
X0120930Y0023560D03*
X0163250Y0018530D03*
X0151050Y0018550D03*
X0152040Y0016030D03*
X0142450Y0018550D03*
X0131680Y0018580D03*
X0132760Y0016010D03*
X0122020Y0018740D03*
X0123050Y0018690D03*
X0092980Y0018700D03*
X0083230Y0015990D03*
X0084240D03*
X0073680Y0016140D03*
X0074540Y0016130D03*
X0063810Y0016110D03*
X0064910Y0016130D03*
X0054190Y0018500D03*
X0054130Y0015960D03*
X0055140Y0015970D03*
X0055200Y0018510D03*
X0044510Y0016040D03*
X0044480Y0018540D03*
X0045360Y0016030D03*
X0045470Y0018550D03*
X0034750Y0016190D03*
X0034790Y0018510D03*
X0035730Y0016190D03*
X0035790Y0018530D03*
X0025080Y0018620D03*
X0026090Y0018570D03*
X0015400Y0016060D03*
X0006770Y0015910D03*
X0129290Y0062340D03*
X0129720Y0059550D03*
X0158370Y0023590D03*
X0022120Y0028410D03*
X0119420Y0028260D03*
X0020850Y0023660D03*
X0117760Y0023650D03*
X0027610Y0021760D03*
X0114950Y0021700D03*
X0026430Y0029030D03*
X0027280Y0026950D03*
X0027200Y0024990D03*
X0026430Y0011360D03*
X0027110Y0006900D03*
G54D105*
X0047510Y0062060D03*
Y0055530D03*
X0049900Y0056560D03*
X0125670Y0058070D03*
X0131700Y0016010D03*
X0046630Y0061430D03*
X0046590Y0055490D03*
X0118400Y0047380D03*
X0126830Y0051810D03*
X0045260Y0047230D03*
X0052900Y0056520D03*
X0047990Y0047350D03*
X0051800Y0051890D03*
X0048410Y0055610D03*
X0048820Y0062690D03*
X0122840Y0047800D03*
X0119470Y0053320D03*
X0051910Y0056480D03*
X0045970Y0048650D03*
X0116410Y0054850D03*
X0120130Y0049790D03*
X0103250Y0060190D03*
X0102750Y0062050D03*
X0045580Y0047700D03*
X0118410Y0054890D03*
X0050930Y0056520D03*
X0044790Y0048740D03*
X0101730Y0061430D03*
X0119580Y0049270D03*
X0105220Y0061000D03*
X0102210Y0060610D03*
X0119620Y0050170D03*
X0126640Y0057990D03*
X0131600Y0044990D03*
X0128660Y0058050D03*
X0127650Y0058100D03*
X0036130Y0051470D03*
X0106210Y0061760D03*
X0117390Y0054860D03*
G54D106*
X0028610Y0041470D03*
Y0025960D03*
X0048870Y0041000D03*
X0051070Y0046470D03*
X0052530Y0048990D03*
X0074640Y0018500D03*
X0075340Y0016290D03*
X0117560Y0047380D03*
X0118480Y0045720D03*
X0075760Y0019380D03*
X0076330Y0021830D03*
X0075860Y0026910D03*
X0082890Y0029610D03*
X0116970Y0046750D03*
X0153910Y0021680D03*
X0151090Y0016030D03*
X0152780Y0016280D03*
X0152090Y0018580D03*
X0153020Y0019400D03*
X0150300Y0023450D03*
X0141540Y0016000D03*
X0143170Y0016110D03*
X0142410Y0016030D03*
X0153260Y0026910D03*
X0143500Y0019400D03*
X0143940Y0021880D03*
X0142800Y0029090D03*
X0143660Y0026900D03*
X0140440Y0023380D03*
X0134270Y0021740D03*
X0133680Y0019410D03*
X0133020Y0028910D03*
X0133830Y0026930D03*
X0143690Y0024940D03*
X0117345Y0043290D03*
X0093000Y0015990D03*
X0094700Y0016280D03*
X0093990Y0018690D03*
X0095120Y0019320D03*
X0095810Y0021590D03*
X0094350Y0029120D03*
X0095090Y0026910D03*
X0098160Y0023630D03*
X0101650Y0023380D03*
X0105180Y0021790D03*
X0102670Y0016000D03*
X0104360Y0016070D03*
X0103650Y0018510D03*
X0104700Y0019430D03*
X0104740Y0024950D03*
X0084930Y0016010D03*
X0084280Y0018610D03*
X0085500Y0019440D03*
X0086140Y0021730D03*
X0085340Y0026940D03*
X0085290Y0024980D03*
X0081120Y0027510D03*
X0108180Y0023640D03*
X0055830Y0016210D03*
X0151290Y0045330D03*
X0055460Y0028920D03*
X0150810Y0042290D03*
X0135560Y0056500D03*
X0056120Y0026910D03*
X0138330Y0040580D03*
X0137850Y0037595D03*
X0137820Y0052660D03*
X0062730Y0023490D03*
X0066300Y0021770D03*
X0065170Y0029050D03*
X0065910Y0019400D03*
X0064920Y0018550D03*
X0065530Y0016170D03*
X0065970Y0026900D03*
Y0024940D03*
X0152430Y0029080D03*
X0145180Y0042320D03*
X0124860Y0042160D03*
X0123640Y0043020D03*
X0124380Y0043220D03*
X0124390Y0044130D03*
X0122670Y0043035D03*
X0124340Y0045880D03*
X0129080Y0047650D03*
X0129170Y0045380D03*
X0127533Y0041633D03*
X0127490Y0043600D03*
X0124430Y0047010D03*
X0126145Y0048060D03*
X0127455Y0045310D03*
X0127505Y0046402D03*
X0074960Y0029290D03*
X0124570Y0021900D03*
X0124070Y0019540D03*
X0122040Y0015970D03*
X0121150Y0042735D03*
X0122990Y0015990D03*
X0123730Y0016150D03*
X0104000Y0011020D03*
X0104730Y0006950D03*
X0127705Y0049985D03*
X0114700Y0024960D03*
X0114480Y0026920D03*
X0109660Y0028390D03*
X0113910Y0044960D03*
X0113973Y0046357D03*
X0031620Y0040070D03*
X0034950Y0043730D03*
X0027790Y0043350D03*
X0074990Y0011040D03*
X0075770Y0006950D03*
X0027240Y0019440D03*
X0025080Y0016030D03*
X0026060Y0015980D03*
X0026790Y0016270D03*
X0047230Y0021710D03*
X0046590Y0026890D03*
X0113870Y0051130D03*
X0113090Y0048850D03*
X0007080Y0010990D03*
X0007630Y0006950D03*
X0007080Y0029050D03*
X0120160Y0033700D03*
X0054110Y0048060D03*
X0057870Y0050450D03*
X0036930Y0026950D03*
X0031950Y0028450D03*
X0049020Y0035430D03*
X0047440Y0036130D03*
X0044590Y0035960D03*
X0133040Y0011100D03*
X0133750Y0006950D03*
X0084570Y0010980D03*
X0085240Y0006950D03*
X0094340Y0011060D03*
X0094970Y0006950D03*
X0036080Y0011080D03*
X0036730Y0006950D03*
X0045790Y0011090D03*
X0046500Y0006950D03*
X0124170Y0026950D03*
X0152420Y0011120D03*
X0153080Y0006950D03*
X0142810Y0011140D03*
X0143510Y0006950D03*
X0016740Y0011000D03*
X0017390Y0006950D03*
X0143670Y0051240D03*
X0163970Y0016050D03*
X0142720Y0057550D03*
X0143170Y0056550D03*
X0164380Y0019350D03*
X0164780Y0021870D03*
X0163610Y0028830D03*
X0159530Y0027980D03*
X0164720Y0024890D03*
X0164330Y0026850D03*
X0164290Y0006950D03*
X0163610Y0011010D03*
X0153340Y0024950D03*
X0123370Y0011150D03*
X0124190Y0007000D03*
X0043720Y0042980D03*
X0042840Y0043000D03*
X0042080Y0043800D03*
Y0046170D03*
X0042510Y0047170D03*
X0040280Y0047360D03*
X0038991Y0044979D03*
X0038951Y0043290D03*
X0037450Y0043920D03*
X0036980Y0041320D03*
X0041010Y0053930D03*
X0042300Y0051840D03*
X0043990Y0049890D03*
X0047420Y0049880D03*
X0048340Y0049910D03*
X0049040Y0051880D03*
X0049980Y0050830D03*
X0049270Y0049540D03*
X0049250Y0045830D03*
X0049160Y0044660D03*
X0049130Y0043670D03*
X0044410Y0053130D03*
X0045290Y0049950D03*
X0046180Y0050010D03*
X0046840Y0051870D03*
X0104620Y0028560D03*
X0104700Y0026910D03*
X0100050Y0028150D03*
X0043040Y0049870D03*
X0049730Y0023640D03*
X0051180Y0028180D03*
X0040670Y0050080D03*
X0038850Y0050990D03*
X0038910Y0049210D03*
X0113924Y0043404D03*
X0113120Y0043280D03*
X0108820Y0042340D03*
X0110680Y0039960D03*
X0107410Y0038210D03*
X0107310Y0039200D03*
X0102940Y0038760D03*
X0045590Y0042940D03*
X0046490Y0042850D03*
X0047970Y0042950D03*
X0048860Y0043050D03*
X0049840Y0042710D03*
X0127540Y0023630D03*
X0128740Y0028070D03*
X0050150Y0038580D03*
X0048650Y0039710D03*
X0050950Y0039740D03*
X0050410Y0039730D03*
X0042140Y0042890D03*
X0147220Y0023610D03*
X0148250Y0027650D03*
X0038730Y0046460D03*
X0037410Y0047430D03*
X0034910Y0050380D03*
X0052440Y0051150D03*
X0052420Y0049510D03*
X0041260Y0035680D03*
X0088840Y0023630D03*
X0090180Y0027970D03*
X0069550Y0023610D03*
X0070790Y0027780D03*
X0059360Y0023620D03*
X0060620Y0027830D03*
X0137000Y0023630D03*
X0138570Y0027840D03*
X0045591Y0053121D03*
X0158410Y0053620D03*
X0117535Y0042850D03*
X0121900Y0041050D03*
X0133400Y0016200D03*
X0132710Y0018580D03*
X0081980Y0023320D03*
X0078600Y0023650D03*
X0095270Y0024950D03*
X0092080Y0023400D03*
X0111350D03*
X0113760Y0029200D03*
X0057040Y0021390D03*
X0056290Y0019380D03*
X0075880Y0024950D03*
X0072570Y0023310D03*
X0130590Y0023330D03*
X0133830Y0024970D03*
X0124280Y0024990D03*
X0055470Y0010960D03*
X0056070Y0007000D03*
X0117300Y0044220D03*
X0117100Y0045620D03*
X0116510Y0050790D03*
X0117360Y0050030D03*
X0114120Y0016210D03*
X0113360Y0018480D03*
X0112460Y0018530D03*
X0012820Y0028390D03*
X0017630Y0026910D03*
X0003030Y0027790D03*
X0002570Y0022790D03*
X0004800Y0023200D03*
X0119725Y0050660D03*
X0118850Y0050790D03*
X0007900Y0026910D03*
X0007730Y0024950D03*
X0008410Y0021750D03*
X0007780Y0019370D03*
X0007440Y0016030D03*
X0005740Y0018540D03*
X0006720Y0018530D03*
X0011360Y0023640D03*
X0017620Y0024950D03*
X0014430Y0023340D03*
X0018110Y0021600D03*
X0017400Y0019370D03*
X0017110Y0016090D03*
X0015440Y0018570D03*
X0016410Y0018550D03*
X0016750Y0029270D03*
X0030560Y0023660D03*
X0036940Y0024990D03*
X0033790Y0023280D03*
X0036070Y0029120D03*
X0037410Y0021600D03*
X0116400Y0047880D03*
X0117040Y0049520D03*
X0036820Y0019440D03*
X0036440Y0016360D03*
X0040230Y0023620D03*
X0046720Y0024930D03*
X0043430Y0023400D03*
X0046530Y0019420D03*
X0046150Y0016150D03*
X0041920Y0027920D03*
X0056530Y0024950D03*
X0052940Y0023390D03*
X0124440Y0051940D03*
X0122070Y0051835D03*
X0121700Y0050680D03*
X0115342Y0047538D03*
X0113910Y0049550D03*
X0115840Y0054205D03*
X0117750Y0053240D03*
X0042110Y0045280D03*
X0043635Y0045725D03*
X0052437Y0041633D03*
X0053400Y0043830D03*
X0052410Y0046440D03*
X0052404Y0045176D03*
X0052440Y0043600D03*
X0051155Y0047735D03*
X0163220Y0016010D03*
X0162280Y0016050D03*
X0161360Y0023290D03*
X0065180Y0011110D03*
X0065840Y0007000D03*
X0121750Y0055940D03*
X0127570Y0044090D03*
X0115380Y0043290D03*
X0126140Y0041430D03*
X0114330Y0019390D03*
X0113760Y0011190D03*
X0114440Y0006960D03*
X0122790Y0050105D03*
X0117890Y0039540D03*
X0048260Y0053210D03*
X0047420Y0051920D03*
X0115550Y0046290D03*
X0038850Y0048550D03*
X0041020Y0038980D03*
X0093000Y0023760D03*
X0151090Y0023840D03*
X0112420Y0023910D03*
X0119195Y0048719D03*
X0046590Y0039710D03*
X0045390Y0039690D03*
X0042380Y0039710D03*
X0044390Y0039680D03*
X0102660Y0023770D03*
X0073630Y0023840D03*
X0042900Y0039590D03*
X0048070Y0039550D03*
X0113958Y0045766D03*
X0041330Y0042040D03*
X0040333Y0040353D03*
X0127646Y0048916D03*
X0118229Y0053220D03*
X0141460Y0023760D03*
X0123730Y0050120D03*
X0124310Y0048910D03*
X0124340Y0049870D03*
X0119555Y0051835D03*
X0120830Y0053170D03*
X0054120Y0023870D03*
X0083230Y0023930D03*
X0124970Y0034530D03*
X0127320Y0033990D03*
X0051130Y0043670D03*
X0115050Y0052555D03*
X0123020Y0034410D03*
X0123360Y0029280D03*
X0121690Y0032910D03*
X0015400Y0023880D03*
X0040320Y0048920D03*
X0043340Y0048600D03*
X0125890Y0039760D03*
X0125510Y0039440D03*
X0125190Y0039720D03*
X0005750Y0023860D03*
X0131670Y0023930D03*
X0051180Y0041430D03*
X0049410Y0041750D03*
X0119500Y0038110D03*
X0120394Y0039735D03*
X0045150Y0038750D03*
X0052690Y0045790D03*
X0116840Y0037390D03*
X0123720Y0041010D03*
X0123020Y0037870D03*
X0044450Y0023740D03*
X0116360Y0042070D03*
X0120250Y0042780D03*
X0118460Y0042850D03*
X0041920Y0042050D03*
X0040210Y0042880D03*
X0124400Y0042140D03*
X0051140Y0045830D03*
X0125706Y0041944D03*
X0125850Y0042670D03*
X0123680Y0047330D03*
X0122020Y0023890D03*
X0034750Y0023820D03*
X0119060Y0041030D03*
X0117410Y0039710D03*
X0115340Y0040210D03*
X0125050Y0050800D03*
X0047360Y0039000D03*
X0046520Y0038700D03*
X0049250Y0046860D03*
X0049230Y0048500D03*
X0040190Y0045270D03*
X0115220Y0050120D03*
X0116715Y0051640D03*
X0120230Y0051910D03*
X0125880Y0046540D03*
X0063830Y0023870D03*
X0123370Y0053180D03*
X0040250Y0048040D03*
X0046470Y0040980D03*
X0126255Y0051640D03*
X0126200Y0049860D03*
X0124410Y0051490D03*
X0127440Y0050860D03*
X0131220Y0051700D03*
X0121190Y0051980D03*
X0042100Y0048910D03*
X0041550Y0047450D03*
X0045470Y0053920D03*
X0120260Y0041020D03*
X0045300Y0051890D03*
X0038930Y0043860D03*
X0040020Y0041140D03*
X0051120Y0051680D03*
X0048520Y0047070D03*
X0120860Y0039610D03*
X0142330Y0056510D03*
X0051120Y0049540D03*
X0050680Y0047270D03*
X0140920Y0055320D03*
X0047310Y0037550D03*
X0040180Y0046160D03*
X0038130Y0045880D03*
X0123250Y0048170D03*
X0113970Y0048920D03*
X0121855Y0041540D03*
X0121910Y0051330D03*
X0118840Y0051590D03*
X0122670Y0041020D03*
X0123570Y0039240D03*
X0050316Y0040954D03*
X0040870Y0039750D03*
X0125850Y0044705D03*
X0126150Y0045960D03*
X0122790Y0051930D03*
X0126200Y0048910D03*
X0047730Y0045270D03*
X0043040Y0051780D03*
X0040670Y0051870D03*
X0051080Y0048490D03*
X0047953Y0041136D03*
X0051160Y0044660D03*
X0115860Y0039470D03*
X0048347Y0051793D03*
X0114695Y0040970D03*
X0117530Y0040980D03*
X0046182Y0051922D03*
X0043970Y0051780D03*
X0145990Y0056010D03*
X0045800Y0029440D03*
X0042720Y0034690D03*
X0115490Y0048120D03*
X0115270Y0045700D03*
X0105730Y0062380D03*
X0162260Y0023530D03*
X0043710Y0041050D03*
X0040258Y0043798D03*
X0115360Y0044120D03*
X0118430Y0041040D03*
X0113645Y0051475D03*
X0125370Y0047550D03*
X0123220Y0039590D03*
X0045870Y0054760D03*
X0045860Y0061020D03*
X0045590Y0040980D03*
X0042840Y0041100D03*
X0045890Y0046710D03*
X0120800Y0043660D03*
M02*
