*
G04 Mass Parameters ***
*
G04 Image ***
*
%INTDC_16BOT.GBR*%
%ICAS*%
%MOIN*%
%IPPOS*%
%ASAXBY*%
G74*%FSLAN2X34Y34*%
*
G04 Aperture Definitions ***
*
%ADD10C,0.2000*%
%ADD11C,0.5118*%
%ADD12R,0.0800X0.0800*%
%ADD13R,0.1050X0.1200*%
%ADD14R,0.0500X0.0500*%
%ADD15R,0.0790X0.0790*%
%ADD16R,0.0600X0.0800*%
%ADD17C,0.0750*%
%ADD18C,0.0700*%
%ADD19R,0.0700X0.0700*%
%ADD20C,0.0350*%
%ADD21R,0.0350X0.0350*%
%ADD22C,0.0650*%
%ADD23R,0.0600X0.0600*%
%ADD24O,0.0500X0.1500*%
%ADD25R,0.0500X0.1500*%
%ADD26C,0.0920*%
%ADD27C,0.0580*%
%ADD28C,0.0800*%
%ADD29R,0.0520X0.0500*%
%ADD30O,0.0700X0.0110*%
%ADD31R,0.0700X0.0110*%
%ADD32O,0.0110X0.0700*%
%ADD33R,0.0110X0.0700*%
%ADD34O,0.0250X0.0940*%
%ADD35R,0.0250X0.0940*%
%ADD36C,0.0600*%
%ADD37O,0.0860X0.0250*%
%ADD38R,0.0860X0.0250*%
%ADD39R,0.0866X0.1023*%
%ADD40R,0.0580X0.0580*%
%ADD41C,0.0220*%
%ADD42C,0.0300*%
%ADD43C,0.0160*%
%ADD44C,0.0080*%
%ADD45C,0.0120*%
%ADD46C,0.0220*%
%ADD47C,0.0100*%
%ADD48C,0.0150*%
%ADD49C,0.0200*%
%ADD50C,0.0500*%
%ADD51C,0.0400*%
%ADD52C,0.0220*%
%ADD53C,0.0060*%
%ADD54C,0.2000*%
%ADD55C,0.5118*%
%ADD56R,0.0800X0.0800*%
%ADD57R,0.1200X0.1050*%
%ADD58R,0.0500X0.0500*%
%ADD59R,0.0600X0.0600*%
%ADD60C,0.0750*%
%ADD61C,0.0700*%
%ADD62R,0.0700X0.0700*%
%ADD63C,0.0350*%
%ADD64R,0.0350X0.0350*%
%ADD65C,0.0650*%
%ADD66C,0.0920*%
%ADD67C,0.0580*%
%ADD68C,0.0800*%
%ADD69O,0.0650X0.0160*%
%ADD70R,0.0650X0.0160*%
%ADD71O,0.0900X0.0160*%
%ADD72R,0.0900X0.0160*%
%ADD73C,0.0600*%
%ADD74R,0.0580X0.0580*%
%ADD75C,0.0220*%
%ADD76C,0.0220*%
*
G04 Plot Data ***
*
G54D42*
G01X0044970Y0004850D02*
X0044960Y0004840D01*
X0151580Y0004850D02*
X0151570Y0004840D01*
X0153950Y0056700D02*
X0153980Y0056730D01*
Y0057910D01*
X0153990Y0057920D01*
Y0057980D01*
X0153980D01*
X0103170Y0004850D02*
X0103160Y0004840D01*
X0132210Y0004850D02*
X0132200Y0004840D01*
X0112920Y0003910D02*
X0112910Y0003900D01*
G54D43*
G01X0124970Y0035300D02*
X0126480D01*
X0126490Y0035310D01*
X0124970Y0035300D02*
X0125480D01*
Y0035550D01*
X0124970D01*
X0048280Y0036740D02*
X0046860D01*
X0047310D01*
Y0036990D01*
X0046860D01*
X0139170Y0038370D02*
X0139180Y0038360D01*
X0141000D01*
X0149970Y0043060D02*
Y0044320D01*
X0149990Y0044340D01*
X0149970Y0044360D01*
X0050900Y0057950D02*
X0049930D01*
X0049920Y0057940D01*
X0051920Y0057950D02*
X0052900D01*
X0052910Y0057940D01*
Y0057950D01*
X0125670Y0059560D02*
X0125680Y0059550D01*
X0126640D01*
X0127650Y0059560D02*
X0127640Y0059550D01*
X0126640D01*
X0127650Y0059560D02*
X0127660Y0059550D01*
X0128660D01*
X0046860Y0036990D02*
X0047310D01*
Y0037300D01*
X0047250Y0037240D01*
X0046860D01*
X0125500Y0036300D02*
X0125490Y0036310D01*
X0125080D01*
X0124980Y0036210D01*
Y0035800D01*
X0124970D01*
Y0035550D02*
X0125480D01*
Y0035800D01*
X0124970D01*
X0158410Y0053620D02*
Y0053970D01*
X0157800Y0054580D01*
X0156520D01*
X0007080Y0003850D02*
Y0004330D01*
X0007240Y0004490D01*
Y0004850D01*
X0016700Y0003800D02*
Y0004260D01*
X0016870Y0004430D01*
Y0004850D01*
X0026400Y0003750D02*
Y0004240D01*
X0026570Y0004410D01*
Y0004850D01*
X0036100Y0003800D02*
Y0004220D01*
X0036270Y0004390D01*
Y0004850D01*
X0045800Y0003800D02*
Y0004260D01*
X0045970Y0004430D01*
Y0004850D01*
X0065210Y0003850D02*
Y0004220D01*
X0065370Y0004380D01*
Y0004850D01*
X0104000Y0003850D02*
Y0004290D01*
X0104170Y0004460D01*
Y0004850D01*
X0113750Y0003900D02*
Y0004320D01*
X0113920Y0004490D01*
Y0004850D01*
X0142800Y0003850D02*
Y0004230D01*
X0142970Y0004400D01*
Y0004850D01*
X0163550Y0003770D02*
Y0004240D01*
X0163720Y0004410D01*
Y0004850D01*
X0155400Y0052840D02*
X0156260D01*
X0156520Y0053100D01*
Y0054580D01*
X0152410Y0003900D02*
X0152420Y0003910D01*
Y0004270D01*
X0152580Y0004430D01*
Y0004850D01*
X0133040Y0003850D02*
X0133050Y0003860D01*
Y0004240D01*
X0133210Y0004400D01*
Y0004850D01*
X0123380Y0003950D02*
Y0004280D01*
X0123550Y0004450D01*
Y0004840D01*
X0123540Y0004850D01*
X0084570Y0003770D02*
Y0004260D01*
X0084720Y0004410D01*
Y0004840D01*
X0084730Y0004850D01*
X0094480D02*
X0094470Y0004840D01*
Y0004480D01*
X0094300Y0004310D01*
Y0003820D01*
X0094320Y0003800D01*
X0055640Y0004850D02*
X0055670Y0004820D01*
Y0004370D01*
X0055500Y0004200D01*
Y0003820D01*
X0055480Y0003800D01*
X0075140Y0004850D02*
X0075070Y0004780D01*
Y0004300D01*
X0074900Y0004130D01*
Y0003770D01*
X0074980Y0003690D01*
X0139170Y0039730D02*
Y0038370D01*
X0149970Y0044360D02*
X0148500D01*
X0051920Y0057950D02*
X0050900D01*
X0054000D02*
X0052910D01*
X0129720Y0059550D02*
X0128660D01*
X0044910Y0037240D02*
Y0038510D01*
X0045150Y0038750D01*
X0123020Y0037870D02*
Y0035800D01*
X0046520Y0038700D02*
Y0038000D01*
X0045510Y0036990D01*
X0044910D01*
X0046860Y0037240D02*
X0047250D01*
X0047310Y0037300D01*
Y0037550D01*
X0123575Y0039235D02*
Y0035710D01*
X0123415Y0035550D01*
X0123020D01*
X0006240Y0004850D02*
Y0003850D01*
X0074140Y0004850D02*
Y0003690D01*
X0044960Y0004840D02*
Y0003800D01*
X0151570Y0004840D02*
Y0003900D01*
X0083730Y0004850D02*
Y0003770D01*
X0093480Y0004850D02*
Y0003800D01*
X0103160Y0004840D02*
Y0003850D01*
X0132200Y0004840D02*
Y0003850D01*
X0049900Y0056560D02*
X0049910Y0056570D01*
Y0057090D01*
X0112920Y0004850D02*
Y0003910D01*
X0125670Y0058070D02*
Y0058720D01*
X0054640Y0004850D02*
Y0003800D01*
X0052910Y0057110D02*
Y0056530D01*
X0052900Y0056520D01*
X0015870Y0004850D02*
Y0003810D01*
X0015860Y0003800D01*
X0035270Y0004850D02*
Y0003810D01*
X0035260Y0003800D01*
X0064370Y0004850D02*
Y0003850D01*
X0025570Y0004850D02*
Y0003760D01*
X0025560Y0003750D01*
X0051920Y0057110D02*
Y0056490D01*
X0051910Y0056480D01*
X0141970Y0004850D02*
Y0003860D01*
X0141960Y0003850D01*
X0050900Y0057110D02*
X0050930D01*
Y0056520D01*
X0126640Y0057990D02*
Y0058710D01*
X0128660Y0058050D02*
Y0058710D01*
X0127650Y0058100D02*
Y0058720D01*
X0162720Y0004850D02*
Y0003780D01*
X0162710Y0003770D01*
G54D44*
G01X0050720Y0049540D02*
X0051120D01*
X0040630Y0046160D02*
X0040180D01*
X0050670Y0043670D02*
X0051130D01*
X0042840Y0041100D02*
Y0041500D01*
X0045590Y0040980D02*
Y0041410D01*
X0048870Y0041610D02*
Y0041000D01*
X0050680Y0046860D02*
Y0046540D01*
X0050750Y0046470D01*
X0051070D01*
X0040320Y0048920D02*
X0040324Y0048916D01*
X0040714D01*
X0040720Y0048910D01*
X0053310Y0049360D02*
X0052900D01*
X0052530Y0048990D01*
X0051120Y0051680D02*
X0051110Y0051670D01*
X0050710D01*
X0045290Y0051490D02*
Y0051880D01*
X0045300Y0051890D01*
X0051180Y0041430D02*
Y0041420D01*
X0050560D01*
X0050450Y0041530D01*
Y0041870D01*
X0040490Y0041430D02*
X0040090D01*
X0040020Y0041360D01*
Y0041140D01*
X0116400Y0048720D02*
Y0047880D01*
X0117560Y0047380D02*
Y0047970D01*
X0116390Y0046750D02*
X0116970D01*
X0117560Y0047380D02*
Y0047970D01*
X0116550Y0045620D02*
X0117100D01*
X0118480Y0045720D02*
X0119430D01*
X0116360Y0041430D02*
Y0042070D01*
X0117535Y0042850D02*
Y0042325D01*
X0117540Y0042320D01*
X0116390Y0046750D02*
X0116970D01*
X0117100Y0045620D02*
X0116550D01*
X0116620Y0044220D02*
X0117300D01*
X0117345Y0043290D02*
X0116700D01*
X0117345D01*
X0117535Y0042850D02*
Y0042325D01*
X0117540Y0042320D01*
X0150810Y0042290D02*
Y0043060D01*
X0151290Y0044360D02*
Y0045330D01*
X0150810Y0042290D02*
Y0043060D01*
Y0042290D01*
X0138330Y0040580D02*
Y0039730D01*
Y0040580D01*
X0137850Y0037595D02*
Y0038370D01*
X0122670Y0042430D02*
Y0043035D01*
X0123640Y0043020D02*
Y0042440D01*
X0125010Y0043220D02*
X0124380D01*
X0124860Y0042160D02*
Y0041430D01*
X0123640Y0042440D02*
Y0043020D01*
X0124380Y0043220D02*
X0125010D01*
X0124380D01*
X0124390Y0044130D02*
X0125010D01*
X0124390D01*
X0124340Y0045880D02*
X0124910D01*
X0122670Y0042430D02*
Y0043035D01*
X0121150Y0042735D02*
Y0042190D01*
X0124910Y0045880D02*
X0124340D01*
X0124430Y0047010D02*
X0125020D01*
X0128150Y0047650D02*
X0129080D01*
X0129170Y0045380D02*
X0129160Y0045370D01*
Y0045210D01*
X0129050Y0045100D01*
X0128280D01*
X0125020Y0047010D02*
X0124430D01*
X0120250Y0042250D02*
Y0042780D01*
X0121150Y0042735D02*
Y0042190D01*
Y0042735D01*
X0124890Y0049860D02*
X0124880Y0049870D01*
X0124340D01*
X0125050Y0050800D02*
X0125720D01*
X0113120Y0044470D02*
Y0043280D01*
X0038130Y0043920D02*
X0037450D01*
X0038130D02*
X0038120Y0043930D01*
X0116400Y0048720D02*
Y0047880D01*
X0113090Y0047980D02*
Y0048850D01*
X0120160Y0034480D02*
Y0033700D01*
X0121690Y0032910D02*
Y0033670D01*
X0053310Y0048060D02*
X0054110D01*
X0053310D01*
X0047440Y0036130D02*
Y0036260D01*
X0047210Y0036490D01*
X0046860D01*
X0048280Y0035420D02*
X0048290Y0035430D01*
X0049020D01*
X0047440Y0036130D02*
Y0036260D01*
X0047210Y0036490D01*
X0046860D01*
X0043550Y0034950D02*
X0042980D01*
X0042720Y0034690D01*
X0044590Y0035960D02*
X0044400Y0036150D01*
Y0036490D01*
X0044910D01*
X0042840Y0042340D02*
Y0043000D01*
X0043710Y0042990D02*
Y0042340D01*
X0041510Y0042890D02*
X0042140D01*
X0042840Y0043000D02*
Y0042340D01*
X0041510Y0043800D02*
X0042080D01*
X0042120Y0045270D02*
X0041460D01*
X0041510Y0042890D02*
X0042140D01*
X0042080Y0043800D02*
X0041510D01*
X0041460Y0045270D02*
X0042120D01*
X0042090Y0046160D02*
X0041470D01*
X0042090D01*
X0042510Y0047170D02*
Y0047720D01*
Y0047170D01*
X0041560Y0047440D02*
Y0048020D01*
X0041550Y0048030D01*
X0041560Y0048020D01*
Y0047440D01*
X0038120Y0043930D02*
X0038130Y0043920D01*
X0037450D01*
X0041010Y0053930D02*
X0041730D01*
X0043040Y0050467D02*
Y0049870D01*
X0045290Y0050650D02*
Y0049950D01*
X0043990Y0049890D02*
Y0050480D01*
X0043040Y0050467D02*
Y0049870D01*
X0043990Y0049890D02*
Y0050480D01*
X0047420Y0050530D02*
Y0049880D01*
X0046180Y0050010D02*
Y0050650D01*
X0047420Y0050530D02*
Y0049880D01*
X0048340Y0049910D02*
Y0050520D01*
Y0049910D01*
X0049270Y0049540D02*
X0049880D01*
X0049270D01*
X0049980Y0050830D02*
X0050710D01*
X0049980D02*
X0050710D01*
X0049830Y0044660D02*
X0049160D01*
X0049250Y0045830D02*
X0049830D01*
X0049880Y0049540D02*
X0049270D01*
X0049230Y0048500D02*
X0049860D01*
X0049840Y0046860D02*
X0049250D01*
Y0045830D02*
X0049830D01*
Y0043670D02*
X0049130D01*
X0049160Y0044660D02*
X0049830D01*
X0048870Y0042450D02*
Y0043060D01*
X0049130Y0043670D02*
X0049830D01*
X0046180Y0050650D02*
Y0050010D01*
X0045290Y0050650D02*
Y0049950D01*
X0046180Y0050010D02*
Y0050650D01*
X0040670Y0050590D02*
Y0050080D01*
X0043040Y0050467D02*
Y0049870D01*
X0042100Y0048910D02*
X0041560D01*
X0042100D01*
X0040670Y0050080D02*
Y0050590D01*
X0113120Y0043280D02*
Y0044470D01*
X0047960Y0042420D02*
Y0042960D01*
X0046480Y0042860D02*
Y0042240D01*
X0045590Y0042250D02*
Y0042940D01*
X0046480Y0042860D02*
Y0042240D01*
X0048870Y0042450D02*
Y0043060D01*
X0047960Y0042960D02*
Y0042420D01*
X0048870Y0042450D02*
Y0043060D01*
X0049840Y0042710D02*
X0050450D01*
X0050150Y0038580D02*
Y0038780D01*
X0049930Y0039000D01*
X0049400D01*
X0041730Y0038980D02*
X0041000D01*
X0041510Y0042890D02*
X0042140D01*
X0041330Y0042040D02*
Y0041430D01*
X0037400Y0047420D02*
X0038090D01*
X0037400D01*
X0041940Y0035920D02*
X0041310D01*
X0041260Y0035870D01*
Y0035680D01*
X0042720Y0034690D02*
X0042980Y0034950D01*
X0043550D01*
X0045470Y0053920D02*
X0046100D01*
X0120240Y0050660D02*
X0119725D01*
X0117540Y0042320D02*
X0117535Y0042325D01*
Y0042850D01*
X0118460D02*
Y0042320D01*
X0124970Y0035050D02*
Y0034530D01*
X0123020Y0034410D02*
Y0035050D01*
Y0035300D02*
Y0035050D01*
X0044910Y0036490D02*
X0044400D01*
Y0036740D01*
X0044910D01*
X0155390Y0052850D02*
X0155400Y0052840D01*
X0117310Y0050800D02*
Y0050080D01*
X0117360Y0050030D01*
X0117040Y0049520D02*
X0116970Y0049590D01*
X0116410D01*
X0116620Y0044220D02*
X0117300D01*
X0117100Y0045620D02*
X0116550D01*
X0115670Y0050790D02*
X0116510D01*
X0117360Y0050030D02*
X0117310Y0050080D01*
Y0050800D01*
X0118230Y0050790D02*
X0118850D01*
X0117360Y0050030D02*
X0117310Y0050080D01*
Y0050800D01*
X0120240Y0050660D02*
X0119725D01*
X0118850Y0050790D02*
X0118230D01*
X0116400Y0048720D02*
Y0047880D01*
X0117040Y0049520D02*
X0116970Y0049590D01*
X0116410D01*
X0125720Y0050800D02*
X0125050D01*
X0121700Y0050680D02*
X0121180D01*
X0122790Y0050660D02*
Y0050105D01*
X0121700Y0050680D02*
X0121180D01*
X0116930Y0054010D02*
X0116035D01*
X0115840Y0054205D01*
X0041460Y0045270D02*
X0042120D01*
X0043635Y0045725D02*
X0044445D01*
X0053400Y0044490D02*
Y0043830D01*
X0118230Y0051630D02*
X0118800D01*
X0118840Y0051590D01*
X0121910Y0051350D02*
X0121760Y0051500D01*
X0121750Y0051490D01*
Y0051510D01*
X0121660Y0051600D01*
X0121180D01*
Y0051520D01*
X0115560Y0048720D02*
X0115555Y0048715D01*
Y0048175D01*
X0115500Y0048120D01*
X0115490D01*
X0049860Y0048500D02*
X0049230D01*
X0123640Y0041600D02*
Y0041140D01*
X0123740Y0041040D01*
Y0041020D01*
X0123720Y0041000D01*
Y0041010D01*
X0121750Y0055930D02*
X0121950Y0055730D01*
Y0054370D01*
Y0055730D01*
X0121750Y0055930D01*
X0127570Y0044090D02*
Y0043970D01*
X0127740Y0043800D01*
X0128280D01*
X0115220Y0050120D02*
X0115465D01*
X0115570Y0050015D01*
Y0049590D01*
X0123730Y0051500D02*
X0124400D01*
X0124410Y0051490D01*
X0120240Y0051500D02*
Y0051900D01*
X0120230Y0051910D01*
X0115050Y0052555D02*
Y0051820D01*
X0115240Y0051630D01*
X0115670D01*
X0125880Y0046530D02*
X0125860Y0046550D01*
Y0047010D01*
X0115860Y0043290D02*
X0115380D01*
X0125700Y0041430D02*
X0125720Y0041450D01*
X0126132D01*
X0126146Y0041436D01*
X0126140Y0041430D01*
X0114695Y0040970D02*
X0115450D01*
X0115520Y0041040D01*
Y0041430D01*
X0043970Y0051780D02*
Y0051330D01*
X0043980Y0051320D01*
X0043990D01*
X0120250Y0041410D02*
Y0041030D01*
X0120260Y0041020D01*
X0117540Y0041480D02*
X0117530Y0041470D01*
Y0040980D01*
X0123730Y0050660D02*
Y0050120D01*
X0122790Y0050105D02*
Y0050660D01*
X0117890Y0039540D02*
X0117910D01*
X0118030Y0039420D01*
Y0038690D01*
X0118430Y0041040D02*
X0118435Y0041035D01*
Y0041455D01*
X0118460Y0041480D01*
X0047400Y0053920D02*
X0048160D01*
X0048260Y0053820D01*
Y0053210D01*
X0047420Y0051920D02*
Y0051370D01*
X0122670Y0041020D02*
X0122690D01*
X0122680Y0041030D01*
X0122670D01*
Y0041590D01*
X0050700Y0048500D02*
X0051070D01*
X0051080Y0048490D01*
X0040710Y0048030D02*
X0040700Y0048040D01*
X0040250D01*
X0125850Y0042670D02*
Y0043220D01*
X0115550Y0046290D02*
Y0046750D01*
X0113090Y0049280D02*
X0113610D01*
X0113970Y0048920D01*
X0125730Y0049860D02*
X0126200D01*
X0043040Y0051780D02*
Y0051307D01*
X0048340Y0051360D02*
X0048347Y0051367D01*
Y0051793D01*
X0043040Y0051307D02*
Y0051760D01*
X0043030Y0051770D01*
Y0053930D01*
X0040670Y0051430D02*
Y0051870D01*
X0038090Y0048720D02*
X0038680D01*
X0038850Y0048550D01*
X0048520Y0046640D02*
Y0045760D01*
X0048510Y0045750D01*
X0044910Y0037240D02*
X0041940D01*
X0041730Y0038980D02*
X0041020D01*
X0119195Y0048719D02*
Y0051465D01*
X0119070Y0051590D01*
X0118840D01*
X0118800Y0051630D01*
X0118230D01*
X0118840Y0051590D02*
X0118800Y0051630D01*
X0118230D01*
X0122790Y0051930D02*
Y0051500D01*
X0115360Y0044120D02*
X0115460Y0044220D01*
X0115780D01*
X0121855Y0041540D02*
Y0041435D01*
X0121770Y0041350D01*
X0121150D01*
X0120860Y0039610D02*
X0121290D01*
X0121370Y0039530D01*
Y0038950D01*
X0121690Y0034990D02*
X0121810Y0035110D01*
Y0035460D01*
X0121900Y0035550D01*
X0123020D01*
X0125850Y0044130D02*
Y0044705D01*
X0043710Y0041050D02*
Y0041500D01*
X0046470Y0040980D02*
Y0041020D01*
X0046480Y0041030D01*
Y0041400D01*
X0043030Y0038980D02*
Y0039420D01*
X0042900Y0039550D01*
Y0039590D01*
X0043550Y0036270D02*
X0043560Y0036280D01*
Y0036750D01*
X0043800Y0036990D01*
X0044910D01*
X0115270Y0045700D02*
X0115350Y0045620D01*
X0115710D01*
X0048070Y0039550D02*
X0048100Y0039520D01*
Y0039000D01*
X0047953Y0041136D02*
Y0041573D01*
X0047960Y0041580D01*
X0113958Y0045766D02*
Y0045770D01*
X0113120D01*
X0041330Y0041430D02*
Y0042040D01*
X0040258Y0043798D02*
X0040668D01*
X0040670Y0043800D01*
X0126150Y0045960D02*
X0126067Y0045880D01*
X0125750D01*
X0125730Y0048910D02*
X0126200D01*
X0050670Y0044660D02*
X0051160D01*
X0116715Y0051640D02*
X0117310D01*
X0128150Y0048950D02*
X0127710D01*
X0127676Y0048916D01*
X0127646D01*
X0118229Y0053220D02*
X0118230Y0054010D01*
X0124890Y0049860D02*
X0124880Y0049870D01*
X0124340D01*
X0123730Y0050120D02*
Y0050660D01*
X0126255Y0051640D02*
X0125720D01*
X0123680Y0046760D02*
Y0045910D01*
X0123690Y0045900D01*
X0123020Y0035800D02*
X0120160D01*
X0044445Y0047725D02*
Y0047475D01*
X0124890Y0048910D02*
X0124310D01*
X0124340Y0049870D02*
X0124880D01*
X0124890Y0049860D01*
X0044445Y0047975D02*
Y0047725D01*
X0040210Y0042880D02*
X0040220Y0042890D01*
X0040670D01*
X0119430Y0047720D02*
Y0047470D01*
X0124970Y0035050D02*
Y0034530D01*
X0127320Y0033990D02*
X0126490D01*
X0051130Y0043670D02*
X0050670D01*
X0119430Y0047970D02*
Y0047720D01*
Y0047970D02*
X0118400D01*
X0116715Y0051640D02*
X0117310D01*
X0040630Y0046160D02*
X0040180D01*
X0121690Y0033670D02*
Y0032910D01*
X0123020Y0034410D02*
Y0035050D01*
X0040490Y0041430D02*
X0040090D01*
X0040020Y0041360D01*
Y0041140D01*
X0040210Y0042880D02*
X0040220Y0042890D01*
X0040670D01*
X0121690Y0032910D02*
Y0033670D01*
X0043340Y0048600D02*
X0043350Y0048590D01*
X0040190Y0045270D02*
X0040620D01*
X0049410Y0041750D02*
Y0041700D01*
X0049320Y0041610D01*
X0048870D01*
X0120070Y0038950D02*
Y0038210D01*
X0119955Y0038095D01*
X0119515D01*
X0118460Y0042320D02*
Y0042850D01*
X0052690Y0045790D02*
X0053400D01*
X0118030Y0037390D02*
X0116840D01*
X0116360Y0041430D02*
Y0042070D01*
X0120250Y0042250D02*
Y0042780D01*
X0118460Y0042850D02*
Y0042320D01*
X0042840Y0041500D02*
X0042070D01*
X0041920Y0041650D01*
Y0042050D01*
X0040210Y0042880D02*
X0040220Y0042890D01*
X0040670D01*
X0125700Y0041430D02*
X0125706Y0041436D01*
Y0041944D01*
X0124400Y0042140D02*
X0124270Y0042010D01*
Y0041780D01*
X0124090Y0041600D01*
X0123640D01*
X0051140Y0045830D02*
X0050670D01*
X0125700Y0041430D02*
X0125706Y0041436D01*
Y0041944D01*
X0125850Y0042670D02*
Y0043220D01*
X0123680Y0046760D02*
Y0047330D01*
X0125370Y0047550D02*
X0125720D01*
X0125860Y0047410D01*
Y0047010D01*
X0046180Y0051490D02*
X0046182Y0051492D01*
Y0051922D01*
X0125720Y0050800D02*
X0125050D01*
X0048100Y0039000D02*
X0047360D01*
X0049840Y0046860D02*
X0049250D01*
X0049230Y0048500D02*
X0049860D01*
X0040620Y0045270D02*
X0040190D01*
X0043710Y0041050D02*
Y0041500D01*
X0115570Y0049590D02*
Y0050015D01*
X0115465Y0050120D01*
X0115220D01*
X0116715Y0051640D02*
X0117310D01*
X0120240Y0051500D02*
Y0051900D01*
X0120230Y0051910D01*
X0123250Y0054370D02*
Y0053300D01*
X0123370Y0053180D01*
X0040250Y0048040D02*
X0040700D01*
X0040710Y0048030D01*
X0125720Y0051640D02*
X0126255D01*
X0126200Y0049860D02*
X0125730D01*
X0123730Y0051500D02*
X0124400D01*
X0124410Y0051490D01*
X0121180Y0051520D02*
Y0052020D01*
X0041560Y0048910D02*
X0042100D01*
X0041560Y0047440D02*
Y0048020D01*
X0041550Y0048030D01*
X0046100Y0053920D02*
X0045470D01*
X0120250Y0041410D02*
Y0041030D01*
X0120260Y0041020D01*
X0117530Y0040980D02*
Y0041470D01*
X0117540Y0041480D01*
X0050670Y0045830D02*
X0051173D01*
X0051160Y0044660D02*
X0050670D01*
X0045300Y0051890D02*
X0045290Y0051880D01*
Y0051490D01*
X0038130Y0045220D02*
Y0045880D01*
X0040490Y0041430D02*
X0040090D01*
X0040020Y0041360D01*
Y0041140D01*
X0050710Y0051670D02*
X0051110D01*
X0051120Y0051680D01*
Y0049540D02*
X0050720D01*
X0048520Y0046640D02*
Y0047070D01*
X0050680Y0047270D02*
Y0046860D01*
X0118430Y0041040D02*
X0118435Y0041035D01*
Y0041455D01*
X0118460Y0041480D01*
X0050720Y0049540D02*
X0051120D01*
X0050680Y0047270D02*
Y0046860D01*
X0115860Y0043290D02*
X0115230D01*
X0040630Y0046160D02*
X0040180D01*
X0038130Y0045880D02*
Y0045220D01*
X0115360Y0044120D02*
X0115460Y0044220D01*
X0115780D01*
X0122850Y0045900D02*
X0123250Y0046300D01*
Y0048170D01*
X0113090Y0049280D02*
X0113610D01*
X0113970Y0048920D01*
X0122790Y0051500D02*
Y0051930D01*
X0118840Y0051590D02*
X0118800Y0051630D01*
X0118230D01*
X0123570Y0039240D02*
X0123575Y0039235D01*
X0050470Y0042690D02*
X0050450Y0042710D01*
X0126200Y0048910D02*
X0125730D01*
X0040870Y0039750D02*
X0037470D01*
X0037315Y0039595D01*
Y0038994D01*
X0125850Y0044130D02*
Y0044705D01*
X0122790Y0051500D02*
Y0051930D01*
X0126200Y0048910D02*
X0125730D01*
X0047730Y0045270D02*
X0047740Y0045280D01*
Y0045290D01*
X0047670Y0045360D01*
Y0045750D01*
X0040670Y0051870D02*
Y0051430D01*
X0051080Y0048490D02*
X0051070Y0048500D01*
X0050700D01*
X0051160Y0044660D02*
X0050670D01*
X0121630Y0046970D02*
X0120670D01*
X0120500Y0046800D01*
Y0044450D01*
X0119670Y0043620D01*
Y0040380D01*
X0119450Y0040160D01*
X0116020D01*
X0115870Y0040010D01*
Y0039480D01*
X0115860Y0039470D01*
X0117530Y0040980D02*
Y0041470D01*
X0117540Y0041480D01*
X0043970Y0051780D02*
Y0051330D01*
X0043980Y0051320D01*
X0043990D01*
X0118420Y0056230D02*
Y0057960D01*
X0117080Y0059300D01*
X0108260D01*
X0107510Y0060050D01*
Y0063530D01*
X0107240Y0063800D01*
X0106730D01*
X0042720Y0034690D02*
X0042980Y0034950D01*
X0043550D01*
X0115560Y0048720D02*
X0115555Y0048715D01*
Y0048175D01*
X0115500Y0048120D01*
X0115490D01*
X0105730Y0062380D02*
Y0063800D01*
X0043710Y0041500D02*
Y0041050D01*
X0115780Y0044220D02*
X0115460D01*
X0115360Y0044120D01*
X0118430Y0041040D02*
X0118435Y0041035D01*
Y0041455D01*
X0118460Y0041480D01*
X0125370Y0047550D02*
X0125720D01*
X0125860Y0047410D01*
Y0047010D01*
X0045870Y0054760D02*
Y0061010D01*
X0045860Y0061020D01*
X0045590Y0041410D02*
Y0040980D01*
X0042840Y0041100D02*
Y0041500D01*
X0046645Y0046725D02*
X0046640Y0046720D01*
X0045900D01*
X0045890Y0046710D01*
X0121630Y0046720D02*
X0120940D01*
X0120800Y0046580D01*
Y0043660D01*
X0102730Y0063800D02*
Y0062070D01*
X0102750Y0062050D01*
X0047510Y0062060D02*
Y0055530D01*
X0049910Y0057090D02*
X0049920Y0057100D01*
X0118220Y0053170D02*
X0118230Y0053180D01*
Y0053190D01*
X0047420Y0051920D02*
Y0051370D01*
X0101730Y0063800D02*
Y0061430D01*
X0046630D02*
Y0055530D01*
X0046590Y0055490D01*
X0115550Y0046750D02*
Y0046290D01*
X0118400Y0047380D02*
Y0047970D01*
X0103730Y0064800D02*
X0104180Y0064350D01*
Y0059080D01*
X0104520Y0058740D01*
X0116780D01*
X0117400Y0058120D01*
Y0056200D01*
X0121630Y0045720D02*
X0122360D01*
X0122430Y0045650D01*
Y0045390D01*
X0122510Y0045310D01*
X0126720D01*
X0126830Y0045420D01*
Y0051810D01*
X0045260Y0047230D02*
X0044450D01*
X0044445Y0047225D01*
X0117310Y0051640D02*
X0116715D01*
X0117315Y0051635D02*
X0117310Y0051640D01*
X0104730Y0064800D02*
X0105210Y0064320D01*
Y0061010D01*
X0105220Y0061000D01*
X0050670Y0043670D02*
X0051130D01*
X0047680Y0046640D02*
Y0047120D01*
X0047910Y0047350D01*
X0047990D01*
X0051800Y0051890D02*
Y0045220D01*
X0051665Y0045085D01*
X0048885D01*
X0048495Y0044695D01*
X0047115D01*
X0046645Y0045165D01*
Y0045725D01*
X0048410Y0055610D02*
Y0062280D01*
X0048820Y0062690D01*
X0122840Y0047800D02*
Y0046760D01*
X0040670Y0042890D02*
X0040220D01*
X0040210Y0042880D01*
X0040140Y0042890D02*
X0040670D01*
X0121630Y0046220D02*
X0122530D01*
X0122850Y0045900D01*
X0119400Y0054010D02*
Y0053370D01*
X0119460Y0053310D01*
X0119470Y0053320D01*
X0100730Y0064800D02*
X0101220Y0064310D01*
Y0058860D01*
X0101980Y0058100D01*
X0115810D01*
X0116420Y0057490D01*
Y0056190D01*
X0037315Y0038994D02*
Y0039595D01*
X0037470Y0039750D01*
X0040870D01*
Y0040390D01*
X0040990Y0040510D01*
X0044790D01*
X0044990Y0040710D01*
Y0043445D01*
X0045410Y0043865D01*
Y0046640D01*
X0045745Y0046975D01*
X0046645D01*
X0102730Y0064800D02*
X0103250Y0064280D01*
Y0060190D01*
X0046645Y0047975D02*
X0046640Y0047980D01*
X0046110D01*
X0045970Y0048120D01*
Y0048650D01*
X0116410Y0054850D02*
X0116420Y0054860D01*
Y0055350D01*
X0120130Y0049790D02*
X0120260D01*
X0120270Y0049800D01*
X0120470Y0049600D01*
Y0047590D01*
X0120590Y0047470D01*
X0121630D01*
X0102730Y0064800D02*
X0103250Y0064280D01*
Y0060190D01*
X0155380Y0052790D02*
X0155390Y0052800D01*
Y0052850D01*
X0102730Y0063800D02*
Y0062070D01*
X0102750Y0062050D01*
X0046645Y0047475D02*
X0045805D01*
X0045580Y0047700D01*
X0118410Y0054890D02*
X0118420Y0054900D01*
Y0055390D01*
X0040710Y0048030D02*
X0040700Y0048040D01*
X0040250D01*
X0044790Y0048740D02*
Y0051100D01*
X0044570Y0051320D01*
X0043990D01*
X0101730Y0063800D02*
Y0061430D01*
X0119430Y0047220D02*
X0120050D01*
X0120180Y0047350D01*
Y0049120D01*
X0120030Y0049270D01*
X0119580D01*
X0046645Y0046475D02*
X0047205D01*
X0047370Y0046640D01*
X0047680D01*
X0122840Y0046760D02*
X0122550Y0046470D01*
X0121630D01*
X0046645Y0047225D02*
X0045735D01*
X0045200Y0046690D01*
Y0043950D01*
X0044740Y0043490D01*
Y0040940D01*
X0044530Y0040730D01*
X0036960D01*
X0036724Y0040494D01*
Y0038994D01*
X0104730Y0064800D02*
X0105210Y0064320D01*
Y0061010D01*
X0105220Y0061000D01*
X0101730Y0064800D02*
X0102210Y0064320D01*
Y0060610D01*
X0119620Y0050170D02*
X0120550D01*
X0120710Y0050010D01*
Y0048100D01*
X0120840Y0047970D01*
X0121630D01*
X0047670Y0045750D02*
Y0046090D01*
X0047535Y0046225D01*
X0046645D01*
X0121630Y0047220D02*
X0120520D01*
X0120280Y0046980D01*
Y0044710D01*
X0119400Y0043830D01*
Y0040770D01*
X0119090Y0040460D01*
X0114340D01*
X0113080Y0039200D01*
Y0037920D01*
X0119400Y0054850D02*
Y0058510D01*
X0118220Y0059690D01*
X0108570D01*
X0107960Y0060300D01*
Y0064400D01*
X0107560Y0064800D01*
X0106730D01*
X0036134Y0038994D02*
Y0051475D01*
X0036130Y0051470D01*
X0105730Y0064800D02*
X0106210Y0064320D01*
Y0061760D01*
X0117390Y0054860D02*
X0117400Y0054870D01*
Y0055360D01*
G54D45*
G01X0044445Y0047725D02*
X0044440Y0047720D01*
X0043350D01*
Y0048590D02*
Y0047720D01*
X0112490Y0037920D02*
X0112040D01*
X0111450Y0038510D01*
Y0050690D01*
X0112220Y0051460D01*
X0113629D01*
X0113645Y0051475D01*
G54D49*
G01X0028610Y0041470D02*
Y0025960D01*
X0106950D02*
Y0033970D01*
X0103780Y0037140D01*
X0149916Y0054581D02*
X0149917Y0054580D01*
X0154070D01*
X0043720Y0042980D02*
X0043710Y0042990D01*
X0042110Y0045280D02*
X0042120Y0045270D01*
X0042110Y0045280D01*
X0042080Y0046170D02*
X0042090Y0046160D01*
X0042080Y0046170D01*
X0041550Y0047450D02*
X0041560Y0047440D01*
X0041550Y0047450D01*
X0048870Y0043060D02*
X0048860Y0043050D01*
X0047960Y0042960D02*
X0047970Y0042950D01*
X0046490Y0042850D02*
X0046480Y0042860D01*
X0046490Y0042850D02*
X0046480Y0042860D01*
X0048870Y0043060D02*
X0048860Y0043050D01*
X0047970Y0042950D02*
X0047960Y0042960D01*
X0048870Y0043060D02*
X0048860Y0043050D01*
X0037410Y0047430D02*
X0037400Y0047420D01*
X0037410Y0047430D01*
X0042120Y0045270D02*
X0042110Y0045280D01*
X0154070Y0054580D02*
Y0052850D01*
X0121910Y0051330D02*
Y0051350D01*
X0121750Y0055940D02*
Y0055930D01*
Y0055940D01*
X0125880Y0046540D02*
Y0046530D01*
X0119515Y0038095D02*
X0119500Y0038110D01*
X0041550Y0047450D02*
X0041560Y0047440D01*
X0156400Y0057870D02*
X0156410Y0057880D01*
X0156400Y0057870D02*
X0156410Y0057880D01*
X0122540Y0004850D02*
Y0003950D01*
X0131600Y0044990D02*
X0135700D01*
X0138965Y0041725D01*
X0152685D01*
X0152690Y0041730D01*
Y0041720D01*
X0152700D01*
Y0041722D01*
X0152967D01*
X0155210Y0039480D01*
X0156900D01*
X0156910Y0039470D01*
G54D51*
G01X0156400Y0056700D02*
Y0057870D01*
Y0056700D02*
Y0057870D01*
G54D53*
G01X0018664Y0064105D02*
X0018831D01*
X0018608Y0063939D02*
X0018831D01*
Y0064272D01*
X0018608D01*
X0019173Y0063939D02*
Y0064272D01*
X0019201Y0063939D02*
X0019034D01*
X0018978Y0064050D01*
Y0064161D01*
X0019034Y0064272D01*
X0019201D01*
X0019348Y0063939D02*
X0019459D01*
X0019404D02*
Y0064272D01*
X0019348D02*
X0019459D01*
X0019663Y0064217D02*
X0019691Y0064272D01*
X0019857D01*
X0019885Y0064217D01*
Y0064161D01*
X0019857Y0064105D01*
X0019691D01*
X0019663Y0064050D01*
Y0063994D01*
X0019691Y0063939D01*
X0019857D01*
X0019885Y0063994D01*
X0020611Y0064105D02*
X0020528Y0063939D01*
X0020750Y0064105D02*
X0020583D01*
X0020528Y0064161D01*
Y0064217D01*
X0020583Y0064272D01*
X0020750D01*
Y0063939D01*
X0020953Y0064105D02*
X0021120D01*
X0020898Y0063939D02*
X0021120D01*
Y0064272D01*
X0020898D01*
X0021462Y0063939D02*
Y0064272D01*
X0021490Y0063939D02*
X0021323D01*
X0021268Y0064050D01*
Y0064161D01*
X0021323Y0064272D01*
X0021490D01*
X0021638Y0063939D02*
X0021832D01*
Y0064272D01*
X0022174Y0063939D02*
X0022202Y0063994D01*
Y0064217D01*
X0022174Y0064272D01*
X0022008D01*
X0021980Y0064217D01*
Y0063994D01*
X0022008Y0063939D01*
X0022174D01*
X0022350Y0064217D02*
X0022378Y0064272D01*
X0022544D01*
X0022572Y0064217D01*
Y0064161D01*
X0022544Y0064105D01*
X0022378D01*
X0022350Y0064050D01*
Y0063994D01*
X0022378Y0063939D01*
X0022544D01*
X0022572Y0063994D01*
G54D46*
X0028610Y0041470D03*
Y0025960D03*
X0048870Y0041000D03*
X0052530Y0048990D03*
X0074640Y0018500D03*
X0075340Y0016290D03*
X0117560Y0047380D03*
X0118480Y0045720D03*
X0075760Y0019380D03*
X0076330Y0021830D03*
X0075860Y0026910D03*
X0082890Y0029610D03*
X0116970Y0046750D03*
X0153910Y0021680D03*
X0151090Y0016030D03*
X0152780Y0016280D03*
X0152090Y0018580D03*
X0153020Y0019400D03*
X0150300Y0023450D03*
X0141540Y0016000D03*
X0143170Y0016110D03*
X0142410Y0016030D03*
X0153260Y0026910D03*
X0143500Y0019400D03*
X0143940Y0021880D03*
X0142800Y0029090D03*
X0143660Y0026900D03*
X0140440Y0023380D03*
X0134270Y0021740D03*
X0133680Y0019410D03*
X0133020Y0028910D03*
X0133830Y0026930D03*
X0143690Y0024940D03*
X0117345Y0043290D03*
X0093000Y0015990D03*
X0094700Y0016280D03*
X0093990Y0018690D03*
X0095120Y0019320D03*
X0095810Y0021590D03*
X0094350Y0029120D03*
X0095090Y0026910D03*
X0098160Y0023630D03*
X0101650Y0023380D03*
X0105180Y0021790D03*
X0102670Y0016000D03*
X0104360Y0016070D03*
X0103650Y0018510D03*
X0104700Y0019430D03*
X0104740Y0024950D03*
X0084930Y0016010D03*
X0084280Y0018610D03*
X0085500Y0019440D03*
X0086140Y0021730D03*
X0085340Y0026940D03*
X0085290Y0024980D03*
X0081120Y0027510D03*
X0108180Y0023640D03*
X0055830Y0016210D03*
X0151290Y0045330D03*
X0055460Y0028920D03*
X0150810Y0042290D03*
X0135560Y0056500D03*
X0056120Y0026910D03*
X0124860Y0042160D03*
X0123640Y0043020D03*
X0124380Y0043220D03*
X0124390Y0044130D03*
X0122670Y0043035D03*
X0124340Y0045880D03*
X0129080Y0047650D03*
X0129170Y0045380D03*
X0127533Y0041633D03*
X0127490Y0043600D03*
X0124430Y0047010D03*
X0126145Y0048060D03*
X0127455Y0045310D03*
X0127505Y0046402D03*
X0074960Y0029290D03*
X0124570Y0021900D03*
X0124070Y0019540D03*
X0122040Y0015970D03*
X0121150Y0042735D03*
X0122990Y0015990D03*
X0123730Y0016150D03*
X0104000Y0011020D03*
X0104730Y0006950D03*
X0127705Y0049985D03*
X0114700Y0024960D03*
X0114480Y0026920D03*
X0109660Y0028390D03*
X0113910Y0044960D03*
X0113973Y0046357D03*
X0031620Y0040070D03*
X0034950Y0043730D03*
X0027790Y0043350D03*
X0074990Y0011040D03*
X0075770Y0006950D03*
X0027240Y0019440D03*
X0025080Y0016030D03*
X0026060Y0015980D03*
X0026790Y0016270D03*
X0047230Y0021710D03*
X0046590Y0026890D03*
X0113870Y0051130D03*
X0113090Y0048850D03*
X0007080Y0010990D03*
X0007630Y0006950D03*
X0007080Y0029050D03*
X0120160Y0033700D03*
X0054110Y0048060D03*
X0057870Y0050450D03*
X0036930Y0026950D03*
X0031950Y0028450D03*
X0049020Y0035430D03*
X0047440Y0036130D03*
X0044590Y0035960D03*
X0133040Y0011100D03*
X0133750Y0006950D03*
X0084570Y0010980D03*
X0085240Y0006950D03*
X0094340Y0011060D03*
X0094970Y0006950D03*
X0036080Y0011080D03*
X0036730Y0006950D03*
X0045790Y0011090D03*
X0046500Y0006950D03*
X0124170Y0026950D03*
X0152420Y0011120D03*
X0153080Y0006950D03*
X0142810Y0011140D03*
X0143510Y0006950D03*
X0016740Y0011000D03*
X0017390Y0006950D03*
X0143670Y0051240D03*
X0163970Y0016050D03*
X0142720Y0057550D03*
X0143170Y0056550D03*
X0164380Y0019350D03*
X0164780Y0021870D03*
X0163610Y0028830D03*
X0159530Y0027980D03*
X0164720Y0024890D03*
X0164330Y0026850D03*
X0164290Y0006950D03*
X0163610Y0011010D03*
X0153340Y0024950D03*
X0123370Y0011150D03*
X0124190Y0007000D03*
X0043720Y0042980D03*
X0042840Y0043000D03*
X0042080Y0043800D03*
Y0046170D03*
X0042510Y0047170D03*
X0040280Y0047360D03*
X0038991Y0044979D03*
X0038951Y0043290D03*
X0037450Y0043920D03*
X0036980Y0041320D03*
X0041010Y0053930D03*
X0042300Y0051840D03*
X0043990Y0049890D03*
X0047420Y0049880D03*
X0048340Y0049910D03*
X0049040Y0051880D03*
X0049980Y0050830D03*
X0049270Y0049540D03*
X0049250Y0045830D03*
X0049160Y0044660D03*
X0049130Y0043670D03*
X0044410Y0053130D03*
X0045290Y0049950D03*
X0046180Y0050010D03*
X0046840Y0051870D03*
X0104620Y0028560D03*
X0104700Y0026910D03*
X0100050Y0028150D03*
X0043040Y0049870D03*
X0049730Y0023640D03*
X0051180Y0028180D03*
X0040670Y0050080D03*
X0038850Y0050990D03*
X0038910Y0049210D03*
X0113924Y0043404D03*
X0113120Y0043280D03*
X0108820Y0042340D03*
X0110680Y0039960D03*
X0107410Y0038210D03*
X0107310Y0039200D03*
X0102940Y0038760D03*
X0045590Y0042940D03*
X0046490Y0042850D03*
X0047970Y0042950D03*
X0048860Y0043050D03*
X0049840Y0042710D03*
X0128740Y0028070D03*
X0050150Y0038580D03*
X0048650Y0039710D03*
X0050950Y0039740D03*
X0050410Y0039730D03*
X0042140Y0042890D03*
X0147220Y0023610D03*
X0148250Y0027650D03*
X0038730Y0046460D03*
X0037410Y0047430D03*
X0034910Y0050380D03*
X0052440Y0051150D03*
X0052420Y0049510D03*
X0041260Y0035680D03*
X0090180Y0027970D03*
X0070790Y0027780D03*
X0059360Y0023620D03*
X0060620Y0027830D03*
X0137000Y0023630D03*
X0138570Y0027840D03*
X0045591Y0053121D03*
X0158410Y0053620D03*
X0117535Y0042850D03*
X0121900Y0041050D03*
X0133400Y0016200D03*
X0132710Y0018580D03*
X0081980Y0023320D03*
X0078600Y0023650D03*
X0092080Y0023400D03*
X0111350D03*
X0113760Y0029200D03*
X0057040Y0021390D03*
X0056290Y0019380D03*
X0072570Y0023310D03*
X0130590Y0023330D03*
X0124280Y0024990D03*
X0055470Y0010960D03*
X0056070Y0007000D03*
X0117300Y0044220D03*
X0117100Y0045620D03*
X0116510Y0050790D03*
X0117360Y0050030D03*
X0114120Y0016210D03*
X0113360Y0018480D03*
X0112460Y0018530D03*
X0012820Y0028390D03*
X0017630Y0026910D03*
X0003030Y0027790D03*
X0002570Y0022790D03*
X0004800Y0023200D03*
X0119725Y0050660D03*
X0118850Y0050790D03*
X0007900Y0026910D03*
X0007730Y0024950D03*
X0008410Y0021750D03*
X0007780Y0019370D03*
X0007440Y0016030D03*
X0005740Y0018540D03*
X0006720Y0018530D03*
X0011360Y0023640D03*
X0017620Y0024950D03*
X0014430Y0023340D03*
X0018110Y0021600D03*
X0017400Y0019370D03*
X0017110Y0016090D03*
X0015440Y0018570D03*
X0016410Y0018550D03*
X0016750Y0029270D03*
X0030560Y0023660D03*
X0036940Y0024990D03*
X0033790Y0023280D03*
X0036070Y0029120D03*
X0037410Y0021600D03*
X0116400Y0047880D03*
X0117040Y0049520D03*
X0036820Y0019440D03*
X0036440Y0016360D03*
X0040230Y0023620D03*
X0046720Y0024930D03*
X0043430Y0023400D03*
X0046530Y0019420D03*
X0046150Y0016150D03*
X0041920Y0027920D03*
X0056530Y0024950D03*
X0052940Y0023390D03*
X0124440Y0051940D03*
X0122070Y0051835D03*
X0121700Y0050680D03*
X0115342Y0047538D03*
X0113910Y0049550D03*
X0115840Y0054205D03*
X0117750Y0053240D03*
X0042110Y0045280D03*
X0043635Y0045725D03*
X0052437Y0041633D03*
X0053400Y0043830D03*
X0052410Y0046440D03*
X0052404Y0045176D03*
X0052440Y0043600D03*
X0051155Y0047735D03*
X0163220Y0016010D03*
X0162280Y0016050D03*
X0161360Y0023290D03*
X0065840Y0007000D03*
X0121750Y0055940D03*
X0127570Y0044090D03*
X0115380Y0043290D03*
X0126140Y0041430D03*
X0114330Y0019390D03*
X0113760Y0011190D03*
X0114440Y0006960D03*
X0122790Y0050105D03*
X0117890Y0039540D03*
X0048260Y0053210D03*
X0038850Y0048550D03*
X0041020Y0038980D03*
X0093000Y0023760D03*
X0151090Y0023840D03*
X0112420Y0023910D03*
X0119195Y0048719D03*
X0046590Y0039710D03*
X0045390Y0039690D03*
X0042380Y0039710D03*
X0044390Y0039680D03*
X0102660Y0023770D03*
X0073630Y0023840D03*
X0042900Y0039590D03*
X0048070Y0039550D03*
X0113958Y0045766D03*
X0041330Y0042040D03*
X0040333Y0040353D03*
X0127646Y0048916D03*
X0123730Y0050120D03*
X0124310Y0048910D03*
X0124340Y0049870D03*
X0119555Y0051835D03*
X0120830Y0053170D03*
X0054120Y0023870D03*
X0083230Y0023930D03*
X0124970Y0034530D03*
X0127320Y0033990D03*
X0115050Y0052555D03*
X0123020Y0034410D03*
X0123360Y0029280D03*
X0121690Y0032910D03*
X0015400Y0023880D03*
X0040320Y0048920D03*
X0043340Y0048600D03*
X0125890Y0039760D03*
X0125510Y0039440D03*
X0125190Y0039720D03*
X0005750Y0023860D03*
X0131670Y0023930D03*
X0051180Y0041430D03*
X0049410Y0041750D03*
X0119500Y0038110D03*
X0120394Y0039735D03*
X0045150Y0038750D03*
X0052690Y0045790D03*
X0116840Y0037390D03*
X0123720Y0041010D03*
X0123020Y0037870D03*
X0044450Y0023740D03*
X0116360Y0042070D03*
X0120250Y0042780D03*
X0118460Y0042850D03*
X0041920Y0042050D03*
X0124400Y0042140D03*
X0051140Y0045830D03*
X0125706Y0041944D03*
X0125850Y0042670D03*
X0123680Y0047330D03*
X0122020Y0023890D03*
X0034750Y0023820D03*
X0119060Y0041030D03*
X0117410Y0039710D03*
X0115340Y0040210D03*
X0125050Y0050800D03*
X0047360Y0039000D03*
X0046520Y0038700D03*
X0049250Y0046860D03*
X0049230Y0048500D03*
X0040190Y0045270D03*
X0115220Y0050120D03*
X0120230Y0051910D03*
X0125880Y0046540D03*
X0063830Y0023870D03*
X0123370Y0053180D03*
X0046470Y0040980D03*
X0126255Y0051640D03*
X0126200Y0049860D03*
X0124410Y0051490D03*
X0127440Y0050860D03*
X0131220Y0051700D03*
X0121190Y0051980D03*
X0042100Y0048910D03*
X0041550Y0047450D03*
X0045470Y0053920D03*
X0120260Y0041020D03*
X0045300Y0051890D03*
X0038930Y0043860D03*
X0040020Y0041140D03*
X0051120Y0051680D03*
X0048520Y0047070D03*
X0120860Y0039610D03*
X0142330Y0056510D03*
X0051120Y0049540D03*
X0050680Y0047270D03*
X0140920Y0055320D03*
X0047310Y0037550D03*
X0040180Y0046160D03*
X0038130Y0045880D03*
X0123250Y0048170D03*
X0113970Y0048920D03*
X0121855Y0041540D03*
X0121910Y0051330D03*
X0118840Y0051590D03*
X0122670Y0041020D03*
X0123570Y0039240D03*
X0050316Y0040954D03*
X0040870Y0039750D03*
X0125850Y0044705D03*
X0126150Y0045960D03*
X0122790Y0051930D03*
X0126200Y0048910D03*
X0047730Y0045270D03*
X0043040Y0051780D03*
X0040670Y0051870D03*
X0051080Y0048490D03*
X0047953Y0041136D03*
X0051160Y0044660D03*
X0115860Y0039470D03*
X0048347Y0051793D03*
X0114695Y0040970D03*
X0117530Y0040980D03*
X0043970Y0051780D03*
X0145990Y0056010D03*
X0045800Y0029440D03*
X0042720Y0034690D03*
X0115490Y0048120D03*
X0115270Y0045700D03*
X0105730Y0062380D03*
X0162260Y0023530D03*
X0043710Y0041050D03*
X0040258Y0043798D03*
X0115360Y0044120D03*
X0118430Y0041040D03*
X0113645Y0051475D03*
X0125370Y0047550D03*
X0123220Y0039590D03*
X0045870Y0054760D03*
X0045860Y0061020D03*
X0045590Y0040980D03*
X0042840Y0041100D03*
X0045890Y0046710D03*
X0047510Y0062060D03*
Y0055530D03*
X0049900Y0056560D03*
X0046182Y0051922D03*
X0047420Y0051920D03*
X0125670Y0058070D03*
X0131700Y0016010D03*
X0046630Y0061430D03*
X0046590Y0055490D03*
X0115550Y0046290D03*
X0118400Y0047380D03*
X0126830Y0051810D03*
X0045260Y0047230D03*
X0116715Y0051640D03*
X0052900Y0056520D03*
X0051130Y0043670D03*
X0051070Y0046470D03*
X0047990Y0047350D03*
X0051800Y0051890D03*
X0048410Y0055610D03*
X0048820Y0062690D03*
X0122840Y0047800D03*
X0040210Y0042880D03*
X0119470Y0053320D03*
X0051910Y0056480D03*
X0045970Y0048650D03*
X0116410Y0054850D03*
X0120130Y0049790D03*
X0103250Y0060190D03*
X0102750Y0062050D03*
X0045580Y0047700D03*
X0118410Y0054890D03*
X0050930Y0056520D03*
X0040250Y0048040D03*
X0044790Y0048740D03*
X0101730Y0061430D03*
X0119580Y0049270D03*
X0105220Y0061000D03*
X0102210Y0060610D03*
X0119620Y0050170D03*
X0126640Y0057990D03*
X0131600Y0044990D03*
X0128660Y0058050D03*
X0127650Y0058100D03*
X0036130Y0051470D03*
X0106210Y0061760D03*
G54D50*
X0106950Y0025960D03*
X0103780Y0037140D03*
X0156410Y0057880D03*
X0153980Y0057980D03*
X0152930Y0059010D03*
X0157970Y0055260D03*
G54D52*
X0138330Y0040580D03*
X0137850Y0037595D03*
X0137820Y0052660D03*
X0062730Y0023490D03*
X0066300Y0021770D03*
X0065170Y0029050D03*
X0065180Y0011110D03*
X0065910Y0019400D03*
X0064920Y0018550D03*
X0065530Y0016170D03*
X0065970Y0026900D03*
Y0024940D03*
X0075880Y0024950D03*
X0069550Y0023610D03*
X0152430Y0029080D03*
X0095270Y0024950D03*
X0088840Y0023630D03*
X0133830Y0024970D03*
X0127540Y0023630D03*
X0145180Y0042320D03*
X0118229Y0053220D03*
X0141460Y0023760D03*
X0120800Y0043660D03*
G54D54*
X0126550Y0064140D03*
X0080370D03*
X0127420Y0003940D03*
X0078920D03*
X0040110D03*
X0042100Y0064140D03*
X0084310D03*
X0088260D03*
X0164510Y0034010D03*
X0164550Y0064130D03*
X0004540Y0034020D03*
Y0064130D03*
G54D55*
X0157340Y0045100D03*
X0150310Y0049920D03*
G54D56*
X0149970Y0044360D03*
X0151290D03*
X0139170Y0038370D03*
X0137850D03*
X0154070Y0052850D03*
X0155390D03*
X0041940Y0037240D03*
Y0035920D03*
X0043550Y0036270D03*
Y0034950D03*
X0048280Y0036740D03*
Y0035420D03*
X0120160Y0035800D03*
Y0034480D03*
X0126490Y0035310D03*
Y0033990D03*
X0121690Y0034990D03*
Y0033670D03*
G54D57*
X0154070Y0054580D03*
X0156520D03*
X0153950Y0056700D03*
X0156400D03*
G54D58*
X0119400Y0054850D03*
Y0054010D03*
X0118420Y0056230D03*
Y0055390D03*
X0117400Y0056200D03*
Y0055360D03*
X0116420Y0056190D03*
Y0055350D03*
X0048510Y0045750D03*
X0047670D03*
X0048520Y0046640D03*
X0047680D03*
X0125670Y0059560D03*
Y0058720D03*
X0126640Y0059550D03*
Y0058710D03*
X0127650Y0059560D03*
Y0058720D03*
X0128660Y0059550D03*
Y0058710D03*
X0049920Y0057940D03*
Y0057100D03*
X0050900Y0057950D03*
Y0057110D03*
X0051920Y0057950D03*
Y0057110D03*
X0052910Y0057950D03*
Y0057110D03*
X0123690Y0045900D03*
X0122850D03*
X0123680Y0046760D03*
X0122840D03*
X0113750Y0003900D03*
X0112910D03*
X0104000Y0003850D03*
X0103160D03*
X0094320Y0003800D03*
X0093480D03*
X0084570Y0003770D03*
X0083730D03*
X0123380Y0003950D03*
X0122540D03*
X0133040Y0003850D03*
X0132200D03*
X0142800D03*
X0141960D03*
X0152410Y0003900D03*
X0151570D03*
X0163550Y0003770D03*
X0162710D03*
X0074980Y0003690D03*
X0074140D03*
X0065210Y0003850D03*
X0064370D03*
X0055480Y0003800D03*
X0054640D03*
X0045800D03*
X0044960D03*
X0007080Y0003850D03*
X0006240D03*
X0016700Y0003800D03*
X0015860D03*
X0036100D03*
X0035260D03*
X0026400Y0003750D03*
X0025560D03*
X0050700Y0048500D03*
X0049860D03*
X0040490Y0041430D03*
X0041330D03*
X0040670Y0042890D03*
X0041510D03*
X0040630Y0046160D03*
X0041470D03*
X0040720Y0048910D03*
X0041560D03*
X0040670Y0043800D03*
X0041510D03*
X0040620Y0045270D03*
X0041460D03*
X0040710Y0048030D03*
X0041550D03*
X0043990Y0051320D03*
Y0050480D03*
X0046180Y0051490D03*
Y0050650D03*
X0047420Y0051370D03*
Y0050530D03*
X0040670Y0051430D03*
Y0050590D03*
X0043040Y0051307D03*
Y0050467D03*
X0045290Y0051490D03*
Y0050650D03*
X0048340Y0051360D03*
Y0050520D03*
X0050710Y0051670D03*
Y0050830D03*
X0050720Y0049540D03*
X0049880D03*
X0050680Y0046860D03*
X0049840D03*
X0050670Y0043670D03*
X0049830D03*
X0050450Y0041870D03*
Y0042710D03*
X0048870Y0041610D03*
Y0042450D03*
X0045590Y0041410D03*
Y0042250D03*
X0042840Y0041500D03*
Y0042340D03*
X0050670Y0045830D03*
X0049830D03*
X0050670Y0044660D03*
X0049830D03*
X0047960Y0041580D03*
Y0042420D03*
X0046480Y0041400D03*
Y0042240D03*
X0043710Y0041500D03*
Y0042340D03*
X0043350Y0047720D03*
X0042510D03*
X0115780Y0044220D03*
X0116620D03*
X0115550Y0046750D03*
X0116390D03*
X0115710Y0045620D03*
X0116550D03*
X0125720Y0051640D03*
Y0050800D03*
X0125700Y0041430D03*
X0124860D03*
X0115520D03*
X0116360D03*
X0115860Y0043290D03*
X0116700D03*
X0115570Y0049590D03*
X0116410D03*
X0115670Y0051630D03*
Y0050790D03*
X0117310Y0051640D03*
Y0050800D03*
X0120240Y0051500D03*
Y0050660D03*
X0125730Y0049860D03*
X0124890D03*
X0125860Y0047010D03*
X0125020D03*
X0125850Y0043220D03*
X0125010D03*
X0123730Y0051500D03*
Y0050660D03*
X0123640Y0041600D03*
Y0042440D03*
X0120250Y0041410D03*
Y0042250D03*
X0117540Y0041480D03*
Y0042320D03*
X0118460Y0041480D03*
Y0042320D03*
X0121150Y0041350D03*
Y0042190D03*
X0122670Y0041590D03*
Y0042430D03*
X0122790Y0051500D03*
Y0050660D03*
X0125850Y0044130D03*
X0125010D03*
X0125750Y0045880D03*
X0124910D03*
X0125730Y0048910D03*
X0124890D03*
X0121180Y0051520D03*
Y0050680D03*
X0118230Y0051630D03*
Y0050790D03*
X0115560Y0048720D03*
X0116400D03*
X0118400Y0047970D03*
X0117560D03*
X0149970Y0043060D03*
X0150810D03*
X0139170Y0039730D03*
X0138330D03*
G54D59*
X0149916Y0056550D03*
X0100730Y0063800D03*
X0104730Y0064800D03*
X0006240Y0004850D03*
X0044970D03*
X0015870D03*
X0054640D03*
X0025570D03*
X0064370D03*
X0035270D03*
X0074140D03*
X0122540D03*
X0083730D03*
X0132210D03*
X0093480D03*
X0141970D03*
X0103170D03*
X0151580D03*
X0112920D03*
X0162720D03*
X0033570Y0049380D03*
X0102400Y0049030D03*
X0053310Y0049360D03*
Y0048060D03*
X0048100Y0039000D03*
X0049400D03*
X0038130Y0045220D03*
Y0043920D03*
X0043030Y0053930D03*
X0041730D03*
X0053400Y0045790D03*
Y0044490D03*
X0043030Y0038980D03*
X0041730D03*
X0038090Y0048720D03*
Y0047420D03*
X0047400Y0053920D03*
X0046100D03*
X0121370Y0038950D03*
X0120070D03*
X0128150Y0048950D03*
Y0047650D03*
X0113120Y0045770D03*
Y0044470D03*
X0118230Y0054010D03*
X0116930D03*
X0118030Y0038690D03*
Y0037390D03*
X0128280Y0043800D03*
Y0045100D03*
X0113090Y0049280D03*
Y0047980D03*
X0123250Y0054370D03*
X0121950D03*
G54D60*
X0156820Y0035250D03*
X0155820Y0034250D03*
X0157820D03*
Y0036250D03*
X0155820D03*
X0156910Y0039470D03*
X0155910Y0038470D03*
X0157910D03*
Y0040470D03*
X0155910D03*
X0144180Y0047350D03*
X0143180Y0046350D03*
X0145180D03*
Y0048350D03*
X0143180D03*
X0139510Y0049340D03*
X0140510Y0048340D03*
Y0050340D03*
X0138510D03*
Y0048340D03*
G54D61*
X0155950Y0064870D03*
X0157950D03*
G54D62*
X0153950D03*
G54D63*
X0036724Y0038994D03*
X0037315D03*
X0037905D03*
X0038496D03*
X0039086D03*
X0113080Y0037920D03*
X0113671D03*
X0114261D03*
X0114852D03*
X0115443D03*
G54D64*
X0036134Y0038994D03*
X0112490Y0037920D03*
G54D65*
X0100730Y0064800D03*
X0101730Y0063800D03*
Y0064800D03*
X0102730Y0063800D03*
Y0064800D03*
X0103730Y0063800D03*
Y0064800D03*
X0104730Y0063800D03*
X0105730D03*
Y0064800D03*
X0106730Y0063800D03*
Y0064800D03*
X0033570Y0050380D03*
X0102400Y0050030D03*
G54D66*
X0008240Y0002850D03*
X0004240D03*
X0046970D03*
X0042970D03*
X0017870D03*
X0013870D03*
X0056640D03*
X0052640D03*
X0027570D03*
X0023570D03*
X0066370D03*
X0062370D03*
X0037270D03*
X0033270D03*
X0076140D03*
X0072140D03*
X0124540D03*
X0120540D03*
X0085730D03*
X0081730D03*
X0134210D03*
X0130210D03*
X0095480D03*
X0091480D03*
X0143970D03*
X0139970D03*
X0105170D03*
X0101170D03*
X0153580D03*
X0149580D03*
X0114920D03*
X0110920D03*
X0164720D03*
X0160720D03*
G54D67*
X0144000Y0044360D03*
X0141000D03*
Y0038360D03*
Y0040610D03*
Y0036860D03*
X0148500D03*
Y0044360D03*
X0007240Y0004850D03*
X0045970D03*
X0016870D03*
X0055640D03*
X0026570D03*
X0065370D03*
X0036270D03*
X0075140D03*
X0123540D03*
X0084730D03*
X0133210D03*
X0094480D03*
X0142970D03*
X0104170D03*
X0152580D03*
X0113920D03*
X0163720D03*
G54D68*
X0076500Y0030000D03*
X0079850D03*
X0077000Y0036050D03*
X0004000Y0043390D03*
X0162000Y0055400D03*
X0107620Y0053670D03*
X0004000Y0046400D03*
X0060140Y0049740D03*
X0092400Y0052500D03*
X0162010Y0053380D03*
X0011810Y0062500D03*
X0162000Y0057400D03*
X0013270Y0067010D03*
X0162000Y0059330D03*
X0062450Y0052790D03*
X0133780Y0062280D03*
X0077000Y0038950D03*
G54D69*
X0046860Y0036990D03*
Y0036740D03*
Y0036490D03*
X0044910D03*
Y0036740D03*
Y0036990D03*
Y0037240D03*
X0124970Y0035550D03*
Y0035300D03*
Y0035050D03*
X0123020D03*
Y0035300D03*
Y0035550D03*
Y0035800D03*
G54D70*
X0046860Y0037240D03*
X0124970Y0035800D03*
G54D71*
X0046645Y0047725D03*
Y0047475D03*
Y0047225D03*
Y0046975D03*
Y0046725D03*
Y0046475D03*
Y0046225D03*
Y0045975D03*
Y0045725D03*
X0044445D03*
Y0045975D03*
Y0046225D03*
Y0046475D03*
Y0046725D03*
Y0046975D03*
Y0047225D03*
Y0047475D03*
Y0047725D03*
Y0047975D03*
X0121630Y0047720D03*
Y0047470D03*
Y0047220D03*
Y0046970D03*
Y0046720D03*
Y0046470D03*
Y0046220D03*
Y0045970D03*
Y0045720D03*
X0119430D03*
Y0045970D03*
Y0046220D03*
Y0046470D03*
Y0046720D03*
Y0046970D03*
Y0047220D03*
Y0047470D03*
Y0047720D03*
Y0047970D03*
G54D72*
X0046645Y0047975D03*
X0121630Y0047970D03*
G54D73*
X0147947Y0054581D03*
X0148931Y0055566D03*
X0149916Y0054581D03*
X0150900Y0055566D03*
X0147947Y0056550D03*
G54D74*
X0144000Y0038360D03*
G54D75*
X0105050Y0040500D03*
X0054160Y0058540D03*
X0054000Y0057950D03*
X0030970Y0041870D03*
X0125500Y0036300D03*
X0162280Y0018520D03*
X0141480Y0018500D03*
X0112410Y0016040D03*
X0113430Y0016100D03*
X0102620Y0018580D03*
X0103620Y0016020D03*
X0093970D03*
X0083260Y0018590D03*
X0073600Y0018530D03*
X0063790Y0018610D03*
X0016380Y0016030D03*
X0005730Y0015960D03*
X0025090Y0023800D03*
X0023980Y0023460D03*
X0120930Y0023560D03*
X0163250Y0018530D03*
X0151050Y0018550D03*
X0152040Y0016030D03*
X0142450Y0018550D03*
X0131680Y0018580D03*
X0132760Y0016010D03*
X0122020Y0018740D03*
X0123050Y0018690D03*
X0092980Y0018700D03*
X0083230Y0015990D03*
X0084240D03*
X0073680Y0016140D03*
X0074540Y0016130D03*
X0063810Y0016110D03*
X0064910Y0016130D03*
X0054190Y0018500D03*
X0054130Y0015960D03*
X0055140Y0015970D03*
X0055200Y0018510D03*
X0044510Y0016040D03*
X0044480Y0018540D03*
X0045360Y0016030D03*
X0045470Y0018550D03*
X0034750Y0016190D03*
X0034790Y0018510D03*
X0035730Y0016190D03*
X0035790Y0018530D03*
X0025080Y0018620D03*
X0026090Y0018570D03*
X0015400Y0016060D03*
X0006770Y0015910D03*
X0129290Y0062340D03*
X0129720Y0059550D03*
X0158370Y0023590D03*
X0022120Y0028410D03*
X0119420Y0028260D03*
X0020850Y0023660D03*
X0117760Y0023650D03*
X0027610Y0021760D03*
X0114950Y0021700D03*
X0026430Y0029030D03*
X0027280Y0026950D03*
X0027200Y0024990D03*
X0026430Y0011360D03*
X0027110Y0006900D03*
G54D76*
X0117390Y0054860D03*
M02*
