%
T1C0.0180F200S100
X002570Y022790
X003030Y027790
X004800Y023200
X005730Y015960
X005740Y018540
X005750Y023860
X006720Y018530
X006770Y015910
X007080Y010990
X007440Y016030
X007080Y029050
X007630Y006950
X007730Y024950
X007780Y019370
X007900Y026910
X008410Y021750
X011360Y023640
X012820Y028390
X014430Y023340
X015400Y016060
X015440Y018570
X015400Y023880
X016380Y016030
X016410Y018550
X016740Y011000
X016750Y029270
X017110Y016090
X017390Y006950
X017400Y019370
X017620Y024950
X017630Y026910
X018110Y021600
X020850Y023660
X022120Y028410
X023980Y023460
X025080Y016030
X025080Y018620
X025090Y023800
X026060Y015980
X026090Y018570
X026430Y011360
X026430Y029030
X026790Y016270
X027110Y006900
X027200Y024990
X027240Y019440
X027280Y026950
X027610Y021760
X027790Y043350
X028610Y025960
X028610Y041470
X030560Y023660
X030970Y041870
X031620Y040070
X031950Y028450
X033790Y023280
X034750Y016190
X034750Y023820
X034790Y018510
X034910Y050380
X034950Y043730
X035730Y016190
X035790Y018530
X036070Y029120
X036080Y011080
X036130Y051470
X036440Y016360
X036730Y006950
X036820Y019440
X036930Y026950
X036940Y024990
X036980Y041320
X037410Y021600
X037450Y043920
X037410Y047430
X038130Y045880
X038730Y046460
X038850Y048550
X038910Y049210
X038850Y050990
X038930Y043860
X038951Y043290
X038991Y044979
X040020Y041140
X040180Y046160
X040190Y045270
X040210Y042880
X040230Y023620
X040250Y048040
X040258Y043798
X040280Y047360
X040320Y048920
X040333Y040353
X040670Y050080
X040670Y051870
X040870Y039750
X041010Y053930
X041020Y038980
X041260Y035680
X041330Y042040
X041550Y047450
X041920Y027920
X041920Y042050
X042080Y043800
X042080Y046170
X042100Y048910
X042110Y045280
X042140Y042890
X042300Y051840
X042380Y039710
X042510Y047170
X042720Y034690
X042840Y041100
X042840Y043000
X042900Y039590
X043040Y049870
X043040Y051780
X043340Y048600
X043430Y023400
X043635Y045725
X043710Y041050
X043720Y042980
X043970Y051780
X043990Y049890
X044390Y039680
X044410Y053130
X044450Y023740
X044480Y018540
X044510Y016040
X044590Y035960
X044790Y048740
X045150Y038750
X045260Y047230
X045290Y049950
X045300Y051890
X045360Y016030
X045390Y039690
X045470Y018550
X045580Y047700
X045470Y053920
X045590Y040980
X045590Y042940
X045591Y053121
X045790Y011090
X045800Y029440
X045860Y061020
X045870Y054760
X045890Y046710
X045970Y048650
X046150Y016150
X046180Y050010
X046182Y051922
X046470Y040980
X046490Y042850
X046500Y006950
X046520Y038700
X046530Y019420
X046590Y026890
X046590Y039710
X046590Y055490
X046630Y061430
X046720Y024930
X046840Y051870
X047230Y021710
X047310Y037550
X047360Y039000
X047420Y049880
X047420Y051920
X047440Y036130
X047510Y055530
X047510Y062060
X047730Y045270
X047953Y041136
X047970Y042950
X047990Y047350
X048070Y039550
X048260Y053210
X048340Y049910
X048347Y051793
X048410Y055610
X048520Y047070
X048650Y039710
X048820Y062690
X048860Y043050
X048870Y041000
X049020Y035430
X049040Y051880
X049130Y043670
X049160Y044660
X049230Y048500
X049250Y045830
X049250Y046860
X049270Y049540
X049410Y041750
X049730Y023640
X049840Y042710
X049900Y056560
X049980Y050830
X050150Y038580
X050316Y040954
X050410Y039730
X050680Y047270
X050930Y056520
X050950Y039740
X051070Y046470
X051080Y048490
X051120Y049540
X051120Y051680
X051130Y043670
X051140Y045830
X051155Y047735
X051160Y044660
X051180Y028180
X051180Y041430
X051800Y051890
X051910Y056480
X052404Y045176
X052410Y046440
X052420Y049510
X052437Y041633
X052440Y043600
X052530Y048990
X052440Y051150
X052690Y045790
X052900Y056520
X052940Y023390
X053400Y043830
X054000Y057950
X054110Y048060
X054120Y023870
X054130Y015960
X054160Y058540
X054190Y018500
X055140Y015970
X055200Y018510
X055460Y028920
X055470Y010960
X055830Y016210
X056070Y007000
X056120Y026910
X056290Y019380
X056530Y024950
X057040Y021390
X057870Y050450
X059360Y023620
X060620Y027830
X062730Y023490
X063790Y018610
X063810Y016110
X063830Y023870
X064910Y016130
X064920Y018550
X065170Y029050
X065180Y011110
X065530Y016170
X065840Y007000
X065910Y019400
X065970Y024940
X065970Y026900
X066300Y021770
X069550Y023610
X070790Y027780
X072570Y023310
X073600Y018530
X073630Y023840
X073680Y016140
X074540Y016130
X074640Y018500
X074960Y029290
X074990Y011040
X075340Y016290
X075760Y019380
X075770Y006950
X075860Y026910
X075880Y024950
X076330Y021830
X078600Y023650
X081120Y027510
X081980Y023320
X082890Y029610
X083230Y015990
X083260Y018590
X083230Y023930
X084240Y015990
X084280Y018610
X084570Y010980
X084930Y016010
X085240Y006950
X085290Y024980
X085340Y026940
X085500Y019440
X086140Y021730
X088840Y023630
X090180Y027970
X092080Y023400
X092980Y018700
X093000Y015990
X093000Y023760
X093970Y016020
X093990Y018690
X094340Y011060
X094350Y029120
X094700Y016280
X094970Y006950
X095090Y026910
X095120Y019320
X095270Y024950
X095810Y021590
X098160Y023630
X100050Y028150
X101650Y023380
X101730Y061430
X102210Y060610
X102620Y018580
X102660Y023770
X102670Y016000
X102750Y062050
X102940Y038760
X103250Y060190
X103620Y016020
X103650Y018510
X104000Y011020
X104360Y016070
X104620Y028560
X104700Y019430
X104700Y026910
X104730Y006950
X104740Y024950
X105050Y040500
X105180Y021790
X105220Y061000
X105730Y062380
X106210Y061760
X107310Y039200
X107410Y038210
X108180Y023640
X108820Y042340
X109660Y028390
X110680Y039960
X111350Y023400
X112410Y016040
X112420Y023910
X112460Y018530
X113090Y048850
X113120Y043280
X113360Y018480
X113430Y016100
X113645Y051475
X113760Y011190
X113760Y029200
X113870Y051130
X113910Y044960
X113910Y049550
X113924Y043404
X113958Y045766
X113970Y048920
X113973Y046357
X114120Y016210
X114330Y019390
X114440Y006960
X114480Y026920
X114695Y040970
X114700Y024960
X114950Y021700
X115050Y052555
X115220Y050120
X115270Y045700
X115340Y040210
X115342Y047538
X115360Y044120
X115380Y043290
X115490Y048120
X115550Y046290
X115840Y054205
X115860Y039470
X116360Y042070
X116400Y047880
X116410Y054850
X116510Y050790
X116715Y051640
X116840Y037390
X116970Y046750
X117040Y049520
X117100Y045620
X117300Y044220
X117345Y043290
X117360Y050030
X117390Y054860
X117410Y039710
X117530Y040980
X117535Y042850
X117560Y047380
X117750Y053240
X117760Y023650
X117890Y039540
X118229Y053220
X118400Y047380
X118410Y054890
X118430Y041040
X118460Y042850
X118480Y045720
X118840Y051590
X118850Y050790
X119060Y041030
X119195Y048719
X119420Y028260
X119470Y053320
X119500Y038110
X119555Y051835
X119580Y049270
X119620Y050170
X119725Y050660
X120130Y049790
X120160Y033700
X120230Y051910
X120250Y042780
X120260Y041020
X120394Y039735
X120800Y043660
X120830Y053170
X120860Y039610
X120930Y023560
X121150Y042735
X121190Y051980
X121690Y032910
X121700Y050680
X121750Y055940
X121855Y041540
X121900Y041050
X121910Y051330
X122020Y018740
X122020Y023890
X122040Y015970
X122070Y051835
X122670Y041020
X122670Y043035
X122790Y050105
X122790Y051930
X122840Y047800
X122990Y015990
X123020Y034410
X123020Y037870
X123050Y018690
X123220Y039590
X123250Y048170
X123360Y029280
X123370Y011150
X123370Y053180
X123570Y039240
X123640Y043020
X123680Y047330
X123720Y041010
X123730Y016150
X124070Y019540
X123730Y050120
X124170Y026950
X124190Y007000
X124280Y024990
X124310Y048910
X124340Y045880
X124380Y043220
X124340Y049870
X124390Y044130
X124400Y042140
X124410Y051490
X124430Y047010
X124440Y051940
X124570Y021900
X124860Y042160
X124970Y034530
X125050Y050800
X125190Y039720
X125370Y047550
X125500Y036300
X125510Y039440
X125670Y058070
X125706Y041944
X125850Y042670
X125850Y044705
X125880Y046540
X125890Y039760
X126140Y041430
X126145Y048060
X126150Y045960
X126200Y048910
X126200Y049860
X126255Y051640
X126640Y057990
X126830Y051810
X127320Y033990
X127440Y050860
X127455Y045310
X127490Y043600
X127505Y046402
X127533Y041633
X127540Y023630
X127570Y044090
X127646Y048916
X127650Y058100
X127705Y049985
X128660Y058050
X128740Y028070
X129080Y047650
X129170Y045380
X129290Y062340
X129720Y059550
X130590Y023330
X131220Y051700
X131600Y044990
X131670Y023930
X131680Y018580
X131700Y016010
X132710Y018580
X132760Y016010
X133020Y028910
X133040Y011100
X133400Y016200
X133680Y019410
X133750Y006950
X133830Y024970
X133830Y026930
X134270Y021740
X135560Y056500
X137000Y023630
X137820Y052660
X137850Y037595
X138330Y040580
X138570Y027840
X140440Y023380
X140920Y055320
X141460Y023760
X141480Y018500
X141540Y016000
X142330Y056510
X142410Y016030
X142450Y018550
X142720Y057550
X142800Y029090
X142810Y011140
X143170Y016110
X143500Y019400
X143170Y056550
X143510Y006950
X143660Y026900
X143670Y051240
X143690Y024940
X143940Y021880
X145180Y042320
X145990Y056010
X147220Y023610
X148250Y027650
X150300Y023450
X150810Y042290
X151050Y018550
X151090Y016030
X151090Y023840
X151290Y045330
X152040Y016030
X152090Y018580
X152420Y011120
X152430Y029080
X152780Y016280
X153020Y019400
X153080Y006950
X153260Y026910
X153340Y024950
X153910Y021680
X158370Y023590
X158410Y053620
X159530Y027980
X161360Y023290
X162260Y023530
X162280Y016050
X162280Y018520
X163220Y016010
X163250Y018530
X163610Y011010
X163970Y016050
X163610Y028830
X164290Y006950
X164330Y026850
X164380Y019350
X164720Y024890
X164780Y021870
T2C0.0280F200S100
X103780Y037140
X106950Y025960
X152930Y059010
X153980Y057980
X156410Y057880
X157970Y055260
T5C0.0350F200S100
X006240Y004850
X015870Y004850
X025570Y004850
X033570Y049380
X033570Y050380
X035270Y004850
X044970Y004850
X054640Y004850
X064370Y004850
X074140Y004850
X083730Y004850
X093480Y004850
X100730Y063800
X100730Y064800
X101730Y063800
X101730Y064800
X102400Y049030
X102400Y050030
X102730Y063800
X102730Y064800
X103170Y004850
X103730Y063800
X103730Y064800
X104730Y063800
X104730Y064800
X105730Y063800
X105730Y064800
X106730Y063800
X106730Y064800
X112920Y004850
X122540Y004850
X132210Y004850
X141970Y004850
X151580Y004850
X162720Y004850
T6C0.0370F200S100
X007240Y004850
X016870Y004850
X026570Y004850
X036270Y004850
X045970Y004850
X055640Y004850
X065370Y004850
X075140Y004850
X084730Y004850
X094480Y004850
X104170Y004850
X113920Y004850
X123540Y004850
X133210Y004850
X142970Y004850
X152580Y004850
X163720Y004850
T11C0.0920F200S100
X004240Y002850
X008240Y002850
X013870Y002850
X017870Y002850
X023570Y002850
X027570Y002850
X033270Y002850
X037270Y002850
X042970Y002850
X046970Y002850
X052640Y002850
X056640Y002850
X062370Y002850
X066370Y002850
X072140Y002850
X076140Y002850
X081730Y002850
X085730Y002850
X091480Y002850
X095480Y002850
X101170Y002850
X105170Y002850
X110920Y002850
X114920Y002850
X120540Y002850
X124540Y002850
X130210Y002850
X134210Y002850
X139970Y002850
X143970Y002850
X149580Y002850
X153580Y002850
X160720Y002850
X164720Y002850
T4C0.0340F200S100
X141000Y036860
X141000Y038360
X141000Y040610
X141000Y044360
X144000Y038360
X144000Y044360
X148500Y036860
X148500Y044360
T12C0.1180F200S100
X004540Y034020
X004540Y064130
X040110Y003940
X042100Y064140
X078920Y003940
X080370Y064140
X084310Y064140
X088260Y064140
X126550Y064140
X127420Y003940
X164510Y034010
X164550Y064130
T3C0.0300F200S100
X036134Y038994
X036724Y038994
X037315Y038994
X037905Y038994
X038496Y038994
X039086Y038994
X112490Y037920
X113080Y037920
X113671Y037920
X114261Y037920
X114852Y037920
X115443Y037920
T8C0.0420F200S100
X153950Y064870
X155950Y064870
X157950Y064870
T13C0.5118F200S100
X150310Y049920
X157340Y045100
T7C0.0390F200S100
X147947Y054581
X148931Y055566
X147947Y056550
X149916Y054581
X150900Y055566
X149916Y056550
T9C0.0540F200S100
X138510Y048340
X139510Y049340
X138510Y050340
X140510Y048340
X140510Y050340
X143180Y046350
X143180Y048350
X144180Y047350
X145180Y046350
X145180Y048350
X155820Y034250
X155820Y036250
X155910Y038470
X155910Y040470
X156820Y035250
X156910Y039470
X157820Y034250
X157820Y036250
X157910Y038470
X157910Y040470
T10C0.0550F200S100
X004000Y043390
X004000Y046400
X011810Y062500
X013270Y067010
X060140Y049740
X062450Y052790
X076500Y030000
X077000Y036050
X077000Y038950
X079850Y030000
X092400Y052500
X107620Y053670
X133780Y062280
X162000Y055400
X162000Y057400
X162000Y059330
X162010Y053380
M30
