*
G04 Mass Parameters ***
*
G04 Image ***
*
%INE:\MUSHTAQ PCB\SAJJAD HUSSAIN\CHRONO32C\CHRONO32C_MC_R1\MC_BOARD3-53.SST*%
%ICAS*%
%MOIN*%
%IPPOS*%
%ASAXBY*%
G74*%FSLAN2X34Y34*%
*
G04 Aperture Definitions ***
*
%ADD10C,0.1370*%
%ADD11R,0.1000X0.0510*%
%ADD12R,0.1000X0.0350*%
%ADD13R,0.1400X0.1600*%
%ADD14R,0.0500X0.0500*%
%ADD15R,0.0500X0.0520*%
%ADD16R,0.0520X0.0500*%
%ADD17R,0.1050X0.1200*%
%ADD18R,0.0800X0.0800*%
%ADD19C,0.0700*%
%ADD20R,0.0700X0.0700*%
%ADD21C,0.0600*%
%ADD22R,0.0600X0.0600*%
%ADD23R,0.0197X0.1575*%
%ADD24O,0.1200X0.0200*%
%ADD25R,0.1200X0.0200*%
%ADD26R,0.0200X0.1200*%
%ADD27R,0.0940X0.0250*%
%ADD28R,0.1600X0.0201*%
%ADD29O,0.0240X0.1700*%
%ADD30O,0.1700X0.0240*%
%ADD31R,0.1700X0.0240*%
%ADD32R,0.0240X0.1700*%
%ADD33R,0.2000X0.0830*%
%ADD34R,0.3000X0.1500*%
%ADD35R,0.1500X0.0600*%
%ADD36C,0.0420*%
%ADD37C,0.0010*%
%ADD38C,0.0150*%
%ADD39C,0.0100*%
%ADD40C,0.0420*%
%ADD41C,0.0120*%
%ADD42C,0.0200*%
%ADD43C,0.0300*%
%ADD44C,0.0500*%
%ADD45C,0.1370*%
%ADD46R,0.0800X0.0800*%
%ADD47R,0.0520X0.0500*%
%ADD48R,0.0500X0.0520*%
%ADD49R,0.0430X0.0350*%
%ADD50C,0.0700*%
%ADD51R,0.0700X0.0700*%
%ADD52C,0.0600*%
%ADD53R,0.0600X0.0600*%
%ADD54R,0.0500X0.0500*%
%ADD55C,0.0420*%
%ADD56C,0.0420*%
%ADD57C,0.0500*%
%ADD58C,0.0500*%
%ADD59C,0.0500*%
%ADD60R,0.1000X0.0510*%
%ADD61R,0.1000X0.0350*%
%ADD62R,0.1400X0.1600*%
%ADD63R,0.1050X0.1200*%
%ADD64C,0.0800*%
%ADD65C,0.0650*%
%ADD66R,0.0650X0.0650*%
%ADD67R,0.0197X0.1575*%
%ADD68O,0.1200X0.0200*%
%ADD69R,0.1200X0.0200*%
%ADD70R,0.0200X0.1200*%
%ADD71R,0.0940X0.0250*%
%ADD72R,0.1600X0.0201*%
%ADD73O,0.0240X0.1700*%
%ADD74O,0.1700X0.0240*%
%ADD75R,0.1700X0.0240*%
%ADD76R,0.0240X0.1700*%
%ADD77R,0.2000X0.0830*%
%ADD78R,0.3000X0.1500*%
%ADD79R,0.1500X0.0600*%
%ADD80C,0.0520*%
%ADD81C,0.0520*%
%ADD82C,0.0520*%
%ADD83C,0.0060*%
%ADD84C,0.0080*%
%ADD85C,0.0050*%
%ADD86C,0.0040*%
*
G04 Plot Data ***
*
G54D37*
G01X0065441Y0054147D02*
X0055599D01*
Y0056903D01*
X0065441D01*
Y0054147D01*
X0045150Y0060550D02*
X0047150D01*
Y0066550D01*
X0045150D01*
Y0060550D01*
Y0069750D02*
X0047150D01*
Y0075750D01*
X0045150D01*
Y0069750D01*
X0045100Y0052200D02*
X0047100D01*
Y0058200D01*
X0045100D01*
Y0052200D01*
Y0078350D02*
X0047100D01*
Y0084350D01*
X0045100D01*
Y0078350D01*
X0054020Y0063500D02*
X0058020D01*
Y0061500D01*
X0054020D01*
Y0063500D01*
X0056570Y0083670D02*
Y0085670D01*
X0052570D01*
Y0083670D01*
X0056570D01*
G01X0104600Y0083096D02*
G03X0106864Y0085360I0000000J0002264D01*
G01X0102336D02*
G03X0104600Y0083096I0002264J0000000D01*
Y0087624D02*
G03X0102336Y0085360I0000000J0002264D01*
G01X0106864D02*
G03X0104600Y0087624I0002264J0000000D01*
G54D39*
G01X0112329Y0064108D02*
X0112662Y0064274D01*
Y0064108D02*
X0112329Y0064274D01*
X0112440Y0064530D02*
Y0064752D01*
X0112329Y0064530D02*
X0112495D01*
X0112662Y0064613D01*
Y0064669D01*
X0112495Y0064752D01*
X0112329D01*
Y0064980D02*
X0112662D01*
X0112607Y0065035D01*
X0112495Y0065091D01*
X0112607Y0065146D01*
X0112662Y0065202D01*
X0112329D01*
Y0065485D02*
Y0065430D01*
X0112384D01*
Y0065485D01*
X0112329D01*
X0112384Y0065991D02*
X0112329Y0065935D01*
Y0065824D01*
X0112384Y0065769D01*
X0112440D01*
X0112551Y0065880D01*
X0112662Y0065769D01*
Y0065991D01*
X0112384Y0066441D02*
X0112329Y0066413D01*
Y0066246D01*
X0112384Y0066219D01*
X0112495D01*
X0112551Y0066274D01*
Y0066441D01*
X0112662D01*
Y0066219D01*
X0112495Y0066669D02*
Y0066891D01*
X0112384Y0067341D02*
X0112329Y0067285D01*
Y0067174D01*
X0112384Y0067119D01*
X0112440D01*
X0112551Y0067230D01*
X0112662Y0067119D01*
Y0067341D01*
Y0067569D02*
X0112329D01*
Y0067735D01*
X0112384Y0067763D01*
X0112495D01*
X0112551Y0067735D01*
Y0067569D01*
Y0067991D02*
Y0068102D01*
X0112495Y0068130D01*
Y0068185D01*
X0112551D02*
X0112329D01*
X0112551Y0068580D02*
Y0068469D01*
X0112495Y0068441D01*
X0112384D01*
X0112329Y0068413D01*
Y0068607D01*
X0112384Y0068635D01*
X0112440Y0068607D01*
Y0068441D01*
X0112329Y0069057D02*
X0112384Y0069085D01*
X0112495D01*
X0112551Y0069057D01*
Y0068891D01*
X0112495Y0068863D01*
X0112384D01*
X0112329Y0068891D01*
Y0069057D01*
Y0069507D02*
X0112662D01*
X0112329Y0069535D02*
Y0069369D01*
X0112384Y0069313D01*
X0112440D01*
X0112495Y0069341D01*
Y0069507D02*
Y0069341D01*
X0112551Y0069313D01*
X0112607D01*
X0112662Y0069369D01*
Y0069535D01*
X0112218Y0069763D02*
Y0069985D01*
X0112384Y0070213D02*
X0112329Y0070241D01*
Y0070407D01*
X0112384Y0070435D01*
X0112607D01*
X0112662Y0070407D01*
Y0070241D01*
X0112607Y0070213D01*
X0112329Y0070663D02*
X0112662D01*
X0112607Y0070719D01*
X0112495Y0070774D01*
X0112607Y0070830D01*
X0112662Y0070885D01*
X0112329D01*
Y0071113D02*
X0112662Y0071280D01*
X0112329Y0071535D02*
Y0071646D01*
Y0071591D02*
X0112662D01*
X0112607Y0071646D01*
X0112551Y0071929D02*
Y0072041D01*
X0112495Y0072068D01*
Y0072124D01*
X0112551D02*
X0112329D01*
X0112218Y0072352D02*
Y0072574D01*
X0112384Y0072802D02*
X0112329Y0072829D01*
Y0072996D01*
X0112384Y0073024D01*
X0112607D01*
X0112662Y0072996D01*
Y0072829D01*
X0112607Y0072802D01*
X0112329Y0073252D02*
X0112662D01*
X0112607Y0073307D01*
X0112495Y0073363D01*
X0112607Y0073418D01*
X0112662Y0073474D01*
X0112329D01*
X0112218Y0073702D02*
Y0073924D01*
X0112384Y0074152D02*
X0112329Y0074179D01*
Y0074346D01*
X0112384Y0074374D01*
X0112607D01*
X0112662Y0074346D01*
Y0074179D01*
X0112607Y0074152D01*
X0112329Y0074602D02*
Y0074824D01*
X0112551Y0074602D01*
X0112607D01*
X0112662Y0074629D01*
Y0074796D01*
X0112607Y0074824D01*
X0112384Y0075274D02*
X0112329Y0075218D01*
Y0075107D01*
X0112384Y0075052D01*
X0112440D01*
X0112551Y0075163D01*
X0112662Y0075052D01*
Y0075274D01*
X0112329Y0076271D02*
X0112384Y0076299D01*
X0112495D01*
X0112551Y0076271D01*
Y0076104D01*
X0112495Y0076077D01*
X0112384D01*
X0112329Y0076104D01*
Y0076271D01*
Y0076527D02*
X0112495D01*
X0112551Y0076554D01*
Y0076721D01*
X0112329D01*
Y0077143D02*
X0112384Y0077171D01*
X0112495D01*
X0112551Y0077143D01*
Y0076977D01*
X0112495Y0076949D01*
X0112384D01*
X0112329Y0076977D01*
Y0077143D01*
X0112551Y0077399D02*
Y0077510D01*
X0112495Y0077538D01*
Y0077593D01*
X0112551D02*
X0112329D01*
Y0077821D02*
X0112495D01*
X0112551Y0077849D01*
Y0078015D01*
X0112329D02*
X0112662D01*
X0112384Y0078243D02*
X0112329Y0078271D01*
Y0078438D01*
X0112384Y0078465D01*
X0112607D01*
X0112662Y0078438D01*
Y0078271D01*
X0112607Y0078243D01*
X0106125Y0086118D02*
X0105792D01*
X0103038Y0086295D02*
Y0085962D01*
X0103205Y0086128D02*
X0102872D01*
X0061845Y0053053D02*
X0061489D01*
X0061845Y0053408D01*
Y0053497D01*
X0061800Y0053586D01*
X0061534D01*
X0061489Y0053497D01*
X0060934Y0053053D02*
Y0053586D01*
X0060889Y0053053D02*
X0061156D01*
X0061245Y0053230D01*
Y0053408D01*
X0061156Y0053586D01*
X0060889D01*
X0060645Y0053141D02*
X0060600Y0053053D01*
X0060334D01*
X0060289Y0053141D01*
Y0053497D01*
X0060334Y0053586D01*
X0060600D01*
X0060645Y0053497D01*
X0060045Y0053053D02*
X0059734D01*
Y0053586D01*
X0049150Y0078150D02*
X0049550D01*
X0049350Y0078350D02*
Y0077950D01*
X0049200Y0069550D02*
X0049600D01*
X0049400Y0069750D02*
Y0069350D01*
X0049050Y0060350D02*
X0049450D01*
X0049250Y0060550D02*
Y0060150D01*
X0049100Y0052000D02*
X0049500D01*
X0049300Y0052200D02*
Y0051800D01*
X0110669Y0065034D02*
Y0065479D01*
X0110447Y0065256D02*
X0110891D01*
X0043194Y0071005D02*
Y0071450D01*
X0043638Y0071005D01*
X0043749D01*
X0043860Y0071061D01*
Y0071394D01*
X0043749Y0071450D01*
X0043416Y0071705D02*
Y0072150D01*
X0043194Y0071705D02*
X0043527D01*
X0043860Y0071872D01*
Y0071983D01*
X0043527Y0072150D01*
X0043194D01*
X0043527Y0072628D02*
Y0072405D01*
X0043305D01*
X0043194Y0072461D01*
Y0072794D01*
X0043305Y0072850D01*
X0043749D01*
X0043860Y0072794D01*
Y0072461D01*
X0043749Y0072405D01*
X0043527Y0073550D02*
Y0073217D01*
X0043638Y0073105D01*
X0043749D01*
X0043860Y0073217D01*
Y0073550D01*
X0043194D01*
X0043527Y0073917D02*
Y0074250D01*
X0043194D02*
X0043860D01*
Y0073805D01*
X0044042Y0071730D02*
X0044208D01*
X0044542Y0071563D01*
X0044208Y0071397D01*
X0044042D01*
X0044458Y0070822D02*
X0044542Y0070863D01*
Y0071113D01*
X0044458Y0071155D01*
X0044292D01*
X0044208Y0071072D01*
Y0070822D01*
X0044042D01*
Y0071155D01*
X0044100Y0052417D02*
X0044367D01*
X0044233Y0052550D02*
Y0052283D01*
X0044183Y0055300D02*
Y0055033D01*
X0043567Y0062622D02*
X0043234Y0062455D01*
X0043567Y0062900D02*
Y0062567D01*
X0043678Y0062455D01*
X0043789D01*
X0043900Y0062567D01*
Y0062900D01*
X0043234D01*
X0043567Y0063267D02*
Y0063600D01*
X0043234Y0063155D02*
Y0063600D01*
X0043900D01*
Y0063155D01*
Y0063855D02*
X0043345D01*
X0043234Y0063911D01*
X0043567Y0064078D01*
X0043678D02*
X0043567D01*
X0043234Y0064244D01*
X0043345Y0064300D01*
X0043900D01*
X0043234Y0064944D02*
X0043345Y0065000D01*
X0043789D01*
X0043900Y0064944D01*
Y0064611D01*
X0043789Y0064555D01*
X0043345D01*
X0043234Y0064611D01*
Y0064944D01*
X0043567Y0065700D02*
Y0065367D01*
X0043678Y0065255D01*
X0043789D01*
X0043900Y0065367D01*
Y0065700D01*
X0043234D01*
X0043992Y0054290D02*
X0044158D01*
X0044492Y0054123D01*
X0044158Y0053957D01*
X0043992D01*
X0044408Y0053382D02*
X0044492Y0053423D01*
Y0053673D01*
X0044408Y0053715D01*
X0044242D01*
X0044158Y0053632D01*
Y0053382D01*
X0043992D01*
Y0053715D01*
X0044250Y0060867D02*
X0044517D01*
X0044383Y0061000D02*
Y0060733D01*
X0044283Y0063750D02*
Y0063483D01*
X0043457Y0052232D02*
X0043124Y0052065D01*
X0043457Y0052510D02*
Y0052177D01*
X0043568Y0052065D01*
X0043679D01*
X0043790Y0052177D01*
Y0052510D01*
X0043124D01*
X0043457Y0052877D02*
Y0053210D01*
X0043124Y0052765D02*
Y0053210D01*
X0043790D01*
Y0052765D01*
Y0053465D02*
X0043235D01*
X0043124Y0053521D01*
X0043457Y0053688D01*
X0043568D02*
X0043457D01*
X0043124Y0053854D01*
X0043235Y0053910D01*
X0043790D01*
X0043124Y0054554D02*
X0043235Y0054610D01*
X0043679D01*
X0043790Y0054554D01*
Y0054221D01*
X0043679Y0054165D01*
X0043235D01*
X0043124Y0054221D01*
Y0054554D01*
X0043457Y0055310D02*
Y0054977D01*
X0043568Y0054865D01*
X0043679D01*
X0043790Y0054977D01*
Y0055310D01*
X0043124D01*
X0042902Y0055565D02*
Y0056010D01*
X0043790Y0056265D02*
X0043124D01*
X0043235Y0056377D01*
X0043679Y0056599D01*
X0043790Y0056710D01*
X0043124D01*
X0043457Y0057132D02*
X0043124Y0056965D01*
X0043457Y0057410D02*
Y0057077D01*
X0043568Y0056965D01*
X0043679D01*
X0043790Y0057077D01*
Y0057410D01*
X0043124D01*
X0043457Y0058110D02*
Y0057777D01*
X0043568Y0057665D01*
X0043679D01*
X0043790Y0057777D01*
Y0058110D01*
X0043124D01*
X0044092Y0062520D02*
X0044258D01*
X0044592Y0062353D01*
X0044258Y0062187D01*
X0044092D01*
X0044508Y0061612D02*
X0044592Y0061653D01*
Y0061903D01*
X0044508Y0061945D01*
X0044342D01*
X0044258Y0061862D01*
Y0061612D01*
X0044092D01*
Y0061945D01*
X0044150Y0070497D02*
X0044417D01*
X0044283Y0070630D02*
Y0070363D01*
X0044233Y0072900D02*
Y0072633D01*
X0043094Y0079387D02*
Y0079609D01*
Y0079498D02*
X0043760D01*
X0043649Y0079609D01*
X0043316Y0079975D02*
Y0080420D01*
X0043094Y0079975D02*
X0043427D01*
X0043760Y0080142D01*
Y0080253D01*
X0043427Y0080420D01*
X0043094D01*
X0043427Y0080898D02*
Y0080675D01*
X0043205D01*
X0043094Y0080731D01*
Y0081064D01*
X0043205Y0081120D01*
X0043649D01*
X0043760Y0081064D01*
Y0080731D01*
X0043649Y0080675D01*
X0043427Y0081820D02*
Y0081487D01*
X0043538Y0081375D01*
X0043649D01*
X0043760Y0081487D01*
Y0081820D01*
X0043094D01*
X0043427Y0082187D02*
Y0082520D01*
X0043094D02*
X0043760D01*
Y0082075D01*
X0043992Y0080480D02*
X0044158D01*
X0044492Y0080313D01*
X0044158Y0080147D01*
X0043992D01*
X0044408Y0079572D02*
X0044492Y0079613D01*
Y0079863D01*
X0044408Y0079905D01*
X0044242D01*
X0044158Y0079822D01*
Y0079572D01*
X0043992D01*
Y0079905D01*
X0044150Y0079147D02*
X0044417D01*
X0044283Y0079280D02*
Y0079013D01*
X0044233Y0081500D02*
Y0081233D01*
X0055170Y0063902D02*
X0055128Y0063818D01*
X0054878D01*
X0054837Y0063902D01*
Y0064235D01*
X0054878Y0064318D01*
X0055128D01*
X0055170Y0064235D01*
X0054262Y0064068D02*
X0054512D01*
X0054595Y0064152D01*
Y0064235D01*
X0054512Y0064318D01*
X0054262D01*
Y0063818D01*
X0056297Y0086238D02*
X0056422Y0085988D01*
X0056088Y0086238D02*
X0056338D01*
X0056422Y0086322D01*
Y0086405D01*
X0056338Y0086488D01*
X0056088D01*
Y0085988D01*
X0055763Y0086238D02*
X0055513D01*
X0055847Y0085988D02*
X0055513D01*
Y0086488D01*
X0055847D01*
X0055105Y0085988D02*
Y0086488D01*
X0055272D02*
X0054938D01*
X0054697D02*
Y0085988D01*
X0054613Y0086072D01*
X0054447Y0086405D01*
X0054363Y0086488D01*
Y0085988D01*
X0054122D02*
X0053955D01*
X0054038D02*
Y0086488D01*
X0054122D02*
X0053955D01*
X0053505Y0086238D02*
X0053630Y0085988D01*
X0053297Y0086238D02*
X0053547D01*
X0053630Y0086322D01*
Y0086405D01*
X0053547Y0086488D01*
X0053297D01*
Y0085988D01*
X0052722Y0086238D02*
X0052972D01*
X0053055Y0086322D01*
Y0086405D01*
X0052972Y0086488D01*
X0052722D01*
Y0085988D01*
X0099657Y0054580D02*
Y0055080D01*
X0099615Y0054580D02*
X0099865D01*
X0099948Y0054747D01*
Y0054913D01*
X0099865Y0055080D01*
X0099615D01*
X0099373Y0054747D02*
X0099040D01*
X0099373Y0054580D02*
Y0054830D01*
X0099248Y0055080D01*
X0099165D01*
X0099040Y0054830D01*
Y0054580D01*
X0098465Y0054830D02*
X0098715D01*
X0098798Y0054913D01*
Y0054997D01*
X0098715Y0055080D01*
X0098465D01*
Y0054580D01*
X0098057D02*
Y0054830D01*
X0098223Y0055080D02*
X0098098Y0054830D01*
X0098015D01*
X0097890Y0055080D01*
X0097565Y0054830D02*
X0097315D01*
X0097648Y0054580D02*
X0097315D01*
Y0055080D01*
X0097648D01*
X0097073Y0054580D02*
X0096823Y0054830D01*
X0097073Y0055080D01*
X0096740D02*
Y0054580D01*
X0074587Y0082138D02*
X0074420D01*
X0074503D02*
Y0082638D01*
X0074420Y0082555D01*
X0074095Y0082388D02*
X0073762D01*
X0073520Y0082305D02*
X0073187D01*
X0073520Y0082138D02*
Y0082388D01*
X0073395Y0082638D01*
X0073312D01*
X0073187Y0082388D01*
Y0082138D01*
X0072778Y0082388D02*
X0072945D01*
Y0082222D01*
X0072903Y0082138D01*
X0072653D01*
X0072612Y0082222D01*
Y0082555D01*
X0072653Y0082638D01*
X0072903D01*
X0072945Y0082555D01*
X0072037Y0082388D02*
X0072287D01*
X0072370Y0082472D01*
Y0082555D01*
X0072287Y0082638D01*
X0072037D01*
Y0082138D01*
X0071712Y0082388D02*
X0071462D01*
Y0082138D02*
Y0082638D01*
X0071795D01*
X0094660Y0082268D02*
X0094327D01*
X0094660Y0082602D01*
Y0082685D01*
X0094618Y0082768D01*
X0094368D01*
X0094327Y0082685D01*
X0094085Y0082518D02*
X0093752D01*
X0093510Y0082435D02*
X0093177D01*
X0093510Y0082268D02*
Y0082518D01*
X0093385Y0082768D01*
X0093302D01*
X0093177Y0082518D01*
Y0082268D01*
X0092768Y0082518D02*
X0092935D01*
Y0082352D01*
X0092893Y0082268D01*
X0092643D01*
X0092602Y0082352D01*
Y0082685D01*
X0092643Y0082768D01*
X0092893D01*
X0092935Y0082685D01*
X0092027Y0082518D02*
X0092277D01*
X0092360Y0082602D01*
Y0082685D01*
X0092277Y0082768D01*
X0092027D01*
Y0082268D01*
X0091702Y0082518D02*
X0091452D01*
Y0082268D02*
Y0082768D01*
X0091785D01*
X0079265Y0051242D02*
X0078910D01*
X0079265Y0051598D01*
Y0051687D01*
X0079221Y0051775D01*
X0078954D01*
X0078910Y0051687D01*
X0078665Y0051242D02*
X0078310D01*
X0078665Y0051598D01*
Y0051687D01*
X0078621Y0051775D01*
X0078354D01*
X0078310Y0051687D01*
X0077754Y0051420D02*
Y0051331D01*
X0077799Y0051242D01*
X0077977D01*
X0078021Y0051331D01*
Y0051775D01*
X0078065D02*
X0077888D01*
X0078656Y0054405D02*
X0078479D01*
X0078568D02*
Y0054939D01*
X0078479Y0054850D01*
X0077834Y0054405D02*
Y0054939D01*
X0077790Y0054405D02*
X0078056D01*
X0078145Y0054583D01*
Y0054761D01*
X0078056Y0054939D01*
X0077790D01*
X0077545Y0054494D02*
X0077501Y0054405D01*
X0077234D01*
X0077190Y0054494D01*
Y0054850D01*
X0077234Y0054939D01*
X0077501D01*
X0077545Y0054850D01*
X0076945Y0054405D02*
X0076634D01*
Y0054939D01*
X0108526Y0058638D02*
Y0058888D01*
X0108276D01*
Y0060888D01*
X0108526D01*
Y0061138D01*
X0107026D01*
Y0060888D01*
X0107276D01*
Y0058888D01*
X0107026D01*
Y0058638D01*
X0108526D01*
X0108026Y0059638D02*
X0107526D01*
Y0060138D01*
X0108026D01*
X0107526Y0059138D02*
Y0059388D01*
X0108026D01*
Y0058888D02*
X0107526D01*
Y0059138D01*
X0108026Y0060388D02*
X0107526D01*
Y0060888D01*
X0108026D01*
X0109400Y0062430D02*
X0096890D01*
Y0064440D01*
X0095900D01*
Y0066930D01*
X0096900D01*
Y0068930D01*
X0096910D01*
X0108610Y0068940D01*
X0109360D01*
Y0066940D01*
X0110310D01*
Y0064410D01*
X0109400D01*
Y0062460D01*
X0109050Y0081850D02*
X0107050D01*
Y0075850D01*
X0109050D01*
Y0081850D01*
X0081410Y0076040D02*
X0081160Y0076290D01*
X0080910Y0076040D01*
X0070710Y0058550D02*
Y0055550D01*
X0081710D01*
Y0058550D01*
X0070710D01*
X0084160Y0074790D02*
Y0068790D01*
X0078160D01*
Y0074790D01*
X0084160D01*
G54D83*
G01X0052467Y0061074D02*
X0052134D01*
X0052467Y0061046D02*
Y0061213D01*
X0052356Y0061269D01*
X0052245D01*
X0052134Y0061213D01*
Y0061046D01*
X0052301Y0060843D02*
Y0060676D01*
X0052467Y0060899D02*
Y0060676D01*
X0052134D01*
Y0060899D01*
X0052467Y0060529D02*
Y0060334D01*
X0052134D01*
X0055395Y0066704D02*
Y0066482D01*
X0055173Y0066704D01*
X0055117D01*
X0055062Y0066677D01*
Y0066510D01*
X0055117Y0066482D01*
X0055339Y0066112D02*
X0055395Y0066168D01*
Y0066279D01*
X0055339Y0066334D01*
X0055284D01*
X0055173Y0066223D01*
X0055062Y0066334D01*
Y0066112D01*
X0055228Y0065881D02*
X0055395Y0065964D01*
X0055228Y0065742D02*
Y0065909D01*
X0055173Y0065964D01*
X0055117D01*
X0055062Y0065909D01*
Y0065742D01*
X0055395D01*
X0055680Y0078657D02*
Y0078924D01*
X0055547Y0078791D02*
X0055813D01*
X0062268Y0069029D02*
X0062101D01*
X0062073Y0069085D01*
Y0069140D01*
X0062101Y0069196D01*
X0062268D01*
X0062295Y0069140D01*
Y0069085D01*
X0062184Y0068863D01*
X0061925D02*
X0061703D01*
X0061925Y0069085D01*
Y0069140D01*
X0061898Y0069196D01*
X0061731D01*
X0061703Y0069140D01*
X0061472Y0069029D02*
X0061555Y0068863D01*
X0061333Y0069029D02*
X0061500D01*
X0061555Y0069085D01*
Y0069140D01*
X0061500Y0069196D01*
X0061333D01*
Y0068863D01*
X0062434Y0079526D02*
X0062212D01*
X0062323Y0079748D01*
X0062379D01*
Y0079415D01*
X0062064Y0079526D02*
X0061842D01*
X0061953Y0079748D01*
X0062009D01*
Y0079415D01*
X0061611Y0079582D02*
X0061694Y0079415D01*
X0061472Y0079582D02*
X0061639D01*
X0061694Y0079637D01*
Y0079693D01*
X0061639Y0079748D01*
X0061472D01*
Y0079415D01*
X0062100Y0069892D02*
X0062267D01*
X0062294Y0069836D01*
Y0069780D01*
X0062267Y0069725D01*
X0062100D01*
X0062072Y0069780D01*
Y0069836D01*
X0062183Y0070058D01*
X0061702Y0069780D02*
X0061758Y0069725D01*
X0061869D01*
X0061924Y0069780D01*
Y0069836D01*
X0061813Y0069947D01*
X0061924Y0070058D01*
X0061702D01*
X0061471Y0069892D02*
X0061554Y0069725D01*
X0061332Y0069892D02*
X0061499D01*
X0061554Y0069947D01*
Y0070003D01*
X0061499Y0070058D01*
X0061332D01*
Y0069725D01*
X0055780Y0069707D02*
Y0069974D01*
X0055647Y0069841D02*
X0055913D01*
X0061395Y0062035D02*
X0061339Y0061980D01*
X0061284Y0061952D01*
X0061173D01*
X0061117Y0061980D01*
X0061061Y0062035D01*
Y0062091D01*
X0061117Y0062146D01*
X0061173Y0062174D01*
X0061284D01*
X0061339Y0062146D01*
X0061395Y0062091D01*
Y0062035D01*
X0061339Y0061582D02*
X0061395Y0061638D01*
Y0061749D01*
X0061339Y0061804D01*
X0061284D01*
X0061173Y0061693D01*
X0061061Y0061804D01*
Y0061582D01*
X0061339Y0061434D02*
X0061395Y0061406D01*
Y0061240D01*
X0061339Y0061212D01*
X0061117D01*
X0061061Y0061240D01*
Y0061406D01*
X0061117Y0061434D01*
X0052679Y0069975D02*
X0052568D01*
X0052623D02*
Y0070308D01*
X0052568Y0070253D01*
X0052142Y0070030D02*
X0052198Y0069975D01*
X0052309D01*
X0052364Y0070030D01*
Y0070086D01*
X0052253Y0070197D01*
X0052364Y0070308D01*
X0052142D01*
X0051994Y0070030D02*
X0051967Y0069975D01*
X0051800D01*
X0051772Y0070030D01*
Y0070253D01*
X0051800Y0070308D01*
X0051967D01*
X0051994Y0070253D01*
X0052586Y0079219D02*
X0052252Y0079386D01*
Y0079164D01*
X0052530Y0078794D02*
X0052586Y0078849D01*
Y0078960D01*
X0052530Y0079016D01*
X0052474D01*
X0052363Y0078905D01*
X0052252Y0079016D01*
Y0078794D01*
X0052530Y0078646D02*
X0052586Y0078618D01*
Y0078452D01*
X0052530Y0078424D01*
X0052308D01*
X0052252Y0078452D01*
Y0078618D01*
X0052308Y0078646D01*
X0056532Y0074770D02*
X0056588Y0074715D01*
X0056699D01*
X0056754Y0074770D01*
Y0074826D01*
X0056643Y0074937D01*
X0056754Y0075048D01*
X0056532D01*
X0056384Y0074826D02*
X0056162D01*
X0056273Y0075048D01*
X0056329D01*
Y0074715D01*
X0055931Y0074882D02*
X0056014Y0074715D01*
X0055792Y0074882D02*
X0055959D01*
X0056014Y0074937D01*
Y0074993D01*
X0055959Y0075048D01*
X0055792D01*
Y0074715D01*
X0062414Y0078525D02*
X0062192D01*
X0062414Y0078747D01*
Y0078803D01*
X0062387Y0078858D01*
X0062220D01*
X0062192Y0078803D01*
X0062044Y0078636D02*
X0061822D01*
X0061933Y0078858D01*
X0061989D01*
Y0078525D01*
X0061591Y0078692D02*
X0061674Y0078525D01*
X0061452Y0078692D02*
X0061619D01*
X0061674Y0078747D01*
Y0078803D01*
X0061619Y0078858D01*
X0061452D01*
Y0078525D01*
X0055680Y0080157D02*
Y0080424D01*
X0055547Y0080291D02*
X0055813D01*
X0052484Y0080886D02*
Y0080664D01*
X0052262Y0080775D01*
Y0080830D01*
X0052596D01*
X0052540Y0080294D02*
X0052596Y0080349D01*
Y0080460D01*
X0052540Y0080516D01*
X0052484D01*
X0052373Y0080405D01*
X0052262Y0080516D01*
Y0080294D01*
X0052540Y0080146D02*
X0052596Y0080118D01*
Y0079952D01*
X0052540Y0079924D01*
X0052318D01*
X0052262Y0079952D01*
Y0080118D01*
X0052318Y0080146D01*
X0048302Y0080943D02*
X0048357Y0080999D01*
Y0081110D01*
X0048302Y0081165D01*
X0048246D01*
X0048135Y0081054D01*
X0048024Y0081165D01*
Y0080943D01*
X0048357Y0080795D02*
Y0080573D01*
X0048135Y0080795D01*
X0048079D01*
X0048024Y0080768D01*
Y0080601D01*
X0048079Y0080573D01*
X0048302Y0080425D02*
X0048357Y0080398D01*
Y0080231D01*
X0048302Y0080203D01*
X0048079D01*
X0048024Y0080231D01*
Y0080398D01*
X0048079Y0080425D01*
X0048362Y0072363D02*
X0048417Y0072391D01*
Y0072558D01*
X0048362Y0072585D01*
X0048251D01*
X0048195Y0072530D01*
Y0072363D01*
X0048084D01*
Y0072585D01*
X0048417Y0072215D02*
Y0071993D01*
X0048195Y0072215D01*
X0048139D01*
X0048084Y0072188D01*
Y0072021D01*
X0048139Y0071993D01*
X0048362Y0071845D02*
X0048417Y0071818D01*
Y0071651D01*
X0048362Y0071623D01*
X0048139D01*
X0048084Y0071651D01*
Y0071818D01*
X0048139Y0071845D01*
X0048277Y0063089D02*
X0047944Y0063255D01*
Y0063033D01*
X0048277Y0062885D02*
Y0062663D01*
X0048055Y0062885D01*
X0047999D01*
X0047944Y0062858D01*
Y0062691D01*
X0047999Y0062663D01*
X0048222Y0062515D02*
X0048277Y0062488D01*
Y0062321D01*
X0048222Y0062293D01*
X0047999D01*
X0047944Y0062321D01*
Y0062488D01*
X0047999Y0062515D01*
X0048071Y0054551D02*
Y0054718D01*
X0048126Y0054745D01*
X0048182D01*
X0048237Y0054718D01*
Y0054551D01*
X0048182Y0054523D01*
X0048126D01*
X0047904Y0054634D01*
X0048237Y0054375D02*
Y0054153D01*
X0048015Y0054375D01*
X0047959D01*
X0047904Y0054348D01*
Y0054181D01*
X0047959Y0054153D01*
X0048182Y0054005D02*
X0048237Y0053978D01*
Y0053811D01*
X0048182Y0053783D01*
X0047959D01*
X0047904Y0053811D01*
Y0053978D01*
X0047959Y0054005D01*
X0087578Y0070495D02*
X0087744Y0070828D01*
X0087522D01*
X0087374Y0070551D02*
X0087346Y0070495D01*
X0087180D01*
X0087152Y0070551D01*
Y0070773D01*
X0087180Y0070828D01*
X0087346D01*
X0087374Y0070773D01*
X0062016Y0071531D02*
X0062072Y0071475D01*
X0062183D01*
X0062239Y0071531D01*
Y0071586D01*
X0062127Y0071697D01*
X0062239Y0071808D01*
X0062016D01*
X0061869Y0071475D02*
X0061758D01*
X0061813D02*
Y0071808D01*
X0061758Y0071753D01*
X0061554Y0071531D02*
X0061526Y0071475D01*
X0061360D01*
X0061332Y0071531D01*
Y0071753D01*
X0061360Y0071808D01*
X0061526D01*
X0061554Y0071753D01*
X0052647Y0065134D02*
X0052592Y0065190D01*
X0052564Y0065245D01*
Y0065356D01*
X0052592Y0065412D01*
X0052647Y0065468D01*
X0052703D01*
X0052758Y0065412D01*
X0052786Y0065356D01*
Y0065245D01*
X0052758Y0065190D01*
X0052703Y0065134D01*
X0052647D01*
X0052416D02*
X0052194D01*
X0052416Y0065356D01*
Y0065412D01*
X0052388Y0065468D01*
X0052222D01*
X0052194Y0065412D01*
X0051963Y0065301D02*
X0052046Y0065134D01*
X0051824Y0065301D02*
X0051990D01*
X0052046Y0065356D01*
Y0065412D01*
X0051990Y0065468D01*
X0051824D01*
Y0065134D01*
X0095907Y0054942D02*
X0095934Y0054997D01*
Y0055053D01*
X0095907Y0055108D01*
X0095740D01*
X0095712Y0055053D01*
Y0054997D01*
X0095740Y0054942D01*
X0095907D01*
X0095934Y0054886D01*
Y0054830D01*
X0095907Y0054775D01*
X0095740D01*
X0095712Y0054830D01*
Y0054886D01*
X0095740Y0054942D01*
X0095481D02*
X0095564Y0054775D01*
X0095342Y0054942D02*
X0095509D01*
X0095564Y0054997D01*
Y0055053D01*
X0095509Y0055108D01*
X0095342D01*
Y0054775D01*
X0064122Y0071343D02*
X0064177Y0071399D01*
Y0071510D01*
X0064122Y0071565D01*
X0064066D01*
X0063955Y0071454D01*
X0063844Y0071565D01*
Y0071343D01*
X0064177Y0071195D02*
Y0070973D01*
X0063955Y0071195D01*
X0063899D01*
X0063844Y0071168D01*
Y0071001D01*
X0063899Y0070973D01*
X0064011Y0070742D02*
X0064177Y0070825D01*
X0064011Y0070603D02*
Y0070770D01*
X0063955Y0070825D01*
X0063899D01*
X0063844Y0070770D01*
Y0070603D01*
X0064177D01*
X0067415Y0068414D02*
Y0068192D01*
X0067193Y0068414D01*
X0067137D01*
X0067082Y0068387D01*
Y0068220D01*
X0067137Y0068192D01*
X0067415Y0068044D02*
Y0067822D01*
X0067193Y0068044D01*
X0067137D01*
X0067082Y0068017D01*
Y0067850D01*
X0067137Y0067822D01*
X0067248Y0067591D02*
X0067415Y0067674D01*
X0067248Y0067452D02*
Y0067619D01*
X0067193Y0067674D01*
X0067137D01*
X0067082Y0067619D01*
Y0067452D01*
X0067415D01*
X0064995Y0068379D02*
Y0068268D01*
Y0068323D02*
X0064662D01*
X0064717Y0068268D01*
X0064995Y0068064D02*
Y0067842D01*
X0064773Y0068064D01*
X0064717D01*
X0064662Y0068037D01*
Y0067870D01*
X0064717Y0067842D01*
X0064828Y0067611D02*
X0064995Y0067694D01*
X0064828Y0067472D02*
Y0067639D01*
X0064773Y0067694D01*
X0064717D01*
X0064662Y0067639D01*
Y0067472D01*
X0064995D01*
X0095830Y0074682D02*
X0095997D01*
X0096024Y0074626D01*
Y0074570D01*
X0095997Y0074515D01*
X0095830D01*
X0095802Y0074570D01*
Y0074626D01*
X0095913Y0074848D01*
X0095571Y0074682D02*
X0095654Y0074515D01*
X0095432Y0074682D02*
X0095599D01*
X0095654Y0074737D01*
Y0074793D01*
X0095599Y0074848D01*
X0095432D01*
Y0074515D01*
X0095868Y0073225D02*
X0096034Y0073558D01*
X0095812D01*
X0095581Y0073392D02*
X0095664Y0073225D01*
X0095442Y0073392D02*
X0095609D01*
X0095664Y0073447D01*
Y0073503D01*
X0095609Y0073558D01*
X0095442D01*
Y0073225D01*
X0086563Y0077805D02*
X0086452D01*
X0086508D02*
Y0078138D01*
X0086452Y0078083D01*
X0086249Y0077805D02*
X0086138D01*
X0086193D02*
Y0078138D01*
X0086138Y0078083D01*
X0085851Y0077972D02*
X0085934Y0077805D01*
X0085712Y0077972D02*
X0085879D01*
X0085934Y0078027D01*
Y0078083D01*
X0085879Y0078138D01*
X0085712D01*
Y0077805D01*
X0086296Y0075810D02*
X0086352Y0075755D01*
X0086463D01*
X0086519Y0075810D01*
Y0075866D01*
X0086408Y0075977D01*
X0086519Y0076088D01*
X0086296D01*
X0086149Y0075755D02*
X0086038D01*
X0086093D02*
Y0076088D01*
X0086038Y0076033D01*
X0085751Y0075922D02*
X0085834Y0075755D01*
X0085612Y0075922D02*
X0085779D01*
X0085834Y0075977D01*
Y0076033D01*
X0085779Y0076088D01*
X0085612D01*
Y0075755D01*
X0086537Y0080082D02*
X0086370D01*
X0086342Y0080137D01*
Y0080193D01*
X0086370Y0080248D01*
X0086537D01*
X0086564Y0080193D01*
Y0080137D01*
X0086453Y0079915D01*
X0086111Y0080082D02*
X0086194Y0079915D01*
X0085972Y0080082D02*
X0086139D01*
X0086194Y0080137D01*
Y0080193D01*
X0086139Y0080248D01*
X0085972D01*
Y0079915D01*
X0089856Y0073470D02*
X0089884Y0073415D01*
X0090051D01*
X0090079Y0073470D01*
Y0073582D01*
X0090023Y0073637D01*
X0089856D01*
Y0073748D01*
X0090079D01*
X0089709Y0073415D02*
X0089598D01*
X0089653D02*
Y0073748D01*
X0089598Y0073693D01*
X0089311Y0073582D02*
X0089394Y0073415D01*
X0089172Y0073582D02*
X0089339D01*
X0089394Y0073637D01*
Y0073693D01*
X0089339Y0073748D01*
X0089172D01*
Y0073415D01*
X0080958Y0078286D02*
X0080903Y0078314D01*
X0080847D01*
X0080791Y0078286D01*
Y0078120D01*
X0080847Y0078092D01*
X0080903D01*
X0080958Y0078120D01*
Y0078286D01*
X0081014Y0078314D01*
X0081069D01*
X0081125Y0078286D01*
Y0078120D01*
X0081069Y0078092D01*
X0081014D01*
X0080958Y0078120D01*
X0081069Y0077944D02*
X0081125Y0077916D01*
Y0077750D01*
X0081069Y0077722D01*
X0080847D01*
X0080791Y0077750D01*
Y0077916D01*
X0080847Y0077944D01*
X0096144Y0072262D02*
X0096033D01*
X0096089D02*
Y0072596D01*
X0096033Y0072540D01*
X0095830Y0072262D02*
X0095719D01*
X0095774D02*
Y0072596D01*
X0095719Y0072540D01*
X0095516Y0072318D02*
X0095488Y0072262D01*
X0095321D01*
X0095293Y0072318D01*
Y0072540D01*
X0095321Y0072596D01*
X0095488D01*
X0095516Y0072540D01*
X0088566Y0068240D02*
Y0068018D01*
X0088344Y0068129D01*
Y0068184D01*
X0088677D01*
Y0067870D02*
Y0067759D01*
Y0067814D02*
X0088344D01*
X0088400Y0067759D01*
X0088622Y0067556D02*
X0088677Y0067528D01*
Y0067361D01*
X0088622Y0067333D01*
X0088400D01*
X0088344Y0067361D01*
Y0067528D01*
X0088400Y0067556D01*
X0065531Y0071161D02*
Y0071328D01*
X0065586Y0071356D01*
X0065642D01*
X0065697Y0071328D01*
Y0071161D01*
X0065642Y0071133D01*
X0065586D01*
X0065364Y0071244D01*
X0065642Y0070986D02*
X0065697Y0070958D01*
Y0070791D01*
X0065642Y0070763D01*
X0065420D01*
X0065364Y0070791D01*
Y0070958D01*
X0065420Y0070986D01*
X0062769Y0059702D02*
X0062825Y0059674D01*
X0062880D01*
X0062936Y0059702D01*
Y0059869D01*
X0062880Y0059897D01*
X0062825D01*
X0062769Y0059869D01*
Y0059702D01*
X0062714Y0059674D01*
X0062658D01*
X0062603Y0059702D01*
Y0059869D01*
X0062658Y0059897D01*
X0062714D01*
X0062769Y0059869D01*
X0062603Y0060044D02*
Y0060267D01*
X0062825Y0060044D01*
X0062880D01*
X0062936Y0060072D01*
Y0060239D01*
X0062880Y0060267D01*
X0062658Y0060414D02*
X0062603Y0060442D01*
Y0060609D01*
X0062658Y0060637D01*
X0062880D01*
X0062936Y0060609D01*
Y0060442D01*
X0062880Y0060414D01*
X0086529Y0076805D02*
X0086306D01*
X0086529Y0077027D01*
Y0077083D01*
X0086501Y0077138D01*
X0086334D01*
X0086306Y0077083D01*
X0086159Y0076805D02*
X0086048D01*
X0086103D02*
Y0077138D01*
X0086048Y0077083D01*
X0085761Y0076972D02*
X0085844Y0076805D01*
X0085622Y0076972D02*
X0085789D01*
X0085844Y0077027D01*
Y0077083D01*
X0085789Y0077138D01*
X0085622D01*
Y0076805D01*
X0090059Y0074636D02*
X0089836D01*
X0089948Y0074858D01*
X0090003D01*
Y0074525D01*
X0089689D02*
X0089578D01*
X0089633D02*
Y0074858D01*
X0089578Y0074803D01*
X0089291Y0074692D02*
X0089374Y0074525D01*
X0089152Y0074692D02*
X0089319D01*
X0089374Y0074747D01*
Y0074803D01*
X0089319Y0074858D01*
X0089152D01*
Y0074525D01*
X0086430Y0078905D02*
X0086374Y0078960D01*
X0086346Y0079016D01*
Y0079127D01*
X0086374Y0079183D01*
X0086430Y0079238D01*
X0086485D01*
X0086541Y0079183D01*
X0086569Y0079127D01*
Y0079016D01*
X0086541Y0078960D01*
X0086485Y0078905D01*
X0086430D01*
X0086199D02*
X0086088D01*
X0086143D02*
Y0079238D01*
X0086088Y0079183D01*
X0085801Y0079072D02*
X0085884Y0078905D01*
X0085662Y0079072D02*
X0085829D01*
X0085884Y0079127D01*
Y0079183D01*
X0085829Y0079238D01*
X0085662D01*
Y0078905D01*
X0089314Y0072722D02*
X0089481D01*
X0089509Y0072666D01*
Y0072610D01*
X0089481Y0072555D01*
X0089314D01*
X0089286Y0072610D01*
Y0072666D01*
X0089398Y0072888D01*
X0089139Y0072555D02*
X0089028D01*
X0089083D02*
Y0072888D01*
X0089028Y0072833D01*
X0088741Y0072722D02*
X0088824Y0072555D01*
X0088602Y0072722D02*
X0088769D01*
X0088824Y0072777D01*
Y0072833D01*
X0088769Y0072888D01*
X0088602D01*
Y0072555D01*
X0075973Y0075362D02*
X0076140Y0075696D01*
X0075918D01*
X0075770Y0075362D02*
X0075659D01*
X0075714D02*
Y0075696D01*
X0075659Y0075640D01*
X0075456Y0075418D02*
X0075428Y0075362D01*
X0075261D01*
X0075233Y0075418D01*
Y0075640D01*
X0075261Y0075696D01*
X0075428D01*
X0075456Y0075640D01*
X0081240Y0065963D02*
X0081129D01*
X0081184D02*
Y0066296D01*
X0081129Y0066240D01*
X0080925Y0066018D02*
X0080898Y0065963D01*
X0080731D01*
X0080703Y0066018D01*
Y0066240D01*
X0080731Y0066296D01*
X0080898D01*
X0080925Y0066240D01*
X0078704Y0066375D02*
X0078482D01*
X0078704Y0066597D01*
Y0066653D01*
X0078677Y0066708D01*
X0078510D01*
X0078482Y0066653D01*
X0078334Y0066430D02*
X0078307Y0066375D01*
X0078140D01*
X0078112Y0066430D01*
Y0066653D01*
X0078140Y0066708D01*
X0078307D01*
X0078334Y0066653D01*
X0062122Y0067180D02*
X0062178Y0067125D01*
X0062289D01*
X0062344Y0067180D01*
Y0067236D01*
X0062233Y0067347D01*
X0062344Y0067458D01*
X0062122D01*
X0061752Y0067180D02*
X0061808Y0067125D01*
X0061919D01*
X0061974Y0067180D01*
Y0067236D01*
X0061863Y0067347D01*
X0061974Y0067458D01*
X0061752D01*
X0061521Y0067292D02*
X0061604Y0067125D01*
X0061382Y0067292D02*
X0061549D01*
X0061604Y0067347D01*
Y0067403D01*
X0061549Y0067458D01*
X0061382D01*
Y0067125D01*
X0055780Y0071257D02*
Y0071524D01*
X0055647Y0071391D02*
X0055913D01*
X0052634Y0071925D02*
X0052412D01*
X0052634Y0072147D01*
Y0072203D01*
X0052607Y0072258D01*
X0052440D01*
X0052412Y0072203D01*
X0052042Y0071980D02*
X0052098Y0071925D01*
X0052209D01*
X0052264Y0071980D01*
Y0072036D01*
X0052153Y0072147D01*
X0052264Y0072258D01*
X0052042D01*
X0051894Y0071980D02*
X0051867Y0071925D01*
X0051700D01*
X0051672Y0071980D01*
Y0072203D01*
X0051700Y0072258D01*
X0051867D01*
X0051894Y0072203D01*
X0053330Y0076632D02*
Y0076366D01*
X0053463Y0076499D02*
X0053197D01*
X0052430Y0077689D02*
Y0077856D01*
X0052485Y0077884D01*
X0052541D01*
X0052597Y0077856D01*
Y0077689D01*
X0052541Y0077661D01*
X0052485D01*
X0052263Y0077773D01*
X0052541Y0077291D02*
X0052597Y0077347D01*
Y0077458D01*
X0052541Y0077514D01*
X0052485D01*
X0052374Y0077403D01*
X0052263Y0077514D01*
Y0077291D01*
X0052541Y0077144D02*
X0052597Y0077116D01*
Y0076949D01*
X0052541Y0076921D01*
X0052319D01*
X0052263Y0076949D01*
Y0077116D01*
X0052319Y0077144D01*
X0055780Y0072857D02*
Y0073124D01*
X0055647Y0072991D02*
X0055913D01*
X0052634Y0073036D02*
X0052412D01*
X0052523Y0073258D01*
X0052579D01*
Y0072925D01*
X0052264D02*
X0052042D01*
X0052264Y0073147D01*
Y0073203D01*
X0052237Y0073258D01*
X0052070D01*
X0052042Y0073203D01*
X0051894Y0072980D02*
X0051867Y0072925D01*
X0051700D01*
X0051672Y0072980D01*
Y0073203D01*
X0051700Y0073258D01*
X0051867D01*
X0051894Y0073203D01*
X0062349Y0077545D02*
X0062238D01*
X0062293D02*
Y0077878D01*
X0062238Y0077823D01*
X0062034Y0077656D02*
X0061812D01*
X0061923Y0077878D01*
X0061979D01*
Y0077545D01*
X0061581Y0077712D02*
X0061664Y0077545D01*
X0061442Y0077712D02*
X0061609D01*
X0061664Y0077767D01*
Y0077823D01*
X0061609Y0077878D01*
X0061442D01*
Y0077545D01*
X0055155Y0074745D02*
X0055100Y0074800D01*
X0055072Y0074856D01*
Y0074967D01*
X0055100Y0075023D01*
X0055155Y0075078D01*
X0055211D01*
X0055267Y0075023D01*
X0055294Y0074967D01*
Y0074856D01*
X0055267Y0074800D01*
X0055211Y0074745D01*
X0055155D01*
X0054924Y0074856D02*
X0054702D01*
X0054813Y0075078D01*
X0054869D01*
Y0074745D01*
X0054471Y0074912D02*
X0054554Y0074745D01*
X0054332Y0074912D02*
X0054499D01*
X0054554Y0074967D01*
Y0075023D01*
X0054499Y0075078D01*
X0054332D01*
Y0074745D01*
X0105971Y0078949D02*
X0106138D01*
X0106165Y0078894D01*
Y0078838D01*
X0106138Y0078783D01*
X0105971D01*
X0105943Y0078838D01*
Y0078894D01*
X0106054Y0079116D01*
X0105795Y0078783D02*
X0105573D01*
X0105795Y0079005D01*
Y0079060D01*
X0105768Y0079116D01*
X0105601D01*
X0105573Y0079060D01*
X0105342Y0078949D02*
X0105425Y0078783D01*
X0105203Y0078949D02*
X0105370D01*
X0105425Y0079005D01*
Y0079060D01*
X0105370Y0079116D01*
X0105203D01*
Y0078783D01*
X0067216Y0078132D02*
X0067050D01*
X0067022Y0078187D01*
Y0078243D01*
X0067050Y0078298D01*
X0067216D01*
X0067244Y0078243D01*
Y0078187D01*
X0067133Y0077965D01*
X0066874Y0078021D02*
X0066846Y0077965D01*
X0066680D01*
X0066652Y0078021D01*
Y0078243D01*
X0066680Y0078298D01*
X0066846D01*
X0066874Y0078243D01*
X0102409Y0069415D02*
X0102298D01*
X0102353D02*
Y0069748D01*
X0102298Y0069693D01*
X0101983Y0069415D02*
Y0069748D01*
X0102094D02*
X0101872D01*
X0101530Y0069415D02*
Y0069748D01*
X0101502Y0069415D02*
X0101669D01*
X0101724Y0069470D01*
Y0069526D01*
X0101697Y0069582D01*
X0101530D02*
X0101697D01*
X0101724Y0069637D01*
Y0069693D01*
X0101669Y0069748D01*
X0101502D01*
X0103041Y0076242D02*
Y0076075D01*
X0102985Y0076047D01*
X0102929D01*
X0102874Y0076075D01*
Y0076242D01*
X0102929Y0076270D01*
X0102985D01*
X0103207Y0076159D01*
X0103152Y0075677D02*
X0103207Y0075733D01*
Y0075844D01*
X0103152Y0075900D01*
X0103096D01*
X0102985Y0075789D01*
X0102874Y0075900D01*
Y0075677D01*
X0103207Y0075530D02*
Y0075419D01*
Y0075474D02*
X0102874D01*
X0102929Y0075419D01*
X0103152Y0075215D02*
X0103207Y0075188D01*
Y0075021D01*
X0103152Y0074993D01*
X0102929D01*
X0102874Y0075021D01*
Y0075188D01*
X0102929Y0075215D01*
X0052680Y0068602D02*
Y0068336D01*
X0052813Y0068469D02*
X0052547D01*
X0052283Y0068218D02*
X0052339Y0068163D01*
X0052450D01*
X0052505Y0068218D01*
Y0068274D01*
X0052394Y0068385D01*
X0052505Y0068496D01*
X0052283D01*
X0051913Y0068218D02*
X0051969Y0068163D01*
X0052080D01*
X0052135Y0068218D01*
Y0068274D01*
X0052024Y0068385D01*
X0052135Y0068496D01*
X0051913D01*
X0051765Y0068218D02*
X0051738Y0068163D01*
X0051571D01*
X0051543Y0068218D01*
Y0068440D01*
X0051571Y0068496D01*
X0051738D01*
X0051765Y0068440D01*
X0062294Y0068136D02*
X0062072D01*
X0062183Y0068358D01*
X0062239D01*
Y0068025D01*
X0061702Y0068080D02*
X0061758Y0068025D01*
X0061869D01*
X0061924Y0068080D01*
Y0068136D01*
X0061813Y0068247D01*
X0061924Y0068358D01*
X0061702D01*
X0061471Y0068192D02*
X0061554Y0068025D01*
X0061332Y0068192D02*
X0061499D01*
X0061554Y0068247D01*
Y0068303D01*
X0061499Y0068358D01*
X0061332D01*
Y0068025D01*
X0062256Y0066263D02*
X0062201Y0066318D01*
X0062173Y0066374D01*
Y0066485D01*
X0062201Y0066540D01*
X0062256Y0066596D01*
X0062312D01*
X0062368Y0066540D01*
X0062395Y0066485D01*
Y0066374D01*
X0062368Y0066318D01*
X0062312Y0066263D01*
X0062256D01*
X0061803Y0066318D02*
X0061859Y0066263D01*
X0061970D01*
X0062025Y0066318D01*
Y0066374D01*
X0061914Y0066485D01*
X0062025Y0066596D01*
X0061803D01*
X0061572Y0066429D02*
X0061655Y0066263D01*
X0061433Y0066429D02*
X0061600D01*
X0061655Y0066485D01*
Y0066540D01*
X0061600Y0066596D01*
X0061433D01*
Y0066263D01*
X0062418Y0080459D02*
X0062251D01*
X0062223Y0080515D01*
Y0080570D01*
X0062251Y0080626D01*
X0062418D01*
X0062445Y0080570D01*
Y0080515D01*
X0062334Y0080293D01*
X0061853Y0080348D02*
X0061909Y0080293D01*
X0062020D01*
X0062075Y0080348D01*
Y0080404D01*
X0061964Y0080515D01*
X0062075Y0080626D01*
X0061853D01*
X0061622Y0080459D02*
X0061705Y0080293D01*
X0061483Y0080459D02*
X0061650D01*
X0061705Y0080515D01*
Y0080570D01*
X0061650Y0080626D01*
X0061483D01*
Y0080293D01*
X0105943Y0079798D02*
X0105971Y0079743D01*
X0106138D01*
X0106165Y0079798D01*
Y0079909D01*
X0106110Y0079965D01*
X0105943D01*
Y0080076D01*
X0106165D01*
X0105795Y0079743D02*
X0105573D01*
X0105795Y0079965D01*
Y0080020D01*
X0105768Y0080076D01*
X0105601D01*
X0105573Y0080020D01*
X0105342Y0079909D02*
X0105425Y0079743D01*
X0105203Y0079909D02*
X0105370D01*
X0105425Y0079965D01*
Y0080020D01*
X0105370Y0080076D01*
X0105203D01*
Y0079743D01*
X0106185Y0076894D02*
X0105963D01*
X0106074Y0077116D01*
X0106130D01*
Y0076783D01*
X0105815D02*
X0105593D01*
X0105815Y0077005D01*
Y0077060D01*
X0105788Y0077116D01*
X0105621D01*
X0105593Y0077060D01*
X0105362Y0076949D02*
X0105445Y0076783D01*
X0105223Y0076949D02*
X0105390D01*
X0105445Y0077005D01*
Y0077060D01*
X0105390Y0077116D01*
X0105223D01*
Y0076783D01*
X0062388Y0076839D02*
X0062415Y0076895D01*
Y0076950D01*
X0062388Y0077006D01*
X0062221D01*
X0062193Y0076950D01*
Y0076895D01*
X0062221Y0076839D01*
X0062388D01*
X0062415Y0076784D01*
Y0076728D01*
X0062388Y0076673D01*
X0062221D01*
X0062193Y0076728D01*
Y0076784D01*
X0062221Y0076839D01*
X0061823Y0076728D02*
X0061879Y0076673D01*
X0061990D01*
X0062045Y0076728D01*
Y0076784D01*
X0061934Y0076895D01*
X0062045Y0077006D01*
X0061823D01*
X0061592Y0076839D02*
X0061675Y0076673D01*
X0061453Y0076839D02*
X0061620D01*
X0061675Y0076895D01*
Y0076950D01*
X0061620Y0077006D01*
X0061453D01*
Y0076673D01*
X0055680Y0081657D02*
Y0081924D01*
X0055547Y0081791D02*
X0055813D01*
X0052510Y0082174D02*
X0052566Y0082202D01*
Y0082368D01*
X0052510Y0082396D01*
X0052399D01*
X0052343Y0082340D01*
Y0082174D01*
X0052232D01*
Y0082396D01*
X0052510Y0081804D02*
X0052566Y0081859D01*
Y0081970D01*
X0052510Y0082026D01*
X0052454D01*
X0052343Y0081915D01*
X0052232Y0082026D01*
Y0081804D01*
X0052510Y0081656D02*
X0052566Y0081628D01*
Y0081462D01*
X0052510Y0081434D01*
X0052288D01*
X0052232Y0081462D01*
Y0081628D01*
X0052288Y0081656D01*
X0071800Y0076515D02*
X0071744Y0076571D01*
X0071716Y0076626D01*
Y0076737D01*
X0071744Y0076793D01*
X0071800Y0076848D01*
X0071855D01*
X0071911Y0076793D01*
X0071939Y0076737D01*
Y0076626D01*
X0071911Y0076571D01*
X0071855Y0076515D01*
X0071800D01*
X0071569D02*
X0071458D01*
X0071513D02*
Y0076848D01*
X0071458Y0076793D01*
X0071254Y0076571D02*
X0071226Y0076515D01*
X0071060D01*
X0071032Y0076571D01*
Y0076793D01*
X0071060Y0076848D01*
X0071226D01*
X0071254Y0076793D01*
X0080020Y0064523D02*
X0079909D01*
X0079964D02*
Y0064856D01*
X0079909Y0064800D01*
X0079594Y0064523D02*
Y0064689D01*
X0079705Y0064856D02*
X0079622Y0064689D01*
X0079566D01*
X0079483Y0064856D01*
X0051772Y0062393D02*
X0051827Y0062449D01*
Y0062560D01*
X0051772Y0062615D01*
X0051716D01*
X0051605Y0062504D01*
X0051494Y0062615D01*
Y0062393D01*
X0051827Y0062051D02*
X0051494D01*
X0051827Y0062023D02*
Y0062190D01*
X0051716Y0062245D01*
X0051605D01*
X0051494Y0062190D01*
Y0062023D01*
X0056692Y0065910D02*
X0056720Y0065855D01*
X0056887D01*
X0056914Y0065910D01*
Y0066022D01*
X0056859Y0066077D01*
X0056692D01*
Y0066188D01*
X0056914D01*
X0056322Y0065910D02*
X0056378Y0065855D01*
X0056489D01*
X0056544Y0065910D01*
Y0065966D01*
X0056433Y0066077D01*
X0056544Y0066188D01*
X0056322D01*
X0056091Y0066022D02*
X0056174Y0065855D01*
X0055952Y0066022D02*
X0056119D01*
X0056174Y0066077D01*
Y0066133D01*
X0056119Y0066188D01*
X0055952D01*
Y0065855D01*
X0058906Y0083050D02*
X0058739D01*
X0058711Y0083105D01*
Y0083161D01*
X0058739Y0083216D01*
X0058906D01*
X0058934Y0083161D01*
Y0083105D01*
X0058822Y0082883D01*
X0058564D02*
X0058341D01*
X0058564Y0083105D01*
Y0083161D01*
X0058536Y0083216D01*
X0058369D01*
X0058341Y0083161D01*
X0058194Y0082939D02*
X0058166Y0082883D01*
X0057999D01*
X0057971Y0082939D01*
Y0083161D01*
X0057999Y0083216D01*
X0058166D01*
X0058194Y0083161D01*
X0060445Y0062079D02*
Y0061856D01*
X0060223Y0062079D01*
X0060167D01*
X0060111Y0062051D01*
Y0061884D01*
X0060167Y0061856D01*
X0060445Y0061709D02*
Y0061598D01*
Y0061653D02*
X0060111D01*
X0060167Y0061598D01*
X0060389Y0061394D02*
X0060445Y0061366D01*
Y0061200D01*
X0060389Y0061172D01*
X0060167D01*
X0060111Y0061200D01*
Y0061366D01*
X0060167Y0061394D01*
X0105999Y0077743D02*
X0106165Y0078076D01*
X0105943D01*
X0105795Y0077743D02*
X0105573D01*
X0105795Y0077965D01*
Y0078020D01*
X0105768Y0078076D01*
X0105601D01*
X0105573Y0078020D01*
X0105342Y0077909D02*
X0105425Y0077743D01*
X0105203Y0077909D02*
X0105370D01*
X0105425Y0077965D01*
Y0078020D01*
X0105370Y0078076D01*
X0105203D01*
Y0077743D01*
X0062240Y0070613D02*
X0062129D01*
X0062184D02*
Y0070946D01*
X0062129Y0070890D01*
X0061703Y0070668D02*
X0061759Y0070613D01*
X0061870D01*
X0061925Y0070668D01*
Y0070724D01*
X0061814Y0070835D01*
X0061925Y0070946D01*
X0061703D01*
X0061472Y0070779D02*
X0061555Y0070613D01*
X0061333Y0070779D02*
X0061500D01*
X0061555Y0070835D01*
Y0070890D01*
X0061500Y0070946D01*
X0061333D01*
Y0070613D01*
X0062239Y0075823D02*
X0062405Y0076156D01*
X0062183D01*
X0061813Y0075878D02*
X0061869Y0075823D01*
X0061980D01*
X0062035Y0075878D01*
Y0075934D01*
X0061924Y0076045D01*
X0062035Y0076156D01*
X0061813D01*
X0061582Y0075989D02*
X0061665Y0075823D01*
X0061443Y0075989D02*
X0061610D01*
X0061665Y0076045D01*
Y0076100D01*
X0061610Y0076156D01*
X0061443D01*
Y0075823D01*
X0076679Y0062693D02*
Y0064267D01*
X0082584D01*
Y0062693D01*
X0076679D01*
X0052695Y0063070D02*
X0051945D01*
Y0061470D01*
X0052695D01*
Y0063070D01*
X0061250Y0066005D02*
Y0066755D01*
X0059650D01*
Y0066005D01*
X0061250D01*
X0061310Y0080075D02*
Y0080825D01*
X0059710D01*
Y0080075D01*
X0061310D01*
X0061290Y0076465D02*
Y0077215D01*
X0059690D01*
Y0076465D01*
X0061290D01*
X0055770Y0067085D02*
Y0066335D01*
X0057370D01*
Y0067085D01*
X0055770D01*
X0061200Y0070355D02*
Y0071105D01*
X0059600D01*
Y0070355D01*
X0061200D01*
X0061290Y0075565D02*
Y0076315D01*
X0059690D01*
Y0075565D01*
X0061290D01*
X0061200Y0068605D02*
Y0069355D01*
X0059600D01*
Y0068605D01*
X0061200D01*
X0060905Y0059370D02*
X0061655D01*
Y0060970D01*
X0060905D01*
Y0059370D01*
X0059700Y0079915D02*
Y0079165D01*
X0061300D01*
Y0079915D01*
X0059700D01*
X0059610Y0070205D02*
Y0069455D01*
X0061210D01*
Y0070205D01*
X0059610D01*
X0068970Y0061060D02*
X0067280D01*
X0066820Y0061050D01*
Y0062800D01*
X0069310D01*
Y0061050D01*
X0068970Y0061060D01*
X0094790Y0054635D02*
Y0053885D01*
X0096390D01*
Y0054635D01*
X0094790D01*
X0065105Y0071930D02*
X0064355D01*
Y0070330D01*
X0065105D01*
Y0071930D01*
X0066165Y0066970D02*
X0066915D01*
Y0068570D01*
X0066165D01*
Y0066970D01*
X0065155D02*
X0065905D01*
Y0068570D01*
X0065155D01*
Y0066970D01*
X0099120Y0071830D02*
X0099090D01*
Y0073730D01*
X0100480D01*
Y0071840D01*
X0100470D01*
X0100480Y0071830D01*
X0099120D01*
X0100330Y0071960D02*
X0099110D01*
X0054195Y0065410D02*
X0054945D01*
Y0067010D01*
X0054195D01*
Y0065410D01*
X0102695Y0076350D02*
X0101945D01*
Y0074750D01*
X0102695D01*
Y0076350D01*
X0055520Y0075945D02*
Y0075195D01*
X0057120D01*
Y0075945D01*
X0055520D01*
X0059710Y0079015D02*
Y0078265D01*
X0061310D01*
Y0079015D01*
X0059710D01*
X0096210Y0075015D02*
Y0074265D01*
X0097810D01*
Y0075015D01*
X0096210D01*
X0059610Y0067605D02*
Y0066855D01*
X0061210D01*
Y0067605D01*
X0059610D01*
X0105090Y0076475D02*
Y0077225D01*
X0103490D01*
Y0076475D01*
X0105090D01*
X0086710Y0077335D02*
Y0076585D01*
X0088310D01*
Y0077335D01*
X0086710D01*
X0086700Y0071755D02*
Y0071005D01*
X0088300D01*
Y0071755D01*
X0086700D01*
X0086710Y0075055D02*
Y0074305D01*
X0088310D01*
Y0075055D01*
X0086710D01*
X0059690Y0078115D02*
Y0077365D01*
X0061290D01*
Y0078115D01*
X0059690D01*
X0059610Y0072005D02*
Y0071255D01*
X0061210D01*
Y0072005D01*
X0059610D01*
X0096230Y0073835D02*
Y0073085D01*
X0097830D01*
Y0073835D01*
X0096230D01*
X0073650Y0074840D02*
X0072310D01*
X0105070Y0079485D02*
Y0080235D01*
X0103470D01*
Y0079485D01*
X0105070D01*
X0070620Y0076355D02*
Y0075605D01*
X0072220D01*
Y0076355D01*
X0070620D01*
X0086690Y0072845D02*
Y0072095D01*
X0088290D01*
Y0072845D01*
X0086690D01*
X0105070Y0077485D02*
Y0078235D01*
X0103470D01*
Y0077485D01*
X0105070D01*
X0081275Y0077180D02*
X0082025D01*
Y0078780D01*
X0081275D01*
Y0077180D01*
X0086720Y0073955D02*
Y0073205D01*
X0088320D01*
Y0073955D01*
X0086720D01*
X0075140Y0075495D02*
Y0076245D01*
X0073540D01*
Y0075495D01*
X0075140D01*
X0077740Y0066225D02*
Y0065475D01*
X0079340D01*
Y0066225D01*
X0077740D01*
X0053820Y0075955D02*
Y0075205D01*
X0055420D01*
Y0075955D01*
X0053820D01*
X0075310Y0077060D02*
X0072270D01*
Y0079070D01*
X0075370D01*
X0058165Y0081130D02*
X0058915D01*
Y0082730D01*
X0058165D01*
Y0081130D01*
X0086720Y0080425D02*
Y0079675D01*
X0088320D01*
Y0080425D01*
X0086720D01*
X0081810Y0065055D02*
Y0065805D01*
X0080210D01*
Y0065055D01*
X0081810D01*
X0052695Y0064940D02*
X0051945D01*
Y0063340D01*
X0052695D01*
Y0064940D01*
X0059610Y0068505D02*
Y0067755D01*
X0061210D01*
Y0068505D01*
X0059610D01*
X0097830Y0072015D02*
Y0072765D01*
X0096230D01*
Y0072015D01*
X0097830D01*
X0088205Y0068740D02*
X0087455D01*
Y0067140D01*
X0088205D01*
Y0068740D01*
X0059945Y0059370D02*
X0060695D01*
Y0060970D01*
X0059945D01*
Y0059370D01*
X0066595Y0071980D02*
X0065845D01*
Y0070380D01*
X0066595D01*
Y0071980D01*
X0072320Y0075040D02*
X0072290D01*
Y0073040D01*
X0073650D01*
Y0075040D01*
X0072320D01*
X0086690Y0078365D02*
Y0077615D01*
X0088290D01*
Y0078365D01*
X0086690D01*
X0065930Y0077855D02*
Y0077105D01*
X0067530D01*
Y0077855D01*
X0065930D01*
X0063095Y0059370D02*
X0063845D01*
Y0060970D01*
X0063095D01*
Y0059370D01*
X0086690Y0076315D02*
Y0075565D01*
X0088290D01*
Y0076315D01*
X0086690D01*
X0105070Y0078475D02*
Y0079225D01*
X0103470D01*
Y0078475D01*
X0105070D01*
X0086710Y0079425D02*
Y0078675D01*
X0088310D01*
Y0079425D01*
X0086710D01*
G01X0098150Y0049260D02*
G03X0098660Y0049770I0000000J0000510D01*
G01X0097640D02*
G03X0098150Y0049260I0000510J0000000D01*
Y0050280D02*
G03X0097640Y0049770I0000000J0000510D01*
G01X0098660D02*
G03X0098150Y0050280I0000510J0000000D01*
G01X0054570Y0049290D02*
G03X0055080Y0049800I0000000J0000510D01*
G01X0054060D02*
G03X0054570Y0049290I0000510J0000000D01*
Y0050310D02*
G03X0054060Y0049800I0000000J0000510D01*
G01X0055080D02*
G03X0054570Y0050310I0000510J0000000D01*
Y0052500D02*
G03X0055080Y0053010I0000000J0000510D01*
G01X0054060D02*
G03X0054570Y0052500I0000510J0000000D01*
Y0053520D02*
G03X0054060Y0053010I0000000J0000510D01*
G01X0055080D02*
G03X0054570Y0053520I0000510J0000000D01*
G01X0098140Y0052480D02*
G03X0098650Y0052990I0000000J0000510D01*
G01X0097630D02*
G03X0098140Y0052480I0000510J0000000D01*
Y0053500D02*
G03X0097630Y0052990I0000000J0000510D01*
G01X0098650D02*
G03X0098140Y0053500I0000510J0000000D01*
G54D84*
G01X0081572Y0057460D02*
X0081517Y0057515D01*
X0081489Y0057571D01*
Y0057682D01*
X0081517Y0057738D01*
X0081572Y0057793D01*
X0081628D01*
X0081683Y0057738D01*
X0081711Y0057682D01*
Y0057571D01*
X0081683Y0057515D01*
X0081628Y0057460D01*
X0081572D01*
X0081301D02*
X0081079D01*
X0081301Y0057682D01*
Y0057738D01*
X0081273Y0057793D01*
X0081107D01*
X0081079Y0057738D01*
X0071281Y0057420D02*
X0071059D01*
X0071281Y0057642D01*
Y0057698D01*
X0071253Y0057753D01*
X0071087D01*
X0071059Y0057698D01*
X0081608Y0056567D02*
X0081441D01*
X0081413Y0056622D01*
Y0056678D01*
X0081441Y0056733D01*
X0081608D01*
X0081635Y0056678D01*
Y0056622D01*
X0081524Y0056400D01*
X0081225D02*
X0081114D01*
X0081170D02*
Y0056733D01*
X0081114Y0056678D01*
X0102086Y0085439D02*
X0102170Y0085273D01*
X0101947Y0085439D02*
X0102114D01*
X0102170Y0085495D01*
Y0085550D01*
X0102114Y0085606D01*
X0101947D01*
Y0085273D01*
X0101704Y0085439D02*
X0101537D01*
X0101760Y0085273D02*
X0101537D01*
Y0085606D01*
X0101760D01*
X0101350Y0085273D02*
X0101183D01*
X0101350Y0085606D01*
X0101183D01*
X0100968Y0085273D02*
X0100801D01*
X0100968Y0085606D01*
X0100801D01*
X0100585D02*
Y0085328D01*
X0100558Y0085273D01*
X0100391D01*
X0100363Y0085328D01*
Y0085606D01*
X0099981Y0085273D02*
Y0085606D01*
X0099953Y0085273D02*
X0100120D01*
X0100175Y0085328D01*
Y0085384D01*
X0100148Y0085439D01*
X0099981D02*
X0100148D01*
X0100175Y0085495D01*
Y0085550D01*
X0100120Y0085606D01*
X0099953D01*
X0057893Y0081193D02*
X0057671D01*
X0057782Y0081416D01*
X0057837D01*
Y0081082D01*
X0057483D02*
X0057372D01*
X0057428D02*
Y0081416D01*
X0057372Y0081360D01*
X0057129Y0081416D02*
Y0081138D01*
X0057101Y0081082D01*
X0056934D01*
X0056906Y0081138D01*
Y0081416D01*
X0064817Y0057345D02*
X0064706D01*
X0064762D02*
Y0057678D01*
X0064706Y0057623D01*
X0068436Y0063114D02*
X0068269Y0063281D01*
X0068436Y0063448D01*
X0068213D02*
Y0063114D01*
X0067887D02*
X0067831Y0063170D01*
X0067803Y0063225D01*
Y0063336D01*
X0067831Y0063392D01*
X0067887Y0063448D01*
X0067942D01*
X0067998Y0063392D01*
X0068026Y0063336D01*
Y0063225D01*
X0067998Y0063170D01*
X0067942Y0063114D01*
X0067887D01*
X0067616D02*
X0067505D01*
X0067560D02*
Y0063448D01*
X0067505Y0063392D01*
X0071225Y0056370D02*
X0071114D01*
X0071170D02*
Y0056703D01*
X0071114Y0056648D01*
X0058021Y0071819D02*
X0058049Y0071874D01*
Y0071930D01*
X0058021Y0071986D01*
X0057854D01*
X0057826Y0071930D01*
Y0071874D01*
X0057854Y0071819D01*
X0058021D01*
X0058049Y0071763D01*
Y0071708D01*
X0058021Y0071652D01*
X0057854D01*
X0057826Y0071708D01*
Y0071763D01*
X0057854Y0071819D01*
X0057639Y0071986D02*
Y0071708D01*
X0057611Y0071652D01*
X0057444D01*
X0057416Y0071708D01*
Y0071986D01*
X0100209Y0074101D02*
X0100237Y0074045D01*
X0100403D01*
X0100431Y0074101D01*
Y0074212D01*
X0100375Y0074267D01*
X0100209D01*
Y0074379D01*
X0100431D01*
X0100021D02*
Y0074101D01*
X0099993Y0074045D01*
X0099827D01*
X0099799Y0074101D01*
Y0074379D01*
X0072229Y0075133D02*
X0072006D01*
X0072118Y0075356D01*
X0072173D01*
Y0075022D01*
X0071819Y0075356D02*
Y0075078D01*
X0071791Y0075022D01*
X0071624D01*
X0071596Y0075078D01*
Y0075356D01*
X0090769Y0073191D02*
X0090824Y0073135D01*
X0090935D01*
X0090991Y0073191D01*
Y0073246D01*
X0090880Y0073357D01*
X0090991Y0073469D01*
X0090769D01*
X0090581D02*
Y0073191D01*
X0090553Y0073135D01*
X0090387D01*
X0090359Y0073191D01*
Y0073469D01*
X0095201Y0057512D02*
X0095034D01*
X0095006Y0057567D01*
Y0057623D01*
X0095034Y0057678D01*
X0095201D01*
X0095229Y0057623D01*
Y0057567D01*
X0095118Y0057345D01*
X0095233Y0056375D02*
X0095178Y0056431D01*
X0095150Y0056486D01*
Y0056597D01*
X0095178Y0056653D01*
X0095233Y0056708D01*
X0095289D01*
X0095344Y0056653D01*
X0095372Y0056597D01*
Y0056486D01*
X0095344Y0056431D01*
X0095289Y0056375D01*
X0095233D01*
X0094962D02*
X0094851D01*
X0094907D02*
Y0056708D01*
X0094851Y0056653D01*
X0100869Y0056395D02*
X0100646D01*
X0100869Y0056617D01*
Y0056673D01*
X0100841Y0056728D01*
X0100674D01*
X0100646Y0056673D01*
X0098572Y0059232D02*
X0098739D01*
X0098767Y0059176D01*
Y0059120D01*
X0098739Y0059065D01*
X0098572D01*
X0098544Y0059120D01*
Y0059176D01*
X0098655Y0059398D01*
X0098162Y0059176D02*
Y0059120D01*
X0098190Y0059065D01*
X0098301D01*
X0098329Y0059120D01*
Y0059398D01*
X0098357D02*
X0098245D01*
X0100753Y0057495D02*
X0100642D01*
X0100698D02*
Y0057828D01*
X0100642Y0057773D01*
X0067316Y0074407D02*
X0067149D01*
X0067121Y0074462D01*
Y0074518D01*
X0067149Y0074573D01*
X0067316D01*
X0067343Y0074518D01*
Y0074462D01*
X0067232Y0074240D01*
X0066933Y0074573D02*
Y0074295D01*
X0066906Y0074240D01*
X0066739D01*
X0066711Y0074295D01*
Y0074573D01*
X0073824Y0079623D02*
X0073601D01*
X0073824Y0079845D01*
Y0079901D01*
X0073796Y0079957D01*
X0073629D01*
X0073601Y0079901D01*
X0073302Y0079623D02*
Y0079790D01*
X0073414Y0079957D02*
X0073330Y0079790D01*
X0073275D01*
X0073191Y0079957D01*
X0081233Y0074145D02*
X0081122D01*
X0081178D02*
Y0074478D01*
X0081122Y0074423D01*
X0078547Y0074038D02*
X0078714Y0074371D01*
X0078491D01*
X0066682Y0063741D02*
X0066738Y0063686D01*
X0066849D01*
X0066904Y0063741D01*
Y0063797D01*
X0066793Y0063908D01*
X0066904Y0064019D01*
X0066682D01*
X0066494D02*
Y0063741D01*
X0066467Y0063686D01*
X0066383Y0063853D01*
Y0063908D02*
Y0063853D01*
X0066300Y0063686D01*
X0066272Y0063741D01*
Y0064019D01*
X0066084Y0063964D02*
X0066057Y0064019D01*
X0065890D01*
X0065862Y0063964D01*
Y0063908D01*
X0065890Y0063853D01*
X0066057D01*
X0066084Y0063797D01*
Y0063741D01*
X0066057Y0063686D01*
X0065890D01*
X0065862Y0063741D01*
X0083694Y0074085D02*
X0083638Y0074140D01*
X0083610Y0074196D01*
Y0074307D01*
X0083638Y0074363D01*
X0083694Y0074418D01*
X0083749D01*
X0083805Y0074363D01*
X0083833Y0074307D01*
Y0074196D01*
X0083805Y0074140D01*
X0083749Y0074085D01*
X0083694D01*
X0083423Y0074196D02*
X0083200D01*
X0083312Y0074418D01*
X0083367D01*
Y0074085D01*
X0078227Y0076063D02*
X0078116D01*
X0078172D02*
Y0076397D01*
X0078116Y0076341D01*
X0077873Y0076063D02*
X0077762D01*
X0077817D02*
Y0076397D01*
X0077762Y0076341D01*
X0077519Y0076397D02*
Y0076119D01*
X0077491Y0076063D01*
X0077324D01*
X0077296Y0076119D01*
Y0076397D01*
X0079084Y0069289D02*
X0079111Y0069345D01*
Y0069400D01*
X0079084Y0069456D01*
X0078917D01*
X0078889Y0069400D01*
Y0069345D01*
X0078917Y0069289D01*
X0079084D01*
X0079111Y0069234D01*
Y0069178D01*
X0079084Y0069122D01*
X0078917D01*
X0078889Y0069178D01*
Y0069234D01*
X0078917Y0069289D01*
X0078701Y0069122D02*
X0078590D01*
X0078646D02*
Y0069456D01*
X0078590Y0069400D01*
X0109659Y0075496D02*
X0109493Y0075412D01*
X0109659Y0075635D02*
Y0075468D01*
X0109715Y0075412D01*
X0109770D01*
X0109826Y0075468D01*
Y0075635D01*
X0109493D01*
X0109659Y0075878D02*
Y0076045D01*
X0109493Y0075822D02*
Y0076045D01*
X0109826D01*
Y0075822D01*
X0109493Y0076427D02*
X0109826D01*
X0109493Y0076455D02*
Y0076288D01*
X0109604Y0076232D01*
X0109715D01*
X0109826Y0076288D01*
Y0076455D01*
X0109604Y0076642D02*
Y0076865D01*
X0109493Y0076642D02*
X0109659D01*
X0109826Y0076726D01*
Y0076781D01*
X0109659Y0076865D01*
X0109493D01*
X0109659Y0077108D02*
Y0077275D01*
X0109493Y0077052D02*
Y0077275D01*
X0109826D01*
Y0077052D01*
X0109659Y0077462D02*
Y0077685D01*
X0109493Y0077462D02*
X0109826D01*
X0109493Y0077685D02*
X0109826D01*
X0109493Y0078602D02*
X0109826D01*
X0109493Y0078630D02*
Y0078463D01*
X0109604Y0078407D01*
X0109715D01*
X0109826Y0078463D01*
Y0078630D01*
X0109659Y0078873D02*
Y0079040D01*
X0109493Y0078817D02*
Y0079040D01*
X0109826D01*
Y0078817D01*
X0109493Y0079227D02*
Y0079422D01*
X0109826D01*
X0109493Y0080256D02*
X0109826D01*
Y0080144D02*
Y0080367D01*
Y0080554D02*
X0109493D01*
X0109548Y0080610D01*
X0109770Y0080721D01*
X0109826Y0080777D01*
X0109493D01*
Y0081159D02*
X0109548Y0081187D01*
X0109770D01*
X0109826Y0081159D01*
Y0080992D01*
X0109770Y0080964D01*
X0109548D01*
X0109493Y0080992D01*
Y0081159D01*
X0109659Y0081458D02*
X0109493Y0081374D01*
X0109659Y0081597D02*
Y0081430D01*
X0109715Y0081374D01*
X0109770D01*
X0109826Y0081430D01*
Y0081597D01*
X0109493D01*
X0109659Y0081840D02*
Y0082007D01*
X0109493D02*
X0109826D01*
Y0081784D01*
X0107882Y0081544D02*
Y0081655D01*
Y0081600D02*
X0108216D01*
X0108160Y0081655D01*
X0083661Y0069769D02*
Y0069603D01*
X0083605Y0069575D01*
X0083550D01*
X0083494Y0069603D01*
Y0069769D01*
X0083550Y0069797D01*
X0083605D01*
X0083827Y0069686D01*
Y0069387D02*
Y0069165D01*
X0083605Y0069387D01*
X0083550D01*
X0083494Y0069359D01*
Y0069193D01*
X0083550Y0069165D01*
X0086155Y0083992D02*
X0086044D01*
X0086100D02*
Y0084326D01*
X0086044Y0084270D01*
X0086211Y0084992D02*
X0085989D01*
X0086211Y0085215D01*
Y0085270D01*
X0086183Y0085326D01*
X0086017D01*
X0085989Y0085270D01*
X0094176Y0085104D02*
X0093954D01*
X0094065Y0085326D01*
X0094121D01*
Y0084992D01*
X0093766D02*
X0093655D01*
X0093711D02*
Y0085326D01*
X0093655Y0085270D01*
X0095172Y0086513D02*
X0094950D01*
X0095172Y0086735D01*
Y0086790D01*
X0095144Y0086846D01*
X0094977D01*
X0094950Y0086790D01*
X0094762Y0086513D02*
X0094651D01*
X0094706D02*
Y0086846D01*
X0094651Y0086790D01*
X0094213Y0086624D02*
Y0086568D01*
X0094241Y0086513D01*
X0094352D01*
X0094380Y0086568D01*
Y0086846D01*
X0094408D02*
X0094296D01*
X0093954Y0084048D02*
X0094010Y0083992D01*
X0094121D01*
X0094176Y0084048D01*
Y0084104D01*
X0094065Y0084215D01*
X0094176Y0084326D01*
X0093954D01*
X0093766Y0083992D02*
X0093655D01*
X0093711D02*
Y0084326D01*
X0093655Y0084270D01*
X0071553Y0085015D02*
X0071442D01*
X0071498D02*
Y0085348D01*
X0071442Y0085293D01*
X0071669Y0083985D02*
X0071446D01*
X0071669Y0084207D01*
Y0084263D01*
X0071641Y0084318D01*
X0071474D01*
X0071446Y0084263D01*
X0064052Y0084036D02*
X0063830D01*
X0063941Y0084258D01*
X0063996D01*
Y0083925D01*
X0063642D02*
X0063531D01*
X0063587D02*
Y0084258D01*
X0063531Y0084203D01*
X0063455Y0086695D02*
X0063344D01*
X0063400D02*
Y0087028D01*
X0063344Y0086973D01*
X0063101Y0086695D02*
X0062990D01*
X0063045D02*
Y0087028D01*
X0062990Y0086973D01*
X0062552Y0086806D02*
Y0086750D01*
X0062580Y0086695D01*
X0062691D01*
X0062719Y0086750D01*
Y0087028D01*
X0062747D02*
X0062635D01*
X0063780Y0084981D02*
X0063835Y0084925D01*
X0063946D01*
X0064002Y0084981D01*
Y0085036D01*
X0063891Y0085147D01*
X0064002Y0085258D01*
X0063780D01*
X0063592Y0084925D02*
X0063481D01*
X0063537D02*
Y0085258D01*
X0063481Y0085203D01*
X0067227Y0080170D02*
X0067393Y0080503D01*
X0067171D01*
X0066983D02*
Y0080225D01*
X0066956Y0080170D01*
X0066789D01*
X0066761Y0080225D01*
Y0080503D01*
X0068234Y0065099D02*
X0068123D01*
X0068179D02*
Y0065432D01*
X0068123Y0065377D01*
X0098424Y0053819D02*
X0098452Y0053875D01*
Y0053930D01*
X0098424Y0053986D01*
X0098257D01*
X0098230Y0053930D01*
Y0053875D01*
X0098257Y0053819D01*
X0098424D01*
X0098452Y0053764D01*
Y0053708D01*
X0098424Y0053653D01*
X0098257D01*
X0098230Y0053708D01*
Y0053764D01*
X0098257Y0053819D01*
X0098042Y0053653D02*
X0097931D01*
X0097986D02*
Y0053986D01*
X0097931Y0053930D01*
X0097493Y0053764D02*
Y0053708D01*
X0097521Y0053653D01*
X0097632D01*
X0097660Y0053708D01*
Y0053986D01*
X0097688D02*
X0097576D01*
X0054934Y0053909D02*
X0054767D01*
X0054740Y0053965D01*
Y0054020D01*
X0054767Y0054076D01*
X0054934D01*
X0054962Y0054020D01*
Y0053965D01*
X0054851Y0053743D01*
X0054552D02*
X0054441D01*
X0054496D02*
Y0054076D01*
X0054441Y0054020D01*
X0054003Y0053854D02*
Y0053798D01*
X0054031Y0053743D01*
X0054142D01*
X0054170Y0053798D01*
Y0054076D01*
X0054198D02*
X0054086D01*
X0096999Y0049633D02*
X0096943Y0049688D01*
X0096915Y0049744D01*
Y0049855D01*
X0096943Y0049910D01*
X0096999Y0049966D01*
X0097054D01*
X0097110Y0049910D01*
X0097138Y0049855D01*
Y0049744D01*
X0097110Y0049688D01*
X0097054Y0049633D01*
X0096999D01*
X0096728D02*
X0096505D01*
X0096728Y0049855D01*
Y0049910D01*
X0096700Y0049966D01*
X0096533D01*
X0096505Y0049910D01*
X0096123Y0049744D02*
Y0049688D01*
X0096151Y0049633D01*
X0096262D01*
X0096290Y0049688D01*
Y0049966D01*
X0096318D02*
X0096206D01*
X0053792Y0049713D02*
X0053681D01*
X0053736D02*
Y0050046D01*
X0053681Y0049990D01*
X0053438Y0049713D02*
X0053215D01*
X0053438Y0049935D01*
Y0049990D01*
X0053410Y0050046D01*
X0053243D01*
X0053215Y0049990D01*
X0052833Y0049824D02*
Y0049768D01*
X0052861Y0049713D01*
X0052972D01*
X0053000Y0049768D01*
Y0050046D01*
X0053028D02*
X0052916D01*
X0056303Y0084525D02*
X0056192D01*
X0056248D02*
Y0084858D01*
X0056192Y0084803D01*
X0052139Y0084672D02*
X0052167Y0084727D01*
Y0084783D01*
X0052139Y0084838D01*
X0051972D01*
X0051944Y0084783D01*
Y0084727D01*
X0051972Y0084672D01*
X0052139D01*
X0052167Y0084616D01*
Y0084560D01*
X0052139Y0084505D01*
X0051972D01*
X0051944Y0084560D01*
Y0084616D01*
X0051972Y0084672D01*
X0051562Y0084616D02*
Y0084560D01*
X0051590Y0084505D01*
X0051701D01*
X0051729Y0084560D01*
Y0084838D01*
X0051757D02*
X0051645D01*
X0054325Y0062332D02*
X0054214D01*
X0054270D02*
Y0062666D01*
X0054214Y0062610D01*
X0056071Y0063853D02*
X0056238Y0064186D01*
X0056015D01*
X0055633Y0063964D02*
Y0063908D01*
X0055661Y0063853D01*
X0055772D01*
X0055800Y0063908D01*
Y0064186D01*
X0055828D02*
X0055716D01*
X0099634Y0081282D02*
X0099579Y0081338D01*
X0099551Y0081393D01*
Y0081504D01*
X0099579Y0081560D01*
X0099634Y0081616D01*
X0099690D01*
X0099745Y0081560D01*
X0099773Y0081504D01*
Y0081393D01*
X0099745Y0081338D01*
X0099690Y0081282D01*
X0099634D01*
X0099363D02*
X0099252D01*
X0099308D02*
Y0081616D01*
X0099252Y0081560D01*
X0099009Y0081616D02*
Y0081338D01*
X0098981Y0081282D01*
X0098814D01*
X0098786Y0081338D01*
Y0081616D01*
X0057030Y0080680D02*
Y0076780D01*
X0058030D01*
Y0080680D01*
X0057030D01*
Y0080355D02*
X0058030D01*
X0097880Y0080750D02*
X0100790D01*
X0081850Y0086160D02*
X0085850D01*
X0081850D02*
Y0083160D01*
X0097850D01*
Y0086160D01*
X0081850D01*
X0075790Y0083060D02*
X0071790D01*
X0075790D02*
Y0086060D01*
X0059790D01*
Y0083060D01*
X0075790D01*
X0091910Y0067860D02*
X0089610D01*
Y0072860D01*
X0092730D01*
Y0067860D01*
X0091910D01*
X0057280Y0071280D02*
Y0067380D01*
X0058280D01*
Y0071280D01*
X0057280D01*
Y0070955D02*
X0058280D01*
X0102140Y0058550D02*
X0093890D01*
Y0055550D01*
X0102140D01*
Y0058550D01*
X0098050Y0081000D02*
X0097800D01*
Y0076400D01*
X0100800D01*
Y0081000D01*
X0098050D01*
X0064040Y0064250D02*
X0069040D01*
Y0066000D01*
X0064040D01*
Y0064250D01*
X0089620Y0068360D02*
X0092360D01*
G54D85*
G01X0055450Y0081280D02*
Y0082480D01*
X0052790D01*
Y0081280D01*
X0055450D01*
X0055550Y0069330D02*
Y0070530D01*
X0052890D01*
Y0069330D01*
X0055550D01*
X0055450Y0078280D02*
X0052790D01*
Y0079480D01*
X0055450D01*
Y0078280D01*
Y0079780D02*
X0052790D01*
Y0080980D01*
X0055450D01*
Y0079780D01*
X0050100Y0078650D02*
Y0078500D01*
X0048600D01*
Y0082600D01*
X0050100D01*
Y0078650D01*
X0055550Y0070880D02*
Y0072080D01*
X0052890D01*
Y0070880D01*
X0055550D01*
X0052810Y0077970D02*
X0055470D01*
Y0076770D01*
X0052810D01*
Y0077970D01*
X0055550Y0072480D02*
Y0073680D01*
X0052890D01*
Y0072480D01*
X0055550D01*
X0050150Y0070050D02*
Y0069900D01*
X0048650D01*
Y0074000D01*
X0050150D01*
Y0070050D01*
X0050000Y0060850D02*
Y0060700D01*
X0048500D01*
Y0064800D01*
X0050000D01*
Y0060850D01*
X0050050Y0052500D02*
Y0052350D01*
X0048550D01*
Y0056450D01*
X0050050D01*
Y0052500D01*
X0052910Y0068980D02*
Y0067780D01*
X0055570D01*
Y0068980D01*
X0052910D01*
G54D86*
G01X0063000Y0073610D02*
Y0073310D01*
X0066440D01*
Y0074660D01*
X0063000D01*
Y0073610D01*
X0066290Y0073330D02*
Y0074660D01*
X0063090Y0079360D02*
Y0079060D01*
X0066530D01*
Y0080410D01*
X0063090D01*
Y0079360D01*
X0066380Y0079080D02*
Y0080410D01*
M02*
