*
G04 Mass Parameters ***
*
G04 Image ***
*
%INE:\MUSHTAQ PCB\SAJJAD HUSSAIN\CHRONO32C\CHRONO32C_MC_R1\MC_BOARD3-53.BOT*%
%ICAS*%
%MOIN*%
%IPPOS*%
%ASAXBY*%
G74*%FSLAN2X34Y34*%
*
G04 Aperture Definitions ***
*
%ADD10C,0.1370*%
%ADD11R,0.1000X0.0510*%
%ADD12R,0.1000X0.0350*%
%ADD13R,0.1400X0.1600*%
%ADD14R,0.0500X0.0500*%
%ADD15R,0.0500X0.0520*%
%ADD16R,0.0520X0.0500*%
%ADD17R,0.1050X0.1200*%
%ADD18R,0.0800X0.0800*%
%ADD19C,0.0700*%
%ADD20R,0.0700X0.0700*%
%ADD21C,0.0600*%
%ADD22R,0.0600X0.0600*%
%ADD23R,0.0197X0.1575*%
%ADD24O,0.1200X0.0200*%
%ADD25R,0.1200X0.0200*%
%ADD26R,0.0200X0.1200*%
%ADD27R,0.0940X0.0250*%
%ADD28R,0.1600X0.0201*%
%ADD29O,0.0240X0.1700*%
%ADD30O,0.1700X0.0240*%
%ADD31R,0.1700X0.0240*%
%ADD32R,0.0240X0.1700*%
%ADD33R,0.2000X0.0830*%
%ADD34R,0.3000X0.1500*%
%ADD35R,0.1500X0.0600*%
%ADD36C,0.0420*%
%ADD37C,0.0010*%
%ADD38C,0.0150*%
%ADD39C,0.0100*%
%ADD40C,0.0420*%
%ADD41C,0.0120*%
%ADD42C,0.0200*%
%ADD43C,0.0300*%
%ADD44C,0.0500*%
%ADD45C,0.1370*%
%ADD46R,0.0800X0.0800*%
%ADD47R,0.0520X0.0500*%
%ADD48R,0.0500X0.0520*%
%ADD49R,0.0430X0.0350*%
%ADD50C,0.0700*%
%ADD51R,0.0700X0.0700*%
%ADD52C,0.0600*%
%ADD53R,0.0600X0.0600*%
%ADD54R,0.0500X0.0500*%
%ADD55C,0.0420*%
%ADD56C,0.0420*%
*
G04 Plot Data ***
*
G54D38*
G01X0083920Y0081440D02*
X0077020D01*
G54D39*
G01X0104604Y0056962D02*
X0104771D01*
X0104812Y0056878D01*
X0104896D01*
Y0056962D02*
Y0056628D01*
X0105179D02*
X0105429D01*
X0105471Y0056712D01*
Y0056878D01*
X0105429Y0056962D01*
X0105179D01*
X0105137Y0056878D01*
Y0056795D01*
X0105471D01*
X0105712Y0056962D02*
X0105879Y0056628D01*
X0105962Y0056462D02*
X0105879Y0056628D01*
X0106046Y0056962D01*
X0106537D02*
X0106371D01*
X0106329Y0056878D01*
Y0056712D01*
X0106287Y0056628D01*
X0106579D01*
X0106621Y0056712D01*
X0106579Y0056795D01*
X0106329D01*
X0106862Y0056628D02*
X0107154D01*
Y0057128D01*
X0108158Y0056962D02*
X0108325D01*
X0108367Y0056878D01*
X0108450D01*
Y0056962D02*
Y0056628D01*
X0108733D02*
X0108983D01*
X0109025Y0056712D01*
Y0056878D01*
X0108983Y0056962D01*
X0108733D01*
X0108692Y0056878D01*
Y0056795D01*
X0109025D01*
X0109267Y0057128D02*
Y0056628D01*
X0109517D01*
X0109558Y0056712D01*
Y0056878D01*
X0109517Y0056962D01*
X0109267D01*
X0109800Y0056628D02*
X0109967D01*
X0109883D02*
Y0057128D01*
X0109967D01*
X0110542Y0056628D02*
X0110583Y0056712D01*
Y0056878D01*
X0110542Y0056962D01*
X0110292D01*
X0110250Y0056878D01*
Y0056712D01*
X0110292Y0056628D01*
X0110542D01*
X0110825Y0057045D02*
X0110867Y0057128D01*
X0111117D01*
X0111158Y0057045D01*
Y0056962D01*
X0111117Y0056878D01*
X0110867D01*
X0110825Y0056795D01*
Y0056712D01*
X0110867Y0056628D01*
X0111117D01*
X0111158Y0056712D01*
X0071680Y0059730D02*
X0072720D01*
X0075710Y0056550D02*
X0075720Y0056540D01*
Y0054440D01*
X0076700Y0059690D02*
Y0057507D01*
X0072720Y0059730D02*
Y0057600D01*
X0072657Y0057543D01*
X0076700Y0060810D02*
Y0060530D01*
X0095730Y0069740D02*
X0096620D01*
X0096740Y0069860D01*
X0097020D01*
X0095730Y0069740D02*
X0096620D01*
X0096740Y0069860D01*
X0097020D01*
X0098120Y0070720D02*
X0097770Y0071070D01*
X0096710D01*
X0098120Y0070720D02*
X0097770Y0071070D01*
X0096710D01*
X0076700Y0060530D02*
Y0060810D01*
X0081520Y0053600D02*
X0075720D01*
X0066890Y0075810D02*
X0066820Y0075880D01*
X0065880D01*
X0065720Y0075720D01*
Y0074880D01*
X0065380Y0074540D01*
X0061780D01*
Y0068980D01*
X0065490Y0077400D02*
X0065320Y0077570D01*
Y0080680D01*
X0067790Y0083150D01*
Y0084060D01*
X0064990Y0076050D02*
X0065150D01*
X0065400Y0076300D01*
X0068620D01*
X0069790Y0077470D01*
Y0082000D01*
X0062960Y0071900D02*
X0062970Y0071890D01*
Y0068720D01*
X0062370Y0068120D01*
X0061380D01*
X0061370Y0068130D01*
X0061380Y0068140D01*
X0061580D01*
X0076700Y0060810D02*
Y0060530D01*
X0095320Y0062410D02*
X0098340D01*
X0099020Y0061730D01*
Y0057550D01*
X0053570Y0084670D02*
X0053550Y0084650D01*
Y0074880D01*
X0053970Y0074460D01*
X0057720D01*
X0061780Y0068980D02*
Y0074540D01*
X0056020Y0062500D02*
Y0061850D01*
X0055830Y0061660D01*
X0054770D01*
X0054545Y0061435D01*
Y0060975D01*
X0091850Y0084160D02*
Y0080890D01*
X0091140Y0080180D01*
Y0071300D01*
X0090860Y0071020D01*
X0082160D01*
X0081430Y0070290D01*
X0076190D01*
X0076180Y0070300D01*
X0076150D01*
X0086070Y0070610D02*
X0086020Y0070660D01*
X0082460D01*
X0081490Y0069690D01*
X0064720D01*
X0089850Y0085160D02*
Y0086190D01*
X0089380Y0086660D01*
X0064680D01*
X0063720Y0085700D01*
Y0081620D01*
X0064800Y0080540D01*
Y0077790D01*
X0070790Y0084060D02*
Y0075320D01*
X0068450Y0072980D01*
X0063840D01*
X0063720Y0072860D01*
Y0071910D01*
X0063760Y0071870D01*
X0054250Y0076410D02*
Y0084340D01*
X0054570Y0084660D01*
Y0084670D01*
X0080710Y0056550D02*
Y0056720D01*
X0080200Y0057230D01*
Y0059380D01*
X0080920Y0060100D01*
X0086220D01*
X0091440Y0065320D01*
Y0079840D01*
X0091800Y0080200D01*
X0102500D01*
X0090370Y0071450D02*
X0090320D01*
X0090230Y0071360D01*
X0079580D01*
X0079000Y0070780D01*
X0078990D01*
X0079060Y0070850D01*
G54D41*
G01X0074130Y0072070D02*
X0073000D01*
X0072750Y0071820D01*
X0076700Y0057507D02*
X0076692Y0057499D01*
X0073540Y0070700D02*
X0073720Y0070880D01*
X0074610D01*
X0054545Y0060255D02*
X0053445D01*
X0057025D02*
X0056445D01*
X0056180Y0059990D01*
X0054545Y0060255D02*
X0053445D01*
X0056180Y0059990D02*
X0056445Y0060255D01*
X0057025D01*
X0054545D02*
X0053445D01*
X0079080Y0072790D02*
X0075710D01*
X0075450Y0072530D01*
Y0072070D01*
X0057020Y0062500D02*
X0057025Y0062490D01*
Y0060975D01*
X0103100Y0085360D02*
Y0081630D01*
X0094080Y0070870D02*
X0094190D01*
X0094380Y0071060D01*
X0095380D01*
X0095390Y0071070D01*
X0075450Y0072070D02*
Y0070880D01*
X0074610D02*
X0073720D01*
X0073540Y0070700D01*
X0094080Y0070090D02*
Y0070120D01*
X0094450Y0069750D01*
X0094890D01*
Y0069740D01*
G54D42*
G01X0072720Y0061350D02*
Y0060570D01*
X0077440Y0061200D02*
X0077090D01*
X0076700Y0060810D01*
X0077090Y0061200D01*
X0077440D01*
X0072720Y0060570D02*
Y0061350D01*
X0077440Y0061200D02*
X0077090D01*
X0076700Y0060810D01*
G54D40*
X0099840Y0071240D03*
X0094350Y0054260D03*
X0087000Y0068360D03*
X0088730Y0080050D03*
X0088830Y0078970D03*
X0088710Y0077990D03*
X0088630Y0074680D03*
X0088660Y0076960D03*
X0088640Y0075940D03*
X0067680Y0079190D03*
X0062050Y0059750D03*
X0064300D03*
X0066990Y0071600D03*
X0099570Y0075770D03*
X0088730Y0073580D03*
X0086420Y0071970D03*
X0052360Y0071480D03*
X0065530Y0069060D03*
X0066520D03*
X0059500Y0059750D03*
X0059990Y0072390D03*
X0069790Y0061380D03*
X0071680Y0059730D03*
X0072750Y0071820D03*
X0072840Y0075340D03*
X0083280Y0072290D03*
X0081630Y0074130D03*
X0095480Y0074640D03*
X0095470Y0073610D03*
X0051850Y0080380D03*
X0087910Y0070580D03*
X0094120Y0072360D03*
X0081650Y0079450D03*
X0072870Y0076230D03*
X0075980Y0076190D03*
X0097020Y0069860D03*
X0098120Y0070720D03*
X0095160Y0065690D03*
X0063040Y0082080D03*
X0058540Y0083700D03*
X0062800Y0079880D03*
X0060040Y0081280D03*
X0056180Y0059990D03*
X0051100Y0063970D03*
X0053445Y0060255D03*
X0063580Y0076120D03*
X0067990Y0077690D03*
X0067720Y0080190D03*
X0097570Y0075820D03*
X0096140Y0076460D03*
X0095720Y0072680D03*
X0094760Y0075900D03*
X0081520Y0053600D03*
X0053120Y0064560D03*
X0058320Y0072060D03*
X0059180Y0060790D03*
X0062290Y0060820D03*
X0065280Y0058720D03*
X0102090Y0073730D03*
X0101520Y0075130D03*
X0065480Y0071980D03*
X0061140Y0072500D03*
X0102720Y0072730D03*
X0102100Y0071720D03*
X0051780Y0068940D03*
X0070870Y0073290D03*
X0066890Y0070170D03*
X0051890Y0077360D03*
X0063470Y0061420D03*
X0066890Y0075810D03*
X0065490Y0077400D03*
X0083920Y0081440D03*
X0077020D03*
X0064990Y0076050D03*
X0069790Y0082000D03*
X0062960Y0071900D03*
X0061580Y0068140D03*
X0072720Y0061350D03*
X0077440Y0061200D03*
X0095320Y0062410D03*
X0087830Y0066590D03*
X0079080Y0072790D03*
X0059290Y0081850D03*
X0057720Y0074460D03*
X0061780Y0068980D03*
Y0074540D03*
X0076150Y0070300D03*
X0086070Y0070610D03*
X0064720Y0069690D03*
X0064800Y0077790D03*
X0103100Y0081630D03*
X0094080Y0070870D03*
X0063760Y0071870D03*
X0051320Y0061550D03*
X0054250Y0076410D03*
X0102500Y0080200D03*
X0073540Y0070700D03*
X0077320Y0065850D03*
X0094080Y0070090D03*
G54D45*
X0112600Y0049860D03*
X0043790D03*
X0043800Y0086400D03*
X0078760Y0049820D03*
X0112590Y0086410D03*
X0078750Y0083520D03*
G54D46*
X0095390Y0071070D03*
X0096710D03*
X0074130Y0072070D03*
X0075450D03*
G54D47*
X0095730Y0069740D03*
X0094890D03*
G54D48*
X0072720Y0060570D03*
Y0059730D03*
X0075720Y0053600D03*
Y0054440D03*
X0076700Y0060530D03*
Y0059690D03*
G54D49*
X0057025Y0060255D03*
X0057975Y0060645D03*
X0057025Y0060975D03*
X0054545Y0060255D03*
X0055495Y0060645D03*
X0054545Y0060975D03*
G54D50*
X0054570Y0049800D03*
X0098150Y0049770D03*
X0054570Y0053010D03*
X0098140Y0052990D03*
X0046100Y0055200D03*
Y0057200D03*
X0046150Y0063550D03*
Y0065550D03*
Y0072750D03*
Y0074750D03*
X0046100Y0081350D03*
Y0083350D03*
G54D51*
Y0053200D03*
X0046150Y0061550D03*
Y0070750D03*
X0046100Y0079350D03*
G54D52*
X0067540Y0065250D03*
X0066540D03*
X0065540D03*
X0106100Y0085360D03*
X0108050Y0079850D03*
Y0078850D03*
Y0077850D03*
Y0076850D03*
X0086850Y0085160D03*
X0087850Y0084160D03*
Y0085160D03*
X0088850Y0084160D03*
Y0085160D03*
X0089850Y0084160D03*
Y0085160D03*
X0090850Y0084160D03*
X0091850D03*
Y0085160D03*
X0092850Y0084160D03*
Y0085160D03*
X0070790Y0084060D03*
X0069790Y0085060D03*
Y0084060D03*
X0068790Y0085060D03*
Y0084060D03*
X0067790Y0085060D03*
Y0084060D03*
X0066790Y0085060D03*
X0065790D03*
Y0084060D03*
X0064790Y0085060D03*
Y0084060D03*
X0054570Y0084670D03*
X0053570D03*
X0056020Y0062500D03*
X0057020D03*
X0100020Y0056550D03*
X0099020Y0057550D03*
Y0056550D03*
X0098020Y0057550D03*
Y0056550D03*
X0097020Y0057550D03*
Y0056550D03*
X0096020Y0057550D03*
Y0056550D03*
X0071710Y0057550D03*
X0072710Y0056550D03*
X0072657Y0057543D03*
X0073710Y0056550D03*
Y0057550D03*
X0074710Y0056550D03*
Y0057550D03*
X0075710Y0056550D03*
Y0057550D03*
X0076710Y0056550D03*
X0076692Y0057499D03*
X0077710Y0056550D03*
Y0057550D03*
X0078710Y0056550D03*
Y0057550D03*
X0079710Y0056550D03*
Y0057550D03*
X0080710Y0056550D03*
Y0057550D03*
G54D53*
X0103100Y0085360D03*
X0108050Y0080850D03*
X0086850Y0084160D03*
X0090850Y0085160D03*
X0070790Y0085060D03*
X0066790Y0084060D03*
X0055570Y0084670D03*
X0055020Y0062500D03*
X0100020Y0057550D03*
X0071710Y0056550D03*
G54D54*
X0075450Y0070880D03*
X0074610D03*
G54D55*
X0080660Y0066320D03*
X0107510Y0085360D03*
G54D56*
X0090370Y0071450D03*
X0079060Y0070850D03*
M02*
