*
G04 Mass Parameters ***
*
G04 Image ***
*
%INE:\MUSHTAQ PCB\SAJJAD HUSSAIN\CHRONO32C\CHRONO32C_MC_R1\MC_BOARD3-53.FAB*%
%ICAS*%
%MOIN*%
%IPPOS*%
%ASAXBY*%
G74*%FSLAN2X34Y34*%
*
G04 Aperture Definitions ***
*
%ADD10C,0.1370*%
%ADD11R,0.1000X0.0510*%
%ADD12R,0.1000X0.0350*%
%ADD13R,0.1400X0.1600*%
%ADD14R,0.0500X0.0500*%
%ADD15R,0.0500X0.0520*%
%ADD16R,0.0520X0.0500*%
%ADD17R,0.1050X0.1200*%
%ADD18R,0.0800X0.0800*%
%ADD19C,0.0700*%
%ADD20R,0.0700X0.0700*%
%ADD21C,0.0600*%
%ADD22R,0.0600X0.0600*%
%ADD23R,0.0197X0.1575*%
%ADD24O,0.1200X0.0200*%
%ADD25R,0.1200X0.0200*%
%ADD26R,0.0200X0.1200*%
%ADD27R,0.0940X0.0250*%
%ADD28R,0.1600X0.0201*%
%ADD29O,0.0240X0.1700*%
%ADD30O,0.1700X0.0240*%
%ADD31R,0.1700X0.0240*%
%ADD32R,0.0240X0.1700*%
%ADD33R,0.2000X0.0830*%
%ADD34R,0.3000X0.1500*%
%ADD35R,0.1500X0.0600*%
%ADD36C,0.0420*%
%ADD37C,0.0010*%
%ADD38C,0.0150*%
%ADD39C,0.0100*%
%ADD40C,0.0420*%
%ADD41C,0.0120*%
%ADD42C,0.0200*%
%ADD43C,0.0300*%
%ADD44C,0.0500*%
%ADD45C,0.1370*%
%ADD46R,0.0800X0.0800*%
%ADD47R,0.0520X0.0500*%
%ADD48R,0.0500X0.0520*%
%ADD49R,0.0430X0.0350*%
%ADD50C,0.0700*%
%ADD51R,0.0700X0.0700*%
%ADD52C,0.0600*%
%ADD53R,0.0600X0.0600*%
%ADD54R,0.0500X0.0500*%
%ADD55C,0.0420*%
%ADD56C,0.0420*%
%ADD57C,0.0500*%
%ADD58C,0.0500*%
%ADD59C,0.0500*%
%ADD60R,0.1000X0.0510*%
%ADD61R,0.1000X0.0350*%
%ADD62R,0.1400X0.1600*%
%ADD63R,0.1050X0.1200*%
%ADD64C,0.0800*%
%ADD65C,0.0650*%
%ADD66R,0.0650X0.0650*%
%ADD67R,0.0197X0.1575*%
%ADD68O,0.1200X0.0200*%
%ADD69R,0.1200X0.0200*%
%ADD70R,0.0200X0.1200*%
%ADD71R,0.0940X0.0250*%
%ADD72R,0.1600X0.0201*%
%ADD73O,0.0240X0.1700*%
%ADD74O,0.1700X0.0240*%
%ADD75R,0.1700X0.0240*%
%ADD76R,0.0240X0.1700*%
%ADD77R,0.2000X0.0830*%
%ADD78R,0.3000X0.1500*%
%ADD79R,0.1500X0.0600*%
%ADD80C,0.0520*%
%ADD81C,0.0520*%
%ADD82C,0.0520*%
%ADD83C,0.0060*%
%ADD84C,0.0080*%
%ADD85C,0.0050*%
%ADD86C,0.0040*%
%ADD87C,0.0280*%
%ADD88C,0.0280*%
%ADD89C,0.0280*%
*
G04 Plot Data ***
*
G54D37*
G01X0115100Y0049700D02*
Y0088350D01*
X0042000D01*
Y0048700D01*
X0115090D01*
X0115100Y0049700D01*
G54D87*
X0080660Y0066320D03*
X0107510Y0085360D03*
G54D88*
X0087910Y0070580D03*
X0094120Y0072360D03*
X0081650Y0079450D03*
X0072870Y0076230D03*
X0075980Y0076190D03*
X0097020Y0069860D03*
X0098120Y0070720D03*
X0095160Y0065690D03*
X0063040Y0082080D03*
X0058540Y0083700D03*
X0062800Y0079880D03*
X0060040Y0081280D03*
X0056180Y0059990D03*
X0051100Y0063970D03*
X0053445Y0060255D03*
X0063580Y0076120D03*
X0067990Y0077690D03*
X0067720Y0080190D03*
X0097570Y0075820D03*
X0096140Y0076460D03*
X0095720Y0072680D03*
X0094760Y0075900D03*
X0081520Y0053600D03*
X0053120Y0064560D03*
X0058320Y0072060D03*
X0059180Y0060790D03*
X0062290Y0060820D03*
X0065280Y0058720D03*
X0102090Y0073730D03*
X0101520Y0075130D03*
X0065480Y0071980D03*
X0061140Y0072500D03*
X0102720Y0072730D03*
X0102100Y0071720D03*
X0051780Y0068940D03*
X0070870Y0073290D03*
X0066890Y0070170D03*
X0051890Y0077360D03*
X0063470Y0061420D03*
X0066890Y0075810D03*
X0065490Y0077400D03*
X0083920Y0081440D03*
X0077020D03*
X0064990Y0076050D03*
X0069790Y0082000D03*
X0062960Y0071900D03*
X0061580Y0068140D03*
X0072720Y0061350D03*
X0077440Y0061200D03*
X0095320Y0062410D03*
X0087830Y0066590D03*
X0079080Y0072790D03*
X0059290Y0081850D03*
X0057720Y0074460D03*
X0061780Y0068980D03*
Y0074540D03*
X0076150Y0070300D03*
X0086070Y0070610D03*
X0064720Y0069690D03*
X0064800Y0077790D03*
X0103100Y0081630D03*
X0094080Y0070870D03*
X0063760Y0071870D03*
X0051320Y0061550D03*
X0054250Y0076410D03*
X0102500Y0080200D03*
X0073540Y0070700D03*
X0077320Y0065850D03*
X0094080Y0070090D03*
X0090370Y0071450D03*
X0079060Y0070850D03*
G54D89*
X0099840Y0071240D03*
X0094350Y0054260D03*
X0087000Y0068360D03*
X0088730Y0080050D03*
X0088830Y0078970D03*
X0088710Y0077990D03*
X0088630Y0074680D03*
X0088660Y0076960D03*
X0088640Y0075940D03*
X0067680Y0079190D03*
X0062050Y0059750D03*
X0064300D03*
X0066990Y0071600D03*
X0099570Y0075770D03*
X0088730Y0073580D03*
X0086420Y0071970D03*
X0052360Y0071480D03*
X0065530Y0069060D03*
X0066520D03*
X0059500Y0059750D03*
X0059990Y0072390D03*
X0069790Y0061380D03*
X0071680Y0059730D03*
X0072750Y0071820D03*
X0072840Y0075340D03*
X0083280Y0072290D03*
X0081630Y0074130D03*
X0095480Y0074640D03*
X0095470Y0073610D03*
X0051850Y0080380D03*
M02*
