*
G04 Mass Parameters ***
*
G04 Image ***
*
%INE:\MUSHTAQ PCB\SAJJAD HUSSAIN\CHRONO32C\CHRONO32C_MC_R1\MC_BOARD3-53.SPT*%
%ICAS*%
%MOIN*%
%IPPOS*%
%ASAXBY*%
G74*%FSLAN2X34Y34*%
*
G04 Aperture Definitions ***
*
%ADD10C,0.1370*%
%ADD11R,0.1000X0.0510*%
%ADD12R,0.1000X0.0350*%
%ADD13R,0.1400X0.1600*%
%ADD14R,0.0500X0.0500*%
%ADD15R,0.0500X0.0520*%
%ADD16R,0.0520X0.0500*%
%ADD17R,0.1050X0.1200*%
%ADD18R,0.0800X0.0800*%
%ADD19C,0.0700*%
%ADD20R,0.0700X0.0700*%
%ADD21C,0.0600*%
%ADD22R,0.0600X0.0600*%
%ADD23R,0.0197X0.1575*%
%ADD24O,0.1200X0.0200*%
%ADD25R,0.1200X0.0200*%
%ADD26R,0.0200X0.1200*%
%ADD27R,0.0940X0.0250*%
%ADD28R,0.1600X0.0201*%
%ADD29O,0.0240X0.1700*%
%ADD30O,0.1700X0.0240*%
%ADD31R,0.1700X0.0240*%
%ADD32R,0.0240X0.1700*%
%ADD33R,0.2000X0.0830*%
%ADD34R,0.3000X0.1500*%
%ADD35R,0.1500X0.0600*%
%ADD36C,0.0420*%
%ADD37C,0.0010*%
%ADD38C,0.0150*%
%ADD39C,0.0100*%
%ADD40C,0.0420*%
%ADD41C,0.0120*%
%ADD42C,0.0200*%
%ADD43C,0.0300*%
%ADD44C,0.0500*%
%ADD45C,0.1370*%
%ADD46R,0.0800X0.0800*%
%ADD47R,0.0520X0.0500*%
%ADD48R,0.0500X0.0520*%
%ADD49R,0.0430X0.0350*%
%ADD50C,0.0700*%
%ADD51R,0.0700X0.0700*%
%ADD52C,0.0600*%
%ADD53R,0.0600X0.0600*%
%ADD54R,0.0500X0.0500*%
%ADD55C,0.0420*%
%ADD56C,0.0420*%
%ADD57C,0.0500*%
%ADD58C,0.0500*%
%ADD59C,0.0500*%
%ADD60R,0.1000X0.0510*%
%ADD61R,0.1000X0.0350*%
%ADD62R,0.1400X0.1600*%
%ADD63R,0.1050X0.1200*%
%ADD64C,0.0800*%
%ADD65C,0.0650*%
%ADD66R,0.0650X0.0650*%
%ADD67R,0.0197X0.1575*%
%ADD68O,0.1200X0.0200*%
%ADD69R,0.1200X0.0200*%
%ADD70R,0.0200X0.1200*%
%ADD71R,0.0940X0.0250*%
%ADD72R,0.1600X0.0201*%
%ADD73O,0.0240X0.1700*%
%ADD74O,0.1700X0.0240*%
%ADD75R,0.1700X0.0240*%
%ADD76R,0.0240X0.1700*%
%ADD77R,0.2000X0.0830*%
%ADD78R,0.3000X0.1500*%
%ADD79R,0.1500X0.0600*%
%ADD80C,0.0520*%
%ADD81C,0.0520*%
%ADD82C,0.0520*%
*
G04 Plot Data ***
*
G54D45*
X0112600Y0049860D03*
X0043790D03*
X0043800Y0086400D03*
X0078760Y0049820D03*
X0112590Y0086410D03*
X0078750Y0083520D03*
G54D46*
X0054780Y0078880D03*
X0053460D03*
X0053480Y0077370D03*
X0054800D03*
X0054780Y0081880D03*
X0053460D03*
X0054780Y0080380D03*
X0053460D03*
X0053580Y0068380D03*
X0054900D03*
X0054880Y0071480D03*
X0053560D03*
X0054880Y0069930D03*
X0053560D03*
X0054880Y0073080D03*
X0053560D03*
G54D47*
X0073920Y0075870D03*
X0074760D03*
X0060830Y0071630D03*
X0059990D03*
X0096610Y0072390D03*
X0097450D03*
X0071840Y0075980D03*
X0071000D03*
X0067150Y0077480D03*
X0066310D03*
X0087920Y0071380D03*
X0087080D03*
G54D48*
X0061280Y0060590D03*
Y0059750D03*
X0058540Y0082350D03*
Y0081510D03*
X0087830Y0067520D03*
Y0068360D03*
X0060320Y0060590D03*
Y0059750D03*
X0081650Y0078400D03*
Y0077560D03*
X0066220Y0070760D03*
Y0071600D03*
G54D54*
X0060920Y0079540D03*
X0060080D03*
X0056740Y0075570D03*
X0055900D03*
X0060930Y0078640D03*
X0060090D03*
X0060910Y0077740D03*
X0060070D03*
X0055040Y0075580D03*
X0054200D03*
X0060090Y0080450D03*
X0060930D03*
X0060070Y0076840D03*
X0060910D03*
X0060070Y0075940D03*
X0060910D03*
X0060830Y0069830D03*
X0059990D03*
X0056990Y0066710D03*
X0056150D03*
X0060830Y0068130D03*
X0059990D03*
X0060830Y0067230D03*
X0059990D03*
X0054570Y0066630D03*
Y0065790D03*
X0059980Y0070730D03*
X0060820D03*
X0060030Y0066380D03*
X0060870D03*
X0059980Y0068980D03*
X0060820D03*
X0103850Y0077860D03*
X0104690D03*
X0103850Y0078850D03*
X0104690D03*
X0103850Y0079860D03*
X0104690D03*
X0103870Y0076850D03*
X0104710D03*
X0064730Y0070710D03*
Y0071550D03*
X0066540Y0068190D03*
Y0067350D03*
X0065530Y0068190D03*
Y0067350D03*
X0052320Y0063720D03*
Y0064560D03*
X0087910Y0072470D03*
X0087070D03*
X0087940Y0073580D03*
X0087100D03*
X0087930Y0074680D03*
X0087090D03*
X0087910Y0075940D03*
X0087070D03*
X0087930Y0076960D03*
X0087090D03*
X0087910Y0077990D03*
X0087070D03*
X0087930Y0079050D03*
X0087090D03*
X0087940Y0080050D03*
X0087100D03*
X0096010Y0054260D03*
X0095170D03*
X0097450Y0073460D03*
X0096610D03*
X0097430Y0074640D03*
X0096590D03*
X0052320Y0061850D03*
Y0062690D03*
X0102320Y0075130D03*
Y0075970D03*
X0063470Y0060590D03*
Y0059750D03*
X0078960Y0065850D03*
X0078120D03*
X0080590Y0065430D03*
X0081430D03*
G54D60*
X0067520Y0061930D03*
G54D61*
X0068770Y0061380D03*
Y0062480D03*
G54D62*
X0109400Y0065690D03*
X0096800D03*
G54D63*
X0049250Y0061550D03*
Y0064000D03*
X0049300Y0053200D03*
Y0055650D03*
X0049400Y0070750D03*
Y0073200D03*
X0049350Y0079350D03*
Y0081800D03*
G54D68*
X0093010Y0068860D03*
Y0069360D03*
Y0069860D03*
Y0070360D03*
Y0070860D03*
Y0071360D03*
Y0071860D03*
Y0072360D03*
X0089320D03*
Y0071860D03*
Y0071360D03*
Y0070860D03*
Y0070360D03*
Y0069860D03*
Y0069360D03*
Y0068860D03*
Y0068360D03*
G54D69*
X0100770Y0072030D03*
Y0072530D03*
Y0073030D03*
Y0073530D03*
X0098810D03*
Y0073030D03*
Y0072530D03*
Y0072030D03*
X0093010Y0068360D03*
G54D70*
X0066220Y0074970D03*
X0065720D03*
X0065220D03*
X0064720D03*
X0064220D03*
X0063720D03*
X0063220D03*
X0066220Y0073030D03*
X0065720D03*
X0065220D03*
X0064720D03*
X0064220D03*
X0063720D03*
X0063220D03*
X0066310Y0080720D03*
X0065810D03*
X0065310D03*
X0064810D03*
X0064310D03*
X0063810D03*
X0063310D03*
X0066310Y0078780D03*
X0065810D03*
X0065310D03*
X0064810D03*
X0064310D03*
X0063810D03*
X0063310D03*
G54D71*
X0056530Y0080480D03*
Y0079980D03*
Y0079480D03*
Y0078980D03*
Y0078480D03*
Y0077980D03*
Y0077480D03*
Y0076980D03*
X0058530D03*
Y0077480D03*
Y0077980D03*
Y0078480D03*
Y0078980D03*
Y0079480D03*
Y0079980D03*
Y0080480D03*
X0056780Y0071080D03*
Y0070580D03*
Y0070080D03*
Y0069580D03*
Y0069080D03*
Y0068580D03*
Y0068080D03*
Y0067580D03*
X0058780D03*
Y0068080D03*
Y0068580D03*
Y0069080D03*
Y0069580D03*
Y0070080D03*
Y0070580D03*
Y0071080D03*
G54D72*
X0097550Y0080700D03*
Y0080200D03*
Y0079700D03*
Y0079200D03*
Y0078700D03*
Y0078200D03*
Y0077700D03*
Y0077200D03*
Y0076700D03*
X0101140D03*
Y0077200D03*
Y0077700D03*
Y0078200D03*
Y0078700D03*
Y0079200D03*
Y0079700D03*
Y0080200D03*
Y0080700D03*
G54D73*
X0080660Y0075460D03*
X0080160D03*
X0079660D03*
X0079160D03*
X0078660D03*
Y0068120D03*
X0079160D03*
X0080160D03*
X0080660D03*
X0081160D03*
X0081660D03*
X0082160D03*
X0082660D03*
X0083160D03*
X0083660D03*
Y0075460D03*
X0083160D03*
X0082660D03*
X0082160D03*
X0081660D03*
G54D74*
X0077490Y0074290D03*
Y0073790D03*
Y0073290D03*
Y0072290D03*
Y0071790D03*
Y0071290D03*
Y0070790D03*
Y0070290D03*
Y0069790D03*
Y0069290D03*
X0084830D03*
Y0070290D03*
Y0070790D03*
Y0071290D03*
Y0071790D03*
Y0072290D03*
Y0072790D03*
Y0073290D03*
Y0073790D03*
Y0074290D03*
G54D75*
X0077490Y0072790D03*
X0084830Y0069790D03*
G54D76*
X0081160Y0075460D03*
X0079660Y0068120D03*
G54D78*
X0074370Y0078070D03*
G54D79*
X0071370Y0078560D03*
Y0077560D03*
M02*
