*
G04 Mass Parameters ***
*
G04 Image ***
*
%INTDC_16SPB.GBR*%
%ICAS*%
%MOIN*%
%IPPOS*%
%ASAXBY*%
G74*%FSLAN2X34Y34*%
*
G04 Aperture Definitions ***
*
%ADD10C,0.2000*%
%ADD11C,0.5118*%
%ADD12R,0.0800X0.0800*%
%ADD13R,0.1050X0.1200*%
%ADD14R,0.0500X0.0500*%
%ADD15R,0.0790X0.0790*%
%ADD16R,0.0600X0.0800*%
%ADD17C,0.0750*%
%ADD18C,0.0700*%
%ADD19R,0.0700X0.0700*%
%ADD20C,0.0350*%
%ADD21R,0.0350X0.0350*%
%ADD22C,0.0650*%
%ADD23R,0.0600X0.0600*%
%ADD24O,0.0500X0.1500*%
%ADD25R,0.0500X0.1500*%
%ADD26C,0.0920*%
%ADD27C,0.0580*%
%ADD28C,0.0800*%
%ADD29R,0.0520X0.0500*%
%ADD30O,0.0700X0.0110*%
%ADD31R,0.0700X0.0110*%
%ADD32O,0.0110X0.0700*%
%ADD33R,0.0110X0.0700*%
%ADD34O,0.0250X0.0940*%
%ADD35R,0.0250X0.0940*%
%ADD36C,0.0600*%
%ADD37O,0.0860X0.0250*%
%ADD38R,0.0860X0.0250*%
%ADD39R,0.0866X0.1023*%
%ADD40R,0.0580X0.0580*%
%ADD41C,0.0220*%
%ADD42C,0.0300*%
%ADD43C,0.0160*%
%ADD44C,0.0080*%
%ADD45C,0.0120*%
%ADD46C,0.0220*%
%ADD47C,0.0100*%
%ADD48C,0.0150*%
%ADD49C,0.0200*%
%ADD50C,0.0500*%
%ADD51C,0.0400*%
%ADD52C,0.0220*%
%ADD53C,0.0060*%
%ADD54C,0.2000*%
%ADD55C,0.5118*%
%ADD56R,0.0800X0.0800*%
%ADD57R,0.1200X0.1050*%
%ADD58R,0.0500X0.0500*%
%ADD59R,0.0600X0.0600*%
%ADD60C,0.0750*%
%ADD61C,0.0700*%
%ADD62R,0.0700X0.0700*%
%ADD63C,0.0350*%
%ADD64R,0.0350X0.0350*%
%ADD65C,0.0650*%
%ADD66C,0.0920*%
%ADD67C,0.0580*%
%ADD68C,0.0800*%
%ADD69O,0.0650X0.0160*%
%ADD70R,0.0650X0.0160*%
%ADD71O,0.0900X0.0160*%
%ADD72R,0.0900X0.0160*%
%ADD73C,0.0600*%
%ADD74R,0.0580X0.0580*%
%ADD75C,0.0220*%
%ADD76C,0.0220*%
%ADD77C,0.0250*%
%ADD78C,0.0010*%
%ADD79C,0.0500*%
%ADD80C,0.0500*%
%ADD81R,0.1050X0.1200*%
%ADD82R,0.0790X0.0790*%
%ADD83R,0.0600X0.0800*%
%ADD84C,0.0370*%
%ADD85R,0.0370X0.0370*%
%ADD86R,0.0650X0.0650*%
%ADD87O,0.0500X0.1500*%
%ADD88R,0.0500X0.1500*%
%ADD89C,0.0620*%
%ADD90C,0.0900*%
%ADD91R,0.0520X0.0500*%
%ADD92O,0.0700X0.0110*%
%ADD93R,0.0700X0.0110*%
%ADD94O,0.0110X0.0700*%
%ADD95R,0.0110X0.0700*%
%ADD96O,0.0250X0.0940*%
%ADD97R,0.0250X0.0940*%
%ADD98O,0.0860X0.0250*%
%ADD99R,0.0860X0.0250*%
%ADD100R,0.0945X0.1102*%
%ADD101C,0.0550*%
%ADD102C,0.0550*%
*
G04 Plot Data ***
*
G54D54*
X0126550Y0064140D03*
X0080370D03*
X0127420Y0003940D03*
X0078920D03*
X0040110D03*
X0042100Y0064140D03*
X0084310D03*
X0088260D03*
X0164510Y0034010D03*
X0164550Y0064130D03*
X0004540Y0034020D03*
Y0064130D03*
G54D56*
X0153950Y0064870D03*
X0149970Y0044360D03*
X0151290D03*
X0139170Y0038370D03*
X0137850D03*
X0154070Y0052850D03*
X0155390D03*
X0041940Y0037240D03*
Y0035920D03*
X0043550Y0036270D03*
Y0034950D03*
X0048280Y0036740D03*
Y0035420D03*
X0120160Y0035800D03*
Y0034480D03*
X0126490Y0035310D03*
Y0033990D03*
X0121690Y0034990D03*
Y0033670D03*
G54D57*
X0154070Y0054580D03*
X0156520D03*
X0153950Y0056700D03*
X0156400D03*
G54D58*
X0119400Y0054850D03*
Y0054010D03*
X0118420Y0056230D03*
Y0055390D03*
X0117400Y0056200D03*
Y0055360D03*
X0116420Y0056190D03*
Y0055350D03*
X0048510Y0045750D03*
X0047670D03*
X0048520Y0046640D03*
X0047680D03*
X0125670Y0059560D03*
Y0058720D03*
X0126640Y0059550D03*
Y0058710D03*
X0127650Y0059560D03*
Y0058720D03*
X0128660Y0059550D03*
Y0058710D03*
X0049920Y0057940D03*
Y0057100D03*
X0050900Y0057950D03*
Y0057110D03*
X0051920Y0057950D03*
Y0057110D03*
X0052910Y0057950D03*
Y0057110D03*
X0123690Y0045900D03*
X0122850D03*
X0123680Y0046760D03*
X0122840D03*
X0113750Y0003900D03*
X0112910D03*
X0104000Y0003850D03*
X0103160D03*
X0094320Y0003800D03*
X0093480D03*
X0084570Y0003770D03*
X0083730D03*
X0123380Y0003950D03*
X0122540D03*
X0133040Y0003850D03*
X0132200D03*
X0142800D03*
X0141960D03*
X0152410Y0003900D03*
X0151570D03*
X0163550Y0003770D03*
X0162710D03*
X0074980Y0003690D03*
X0074140D03*
X0065210Y0003850D03*
X0064370D03*
X0055480Y0003800D03*
X0054640D03*
X0045800D03*
X0044960D03*
X0007080Y0003850D03*
X0006240D03*
X0016700Y0003800D03*
X0015860D03*
X0036100D03*
X0035260D03*
X0026400Y0003750D03*
X0025560D03*
X0050700Y0048500D03*
X0049860D03*
X0040490Y0041430D03*
X0041330D03*
X0040670Y0042890D03*
X0041510D03*
X0040630Y0046160D03*
X0041470D03*
X0040720Y0048910D03*
X0041560D03*
X0040670Y0043800D03*
X0041510D03*
X0040620Y0045270D03*
X0041460D03*
X0040710Y0048030D03*
X0041550D03*
X0043990Y0051320D03*
Y0050480D03*
X0046180Y0051490D03*
Y0050650D03*
X0047420Y0051370D03*
Y0050530D03*
X0040670Y0051430D03*
Y0050590D03*
X0043040Y0051307D03*
Y0050467D03*
X0045290Y0051490D03*
Y0050650D03*
X0048340Y0051360D03*
Y0050520D03*
X0050710Y0051670D03*
Y0050830D03*
X0050720Y0049540D03*
X0049880D03*
X0050680Y0046860D03*
X0049840D03*
X0050670Y0043670D03*
X0049830D03*
X0050450Y0041870D03*
Y0042710D03*
X0048870Y0041610D03*
Y0042450D03*
X0045590Y0041410D03*
Y0042250D03*
X0042840Y0041500D03*
Y0042340D03*
X0050670Y0045830D03*
X0049830D03*
X0050670Y0044660D03*
X0049830D03*
X0047960Y0041580D03*
Y0042420D03*
X0046480Y0041400D03*
Y0042240D03*
X0043710Y0041500D03*
Y0042340D03*
X0043350Y0047720D03*
X0042510D03*
X0115780Y0044220D03*
X0116620D03*
X0115550Y0046750D03*
X0116390D03*
X0115710Y0045620D03*
X0116550D03*
X0125720Y0051640D03*
Y0050800D03*
X0125700Y0041430D03*
X0124860D03*
X0115520D03*
X0116360D03*
X0115860Y0043290D03*
X0116700D03*
X0115570Y0049590D03*
X0116410D03*
X0115670Y0051630D03*
Y0050790D03*
X0117310Y0051640D03*
Y0050800D03*
X0120240Y0051500D03*
Y0050660D03*
X0125730Y0049860D03*
X0124890D03*
X0125860Y0047010D03*
X0125020D03*
X0125850Y0043220D03*
X0125010D03*
X0123730Y0051500D03*
Y0050660D03*
X0123640Y0041600D03*
Y0042440D03*
X0120250Y0041410D03*
Y0042250D03*
X0117540Y0041480D03*
Y0042320D03*
X0118460Y0041480D03*
Y0042320D03*
X0121150Y0041350D03*
Y0042190D03*
X0122670Y0041590D03*
Y0042430D03*
X0122790Y0051500D03*
Y0050660D03*
X0125850Y0044130D03*
X0125010D03*
X0125750Y0045880D03*
X0124910D03*
X0125730Y0048910D03*
X0124890D03*
X0121180Y0051520D03*
Y0050680D03*
X0118230Y0051630D03*
Y0050790D03*
X0115560Y0048720D03*
X0116400D03*
X0118400Y0047970D03*
X0117560D03*
X0149970Y0043060D03*
X0150810D03*
X0139170Y0039730D03*
X0138330D03*
G54D59*
X0053310Y0049360D03*
Y0048060D03*
X0048100Y0039000D03*
X0049400D03*
X0038130Y0045220D03*
Y0043920D03*
X0043030Y0053930D03*
X0041730D03*
X0053400Y0045790D03*
Y0044490D03*
X0043030Y0038980D03*
X0041730D03*
X0038090Y0048720D03*
Y0047420D03*
X0047400Y0053920D03*
X0046100D03*
X0121370Y0038950D03*
X0120070D03*
X0128150Y0048950D03*
Y0047650D03*
X0113120Y0045770D03*
Y0044470D03*
X0118230Y0054010D03*
X0116930D03*
X0118030Y0038690D03*
Y0037390D03*
X0128280Y0043800D03*
Y0045100D03*
X0113090Y0049280D03*
Y0047980D03*
X0123250Y0054370D03*
X0121950D03*
G54D65*
X0100730Y0064800D03*
X0101730Y0063800D03*
Y0064800D03*
X0102730Y0063800D03*
Y0064800D03*
X0103730Y0063800D03*
Y0064800D03*
X0104730Y0063800D03*
X0105730D03*
Y0064800D03*
X0106730Y0063800D03*
Y0064800D03*
X0033570Y0050380D03*
X0102400Y0050030D03*
G54D68*
X0155950Y0064870D03*
X0157950D03*
G54D69*
X0046860Y0036990D03*
Y0036740D03*
Y0036490D03*
X0044910D03*
Y0036740D03*
Y0036990D03*
Y0037240D03*
X0124970Y0035550D03*
Y0035300D03*
Y0035050D03*
X0123020D03*
Y0035300D03*
Y0035550D03*
Y0035800D03*
G54D70*
X0046860Y0037240D03*
X0124970Y0035800D03*
G54D71*
X0046645Y0047725D03*
Y0047475D03*
Y0047225D03*
Y0046975D03*
Y0046725D03*
Y0046475D03*
Y0046225D03*
Y0045975D03*
Y0045725D03*
X0044445D03*
Y0045975D03*
Y0046225D03*
Y0046475D03*
Y0046725D03*
Y0046975D03*
Y0047225D03*
Y0047475D03*
Y0047725D03*
Y0047975D03*
X0121630Y0047720D03*
Y0047470D03*
Y0047220D03*
Y0046970D03*
Y0046720D03*
Y0046470D03*
Y0046220D03*
Y0045970D03*
Y0045720D03*
X0119430D03*
Y0045970D03*
Y0046220D03*
Y0046470D03*
Y0046720D03*
Y0046970D03*
Y0047220D03*
Y0047470D03*
Y0047720D03*
Y0047970D03*
G54D72*
X0046645Y0047975D03*
X0121630Y0047970D03*
G54D86*
X0100730Y0063800D03*
X0104730Y0064800D03*
X0006240Y0004850D03*
X0044970D03*
X0015870D03*
X0054640D03*
X0025570D03*
X0064370D03*
X0035270D03*
X0074140D03*
X0122540D03*
X0083730D03*
X0132210D03*
X0093480D03*
X0141970D03*
X0103170D03*
X0151580D03*
X0112920D03*
X0162720D03*
X0033570Y0049380D03*
X0102400Y0049030D03*
G54D90*
X0076500Y0030000D03*
X0079850D03*
X0077000Y0036050D03*
X0004000Y0043390D03*
X0162000Y0055400D03*
X0107620Y0053670D03*
X0004000Y0046400D03*
X0060140Y0049740D03*
X0092400Y0052500D03*
X0162010Y0053380D03*
X0011810Y0062500D03*
X0162000Y0057400D03*
X0013270Y0067010D03*
X0162000Y0059330D03*
X0062450Y0052790D03*
X0133780Y0062280D03*
X0077000Y0038950D03*
M02*
