*
G04 Mass Parameters ***
*
G04 Image ***
*
%INTDC_16SPT.GBR*%
%ICAS*%
%MOIN*%
%IPPOS*%
%ASAXBY*%
G74*%FSLAN2X34Y34*%
*
G04 Aperture Definitions ***
*
%ADD10C,0.2000*%
%ADD11C,0.5118*%
%ADD12R,0.0800X0.0800*%
%ADD13R,0.1050X0.1200*%
%ADD14R,0.0500X0.0500*%
%ADD15R,0.0790X0.0790*%
%ADD16R,0.0600X0.0800*%
%ADD17C,0.0750*%
%ADD18C,0.0700*%
%ADD19R,0.0700X0.0700*%
%ADD20C,0.0350*%
%ADD21R,0.0350X0.0350*%
%ADD22C,0.0650*%
%ADD23R,0.0600X0.0600*%
%ADD24O,0.0500X0.1500*%
%ADD25R,0.0500X0.1500*%
%ADD26C,0.0920*%
%ADD27C,0.0580*%
%ADD28C,0.0800*%
%ADD29R,0.0520X0.0500*%
%ADD30O,0.0700X0.0110*%
%ADD31R,0.0700X0.0110*%
%ADD32O,0.0110X0.0700*%
%ADD33R,0.0110X0.0700*%
%ADD34O,0.0250X0.0940*%
%ADD35R,0.0250X0.0940*%
%ADD36C,0.0600*%
%ADD37O,0.0860X0.0250*%
%ADD38R,0.0860X0.0250*%
%ADD39R,0.0866X0.1023*%
%ADD40R,0.0580X0.0580*%
%ADD41C,0.0220*%
%ADD42C,0.0300*%
%ADD43C,0.0160*%
%ADD44C,0.0080*%
%ADD45C,0.0120*%
%ADD46C,0.0220*%
%ADD47C,0.0100*%
%ADD48C,0.0150*%
%ADD49C,0.0200*%
%ADD50C,0.0500*%
%ADD51C,0.0400*%
%ADD52C,0.0220*%
%ADD53C,0.0060*%
%ADD54C,0.2000*%
%ADD55C,0.5118*%
%ADD56R,0.0800X0.0800*%
%ADD57R,0.1200X0.1050*%
%ADD58R,0.0500X0.0500*%
%ADD59R,0.0600X0.0600*%
%ADD60C,0.0750*%
%ADD61C,0.0700*%
%ADD62R,0.0700X0.0700*%
%ADD63C,0.0350*%
%ADD64R,0.0350X0.0350*%
%ADD65C,0.0650*%
%ADD66C,0.0920*%
%ADD67C,0.0580*%
%ADD68C,0.0800*%
%ADD69O,0.0650X0.0160*%
%ADD70R,0.0650X0.0160*%
%ADD71O,0.0900X0.0160*%
%ADD72R,0.0900X0.0160*%
%ADD73C,0.0600*%
%ADD74R,0.0580X0.0580*%
%ADD75C,0.0220*%
%ADD76C,0.0220*%
%ADD77C,0.0250*%
%ADD78C,0.0010*%
%ADD79C,0.0500*%
%ADD80C,0.0500*%
%ADD81R,0.1050X0.1200*%
%ADD82R,0.0790X0.0790*%
%ADD83R,0.0600X0.0800*%
%ADD84C,0.0370*%
%ADD85R,0.0370X0.0370*%
%ADD86R,0.0650X0.0650*%
%ADD87O,0.0500X0.1500*%
%ADD88R,0.0500X0.1500*%
%ADD89C,0.0620*%
%ADD90C,0.0900*%
%ADD91R,0.0520X0.0500*%
%ADD92O,0.0700X0.0110*%
%ADD93R,0.0700X0.0110*%
%ADD94O,0.0110X0.0700*%
%ADD95R,0.0110X0.0700*%
%ADD96O,0.0250X0.0940*%
%ADD97R,0.0250X0.0940*%
%ADD98O,0.0860X0.0250*%
%ADD99R,0.0860X0.0250*%
%ADD100R,0.0945X0.1102*%
%ADD101C,0.0550*%
%ADD102C,0.0550*%
*
G04 Plot Data ***
*
G54D54*
X0126550Y0064140D03*
X0080370D03*
X0127420Y0003940D03*
X0078920D03*
X0040110D03*
X0042100Y0064140D03*
X0084310D03*
X0088260D03*
X0164510Y0034010D03*
X0164550Y0064130D03*
X0004540Y0034020D03*
Y0064130D03*
G54D56*
X0153950Y0064870D03*
X0159080Y0024890D03*
Y0023570D03*
X0002570Y0024960D03*
Y0023640D03*
X0012170Y0024960D03*
Y0023640D03*
X0021810Y0024960D03*
Y0023640D03*
X0031550Y0024980D03*
Y0023660D03*
X0041230Y0024940D03*
Y0023620D03*
X0050730Y0024960D03*
Y0023640D03*
X0060440Y0024940D03*
Y0023620D03*
X0070410Y0024930D03*
Y0023610D03*
X0079640Y0024970D03*
Y0023650D03*
X0089720Y0024950D03*
Y0023630D03*
X0099230Y0024950D03*
Y0023630D03*
X0109120Y0024960D03*
Y0023640D03*
X0118680Y0024950D03*
Y0023630D03*
X0128380Y0024960D03*
Y0023640D03*
X0137920Y0024950D03*
Y0023630D03*
X0148170Y0024930D03*
Y0023610D03*
X0150570Y0059010D03*
X0151890D03*
G54D58*
X0154540Y0035250D03*
X0153700D03*
X0048410Y0054880D03*
Y0054040D03*
X0046600Y0054860D03*
Y0054020D03*
X0133590Y0050500D03*
X0134430D03*
X0047510Y0054880D03*
Y0054040D03*
X0038340Y0043000D03*
X0037500D03*
X0111120Y0043020D03*
Y0042180D03*
X0123990Y0055140D03*
Y0054300D03*
X0121340Y0055100D03*
Y0054260D03*
X0123030Y0055160D03*
Y0054320D03*
X0122170Y0054300D03*
Y0055140D03*
X0120000Y0054050D03*
Y0054890D03*
X0035220Y0030550D03*
Y0029710D03*
X0025570Y0030550D03*
Y0029710D03*
X0015920Y0030550D03*
Y0029710D03*
X0006290Y0030550D03*
Y0029710D03*
X0044970Y0030550D03*
Y0029710D03*
X0054620Y0030550D03*
Y0029710D03*
X0064320Y0030550D03*
Y0029710D03*
X0074120Y0030550D03*
Y0029710D03*
X0112920Y0030550D03*
Y0029710D03*
X0103170Y0030550D03*
Y0029710D03*
X0093520Y0030550D03*
Y0029710D03*
X0085890Y0028640D03*
X0085050D03*
X0122520Y0030550D03*
Y0029710D03*
X0132170Y0030550D03*
Y0029710D03*
X0141970Y0030550D03*
Y0029710D03*
X0151590Y0030550D03*
Y0029710D03*
X0030440Y0042510D03*
X0029600D03*
X0144520Y0053820D03*
Y0052980D03*
X0129990Y0046750D03*
X0130830D03*
X0111740Y0044180D03*
X0110900D03*
X0006240Y0021630D03*
Y0020790D03*
X0044950Y0021620D03*
Y0020780D03*
X0007080Y0006950D03*
X0006240D03*
Y0011790D03*
X0007080D03*
X0006240Y0019370D03*
X0007080D03*
X0045790Y0006950D03*
X0044950D03*
Y0011780D03*
X0045790D03*
X0044950Y0019420D03*
X0045790D03*
X0006240Y0010160D03*
Y0009320D03*
X0044950Y0010170D03*
Y0009330D03*
X0015910Y0021630D03*
Y0020790D03*
X0054630Y0021610D03*
Y0020770D03*
X0016750Y0006950D03*
X0015910D03*
Y0011780D03*
X0016750D03*
X0015910Y0019370D03*
X0016750D03*
X0055470Y0007000D03*
X0054630D03*
Y0011780D03*
X0055470D03*
X0054630Y0019380D03*
X0055470D03*
X0015910Y0010180D03*
Y0009340D03*
X0054630Y0010170D03*
Y0009330D03*
X0025570Y0021690D03*
Y0020850D03*
X0064330Y0021650D03*
Y0020810D03*
X0026400Y0006900D03*
X0025560D03*
X0025590Y0011970D03*
X0026430D03*
X0025580Y0019440D03*
X0026420D03*
X0065180Y0007000D03*
X0064340D03*
Y0011790D03*
X0065180D03*
X0064330Y0019400D03*
X0065170D03*
X0025580Y0010240D03*
Y0009400D03*
X0064340Y0010190D03*
Y0009350D03*
X0035240Y0021630D03*
Y0020790D03*
X0074140Y0021640D03*
Y0020800D03*
X0036080Y0006950D03*
X0035240D03*
Y0011780D03*
X0036080D03*
X0035240Y0019440D03*
X0036080D03*
X0074980Y0006950D03*
X0074140D03*
Y0011890D03*
X0074980D03*
X0074140Y0019380D03*
X0074980D03*
X0035240Y0010200D03*
Y0009360D03*
X0074140Y0010170D03*
Y0009330D03*
X0122530Y0021590D03*
Y0020750D03*
X0123380Y0007000D03*
X0122540D03*
X0122530Y0011840D03*
X0123370D03*
X0122520Y0019540D03*
X0123360D03*
X0122540Y0010160D03*
Y0009320D03*
X0083730Y0021630D03*
Y0020790D03*
X0132190Y0021620D03*
Y0020780D03*
X0083730Y0011780D03*
X0084570D03*
Y0006950D03*
X0083730D03*
Y0019440D03*
X0084570D03*
X0133040Y0006950D03*
X0132200D03*
Y0011750D03*
X0133040D03*
X0132200Y0019410D03*
X0133040D03*
X0083730Y0010180D03*
Y0009340D03*
X0132200Y0010180D03*
Y0009340D03*
X0093500Y0021630D03*
Y0020790D03*
X0141950Y0021620D03*
Y0020780D03*
X0094320Y0006950D03*
X0093480D03*
X0093500Y0011780D03*
X0094340D03*
X0093500Y0019320D03*
X0094340D03*
X0141970Y0011780D03*
X0142810D03*
X0142800Y0006950D03*
X0141960D03*
X0141950Y0019400D03*
X0142790D03*
X0093500Y0010170D03*
Y0009330D03*
X0141970Y0010150D03*
Y0009310D03*
X0103160Y0021640D03*
Y0020800D03*
X0151580Y0021730D03*
Y0020890D03*
X0103160Y0011760D03*
X0104000D03*
X0103160Y0019430D03*
X0104000D03*
Y0006950D03*
X0103160D03*
X0152420D03*
X0151580D03*
Y0011760D03*
X0152420D03*
X0151580Y0019400D03*
X0152420D03*
X0103160Y0010210D03*
Y0009370D03*
X0151580Y0010160D03*
Y0009320D03*
X0112920Y0021620D03*
Y0020780D03*
X0113760Y0006960D03*
X0112920D03*
Y0011930D03*
X0113760D03*
X0162790Y0021590D03*
Y0020750D03*
X0112930Y0019390D03*
X0113770D03*
X0162760Y0030920D03*
Y0030080D03*
X0112920Y0010210D03*
Y0009370D03*
X0163600Y0006950D03*
X0162760D03*
X0162770Y0011750D03*
X0163610D03*
X0162770Y0019350D03*
X0163610D03*
X0162770Y0010150D03*
Y0009310D03*
X0130710Y0044990D03*
X0129870D03*
X0053800Y0051450D03*
X0054640D03*
X0103780Y0041150D03*
Y0040310D03*
X0113340Y0047350D03*
X0112500D03*
X0136140Y0049350D03*
X0135300D03*
X0157950Y0057200D03*
Y0056360D03*
X0127890Y0051470D03*
X0128730D03*
X0145990Y0057550D03*
Y0056710D03*
X0003770Y0024950D03*
Y0024110D03*
X0004800Y0024120D03*
Y0024960D03*
X0013370Y0024950D03*
Y0024110D03*
X0014430D03*
Y0024950D03*
X0022970Y0024960D03*
Y0024120D03*
X0023980Y0024150D03*
Y0024990D03*
X0032790D03*
Y0024150D03*
X0033790D03*
Y0024990D03*
X0043430Y0024090D03*
Y0024930D03*
X0052940Y0024110D03*
Y0024950D03*
X0062730Y0024100D03*
Y0024940D03*
X0072570Y0024110D03*
Y0024950D03*
X0081980Y0024140D03*
Y0024980D03*
X0092080Y0024110D03*
Y0024950D03*
X0101650Y0024110D03*
Y0024950D03*
X0111350Y0024120D03*
Y0024960D03*
X0120930Y0024140D03*
Y0024980D03*
X0130590Y0024130D03*
Y0024970D03*
X0140440Y0024100D03*
Y0024940D03*
X0030820Y0040070D03*
Y0040910D03*
X0142330Y0055830D03*
X0143170D03*
X0106650Y0039200D03*
X0105810D03*
X0028600Y0043350D03*
Y0042510D03*
X0029860Y0040070D03*
Y0040910D03*
X0143670Y0051930D03*
X0144510D03*
X0143170Y0054930D03*
X0142330D03*
X0102940Y0038060D03*
X0103780D03*
X0106630Y0038190D03*
X0105790D03*
X0033400Y0028450D03*
X0032560D03*
X0023790Y0028410D03*
X0022950D03*
X0014280Y0028390D03*
X0013440D03*
X0004530Y0027790D03*
X0003690D03*
X0043390Y0027920D03*
X0042550D03*
X0052840Y0028190D03*
X0052000D03*
X0062140Y0027830D03*
X0061300D03*
X0072320Y0027780D03*
X0071480D03*
X0081960Y0028100D03*
X0081120D03*
X0091700Y0027970D03*
X0090860D03*
X0101540Y0028150D03*
X0100700D03*
X0111110Y0028390D03*
X0110270D03*
X0120890Y0028260D03*
X0120050D03*
X0161380Y0024050D03*
Y0024890D03*
X0150300Y0024110D03*
Y0024950D03*
X0042450Y0024930D03*
Y0024090D03*
X0051920Y0024960D03*
Y0024120D03*
X0061650Y0024940D03*
Y0024100D03*
X0071590Y0024940D03*
Y0024100D03*
X0130340Y0028070D03*
X0129500D03*
X0100550Y0024950D03*
Y0024110D03*
X0110360Y0024960D03*
Y0024120D03*
X0161070Y0027980D03*
X0160230D03*
X0149980Y0027650D03*
X0149140D03*
X0008410Y0022560D03*
X0007570D03*
X0018120Y0022520D03*
X0017280D03*
X0027610Y0022550D03*
X0026770D03*
X0037410D03*
X0036570D03*
X0047230Y0022540D03*
X0046390D03*
X0057040Y0022340D03*
X0056200D03*
X0140310Y0027840D03*
X0139470D03*
X0066300Y0022610D03*
X0065460D03*
X0076330Y0022830D03*
X0075490D03*
X0086140Y0022660D03*
X0085300D03*
X0046380Y0023470D03*
X0047220D03*
X0007560Y0023480D03*
X0008400D03*
X0006240Y0028460D03*
X0007080D03*
X0044960Y0028550D03*
X0045800D03*
X0095810Y0022510D03*
X0094970D03*
X0105190Y0022660D03*
X0104350D03*
X0017280Y0023390D03*
X0018120D03*
X0056200Y0023610D03*
X0057040D03*
X0015910Y0028450D03*
X0016750D03*
X0054620Y0028340D03*
X0055460D03*
X0114950Y0022550D03*
X0114110D03*
X0124570D03*
X0123730D03*
X0026770Y0023490D03*
X0027610D03*
X0065440Y0023560D03*
X0066280D03*
X0025590Y0028360D03*
X0026430D03*
X0064330Y0028370D03*
X0065170D03*
X0134270Y0022570D03*
X0133430D03*
X0143940Y0022670D03*
X0143100D03*
X0036570Y0023530D03*
X0037410D03*
X0075490Y0023750D03*
X0076330D03*
X0035230Y0028470D03*
X0036070D03*
X0074130D03*
X0074970D03*
X0153910Y0022540D03*
X0153070D03*
X0164780Y0022640D03*
X0163940D03*
X0123740Y0023570D03*
X0124580D03*
X0122520Y0028600D03*
X0123360D03*
X0119940Y0024970D03*
Y0024130D03*
X0085300Y0023600D03*
X0086140D03*
X0083730Y0028590D03*
X0082890D03*
X0133430Y0023540D03*
X0134270D03*
X0132180Y0028290D03*
X0133020D03*
X0080920Y0024970D03*
Y0024130D03*
X0129570Y0024960D03*
Y0024120D03*
X0094970Y0023510D03*
X0095810D03*
X0093510Y0028420D03*
X0094350D03*
X0143110Y0023710D03*
X0143950D03*
X0141960Y0028410D03*
X0142800D03*
X0091010Y0024940D03*
Y0024100D03*
X0139240Y0024940D03*
Y0024100D03*
X0104340Y0023630D03*
X0105180D03*
X0103160Y0028560D03*
X0104000D03*
X0153070Y0023640D03*
X0153910D03*
X0151590Y0028430D03*
X0152430D03*
X0160320Y0024890D03*
Y0024050D03*
X0149350Y0024950D03*
Y0024110D03*
X0114120Y0023470D03*
X0114960D03*
X0112920Y0028500D03*
X0113760D03*
X0163990Y0023610D03*
X0164830D03*
X0162770Y0028250D03*
X0163610D03*
G54D65*
X0100730Y0064800D03*
X0101730Y0063800D03*
Y0064800D03*
X0102730Y0063800D03*
Y0064800D03*
X0103730Y0063800D03*
Y0064800D03*
X0104730Y0063800D03*
X0105730D03*
Y0064800D03*
X0106730Y0063800D03*
Y0064800D03*
X0033570Y0050380D03*
X0102400Y0050030D03*
G54D68*
X0155950Y0064870D03*
X0157950D03*
G54D81*
X0135560Y0052660D03*
Y0055110D03*
X0036020Y0043770D03*
Y0041320D03*
X0109720Y0042410D03*
Y0039960D03*
G54D82*
X0155550Y0056750D03*
X0154000D03*
G54D83*
X0007440Y0014800D03*
X0006240D03*
X0046150Y0014930D03*
X0044950D03*
X0006240Y0013290D03*
X0007440D03*
X0044950Y0013200D03*
X0046150D03*
X0017110Y0014890D03*
X0015910D03*
X0055830D03*
X0054630D03*
X0015910Y0013200D03*
X0017110D03*
X0054630D03*
X0055830D03*
X0026790Y0014930D03*
X0025590D03*
X0065530Y0015020D03*
X0064330D03*
X0025590Y0013200D03*
X0026790D03*
X0064330D03*
X0065530D03*
X0036440Y0014990D03*
X0035240D03*
X0075340Y0015000D03*
X0074140D03*
Y0013200D03*
X0075340D03*
X0035240D03*
X0036440D03*
X0123730Y0015020D03*
X0122530D03*
Y0013200D03*
X0123730D03*
X0084930Y0014920D03*
X0083730D03*
X0133400Y0014910D03*
X0132200D03*
X0083730Y0013200D03*
X0084930D03*
X0132200D03*
X0133400D03*
X0094700Y0015130D03*
X0093500D03*
X0143170Y0014910D03*
X0141970D03*
X0093500Y0013200D03*
X0094700D03*
X0141970D03*
X0143170D03*
X0104360Y0014910D03*
X0103160D03*
X0152780Y0014990D03*
X0151580D03*
X0103160Y0013200D03*
X0104360D03*
X0151580D03*
X0152780D03*
X0114120Y0015010D03*
X0112920D03*
X0163970Y0014970D03*
X0162770D03*
X0112920Y0013200D03*
X0114120D03*
X0162770D03*
X0163970D03*
G54D86*
X0100730Y0063800D03*
X0104730Y0064800D03*
X0006240Y0004850D03*
X0044970D03*
X0015870D03*
X0054640D03*
X0025570D03*
X0064370D03*
X0035270D03*
X0074140D03*
X0122540D03*
X0083730D03*
X0132210D03*
X0093480D03*
X0141970D03*
X0103170D03*
X0151580D03*
X0112920D03*
X0162720D03*
X0033570Y0049380D03*
X0102400Y0049030D03*
G54D87*
X0049920Y0059530D03*
X0050920Y0055230D03*
Y0059530D03*
X0051920Y0055230D03*
Y0059530D03*
X0052920Y0055230D03*
Y0059530D03*
X0125660Y0061220D03*
X0126660Y0056920D03*
Y0061220D03*
X0127660Y0056920D03*
Y0061220D03*
X0128660Y0056920D03*
Y0061220D03*
G54D88*
X0049920Y0055230D03*
X0125660Y0056920D03*
G54D90*
X0076500Y0030000D03*
X0079850D03*
X0077000Y0036050D03*
X0004000Y0043390D03*
X0162000Y0055400D03*
X0107620Y0053670D03*
X0004000Y0046400D03*
X0060140Y0049740D03*
X0092400Y0052500D03*
X0162010Y0053380D03*
X0011810Y0062500D03*
X0162000Y0057400D03*
X0013270Y0067010D03*
X0162000Y0059330D03*
X0062450Y0052790D03*
X0133780Y0062280D03*
X0077000Y0038950D03*
G54D91*
X0144640Y0057550D03*
X0143800D03*
X0057030Y0051450D03*
X0057870D03*
X0130400Y0052330D03*
X0131240D03*
G54D92*
X0051792Y0041436D03*
Y0041633D03*
Y0041829D03*
Y0042026D03*
Y0042223D03*
Y0042420D03*
Y0042617D03*
Y0043011D03*
Y0043207D03*
Y0043404D03*
Y0043601D03*
Y0043798D03*
Y0043995D03*
Y0044192D03*
Y0044388D03*
Y0044585D03*
Y0044979D03*
Y0045176D03*
Y0045373D03*
Y0045570D03*
Y0045766D03*
Y0045963D03*
Y0046160D03*
Y0046357D03*
Y0046554D03*
Y0046948D03*
Y0047144D03*
Y0047341D03*
Y0047538D03*
Y0047735D03*
Y0047932D03*
Y0048129D03*
Y0048326D03*
Y0048522D03*
Y0048916D03*
Y0049113D03*
Y0049310D03*
Y0049507D03*
Y0049704D03*
Y0049900D03*
Y0050097D03*
Y0050294D03*
Y0050491D03*
Y0050885D03*
Y0051082D03*
Y0051278D03*
Y0051475D03*
X0039587D03*
Y0051278D03*
Y0051082D03*
Y0050688D03*
Y0050491D03*
Y0050294D03*
Y0050097D03*
Y0049900D03*
Y0049704D03*
Y0049507D03*
Y0049310D03*
Y0049113D03*
Y0048719D03*
Y0048522D03*
Y0048326D03*
Y0048129D03*
Y0047932D03*
Y0047735D03*
Y0047538D03*
Y0047341D03*
Y0047144D03*
Y0046751D03*
Y0046554D03*
Y0046357D03*
Y0046160D03*
Y0045963D03*
Y0045766D03*
Y0045570D03*
Y0045373D03*
Y0045176D03*
Y0044782D03*
Y0044585D03*
Y0044388D03*
Y0044192D03*
Y0043995D03*
Y0043798D03*
Y0043601D03*
Y0043404D03*
Y0043207D03*
Y0042814D03*
Y0042617D03*
Y0042420D03*
Y0042223D03*
Y0042026D03*
Y0041829D03*
Y0041633D03*
Y0041436D03*
X0126792D03*
Y0041633D03*
Y0041829D03*
Y0042026D03*
Y0042223D03*
Y0042420D03*
Y0042617D03*
Y0043011D03*
Y0043207D03*
Y0043404D03*
Y0043601D03*
Y0043798D03*
Y0043995D03*
Y0044192D03*
Y0044388D03*
Y0044585D03*
Y0044979D03*
Y0045176D03*
Y0045373D03*
Y0045570D03*
Y0045766D03*
Y0045963D03*
Y0046160D03*
Y0046357D03*
Y0046554D03*
Y0046948D03*
Y0047144D03*
Y0047341D03*
Y0047538D03*
Y0047735D03*
Y0047932D03*
Y0048129D03*
Y0048326D03*
Y0048522D03*
Y0048916D03*
Y0049113D03*
Y0049310D03*
Y0049507D03*
Y0049704D03*
Y0049900D03*
Y0050097D03*
Y0050294D03*
Y0050491D03*
Y0050885D03*
Y0051082D03*
Y0051278D03*
Y0051475D03*
X0114587D03*
Y0051278D03*
Y0051082D03*
Y0050688D03*
Y0050491D03*
Y0050294D03*
Y0050097D03*
Y0049900D03*
Y0049704D03*
Y0049507D03*
Y0049310D03*
Y0049113D03*
Y0048719D03*
Y0048522D03*
Y0048326D03*
Y0048129D03*
Y0047932D03*
Y0047735D03*
Y0047538D03*
Y0047341D03*
Y0047144D03*
Y0046751D03*
Y0046554D03*
Y0046357D03*
Y0046160D03*
Y0045963D03*
Y0045766D03*
Y0045570D03*
Y0045373D03*
Y0045176D03*
Y0044782D03*
Y0044585D03*
Y0044388D03*
Y0044192D03*
Y0043995D03*
Y0043798D03*
Y0043601D03*
Y0043404D03*
Y0043207D03*
Y0042814D03*
Y0042617D03*
Y0042420D03*
Y0042223D03*
Y0042026D03*
Y0041829D03*
Y0041633D03*
Y0041436D03*
G54D93*
X0051792Y0042814D03*
Y0044782D03*
Y0046751D03*
Y0048719D03*
Y0050688D03*
X0039587Y0050885D03*
Y0048916D03*
Y0046948D03*
Y0044979D03*
Y0043011D03*
X0126792Y0042814D03*
Y0044782D03*
Y0046751D03*
Y0048719D03*
Y0050688D03*
X0114587Y0050885D03*
Y0048916D03*
Y0046948D03*
Y0044979D03*
Y0043011D03*
G54D94*
X0040867Y0040353D03*
X0041064D03*
X0041260D03*
X0041457D03*
X0041654D03*
X0041851D03*
X0042048D03*
X0042245D03*
X0042638D03*
X0042835D03*
X0043032D03*
X0043229D03*
X0043426D03*
X0043623D03*
X0043820D03*
X0044016D03*
X0044213D03*
X0044607D03*
X0044804D03*
X0045001D03*
X0045197D03*
X0045394D03*
X0045591D03*
X0045788D03*
X0045985D03*
X0046182D03*
X0046575D03*
X0046772D03*
X0046969D03*
X0047166D03*
X0047363D03*
X0047560D03*
X0047757D03*
X0047953D03*
X0048150D03*
X0048544D03*
X0048741D03*
X0048938D03*
X0049135D03*
X0049331D03*
X0049528D03*
X0049725D03*
X0049922D03*
X0050119D03*
X0050513D03*
X0050709D03*
Y0052558D03*
X0050513D03*
X0050316D03*
X0050119D03*
X0049922D03*
X0049528D03*
X0049331D03*
X0049135D03*
X0048938D03*
X0048741D03*
X0048544D03*
X0048347D03*
X0048150D03*
X0047953D03*
X0047560D03*
X0047363D03*
X0047166D03*
X0046969D03*
X0046772D03*
X0046575D03*
X0046379D03*
X0046182D03*
X0045985D03*
X0045591D03*
X0045394D03*
X0045197D03*
X0045001D03*
X0044804D03*
X0044607D03*
X0044410D03*
X0044213D03*
X0044016D03*
X0043623D03*
X0043426D03*
X0043229D03*
X0043032D03*
X0042835D03*
X0042638D03*
X0042442D03*
X0042245D03*
X0042048D03*
X0041654D03*
X0041457D03*
X0041260D03*
X0041064D03*
X0040867D03*
X0040670D03*
X0115867Y0040353D03*
X0116064D03*
X0116260D03*
X0116457D03*
X0116654D03*
X0116851D03*
X0117048D03*
X0117245D03*
X0117638D03*
X0117835D03*
X0118032D03*
X0118229D03*
X0118426D03*
X0118623D03*
X0118820D03*
X0119016D03*
X0119213D03*
X0119607D03*
X0119804D03*
X0120001D03*
X0120197D03*
X0120394D03*
X0120591D03*
X0120788D03*
X0120985D03*
X0121182D03*
X0121575D03*
X0121772D03*
X0121969D03*
X0122166D03*
X0122363D03*
X0122560D03*
X0122757D03*
X0122953D03*
X0123150D03*
X0123544D03*
X0123741D03*
X0123938D03*
X0124135D03*
X0124331D03*
X0124528D03*
X0124725D03*
X0124922D03*
X0125119D03*
X0125513D03*
X0125709D03*
Y0052558D03*
X0125513D03*
X0125316D03*
X0125119D03*
X0124922D03*
X0124528D03*
X0124331D03*
X0124135D03*
X0123938D03*
X0123741D03*
X0123544D03*
X0123347D03*
X0123150D03*
X0122953D03*
X0122560D03*
X0122363D03*
X0122166D03*
X0121969D03*
X0121772D03*
X0121575D03*
X0121379D03*
X0121182D03*
X0120985D03*
X0120591D03*
X0120394D03*
X0120197D03*
X0120001D03*
X0119804D03*
X0119607D03*
X0119410D03*
X0119213D03*
X0119016D03*
X0118623D03*
X0118426D03*
X0118229D03*
X0118032D03*
X0117835D03*
X0117638D03*
X0117442D03*
X0117245D03*
X0117048D03*
X0116654D03*
X0116457D03*
X0116260D03*
X0116064D03*
X0115867D03*
X0115670D03*
G54D95*
X0040670Y0040353D03*
X0042442D03*
X0044410D03*
X0046379D03*
X0048347D03*
X0050316D03*
X0049725Y0052558D03*
X0047757D03*
X0045788D03*
X0043820D03*
X0041851D03*
X0115670Y0040353D03*
X0117442D03*
X0119410D03*
X0121379D03*
X0123347D03*
X0125316D03*
X0124725Y0052558D03*
X0122757D03*
X0120788D03*
X0118820D03*
X0116851D03*
G54D96*
X0006250Y0024950D03*
X0006750D03*
X0007250D03*
Y0026910D03*
X0006750D03*
X0006250D03*
X0005750D03*
X0044950Y0024930D03*
X0045450D03*
X0045950D03*
Y0026890D03*
X0045450D03*
X0044950D03*
X0044450D03*
X0015900Y0024950D03*
X0016400D03*
X0016900D03*
Y0026910D03*
X0016400D03*
X0015900D03*
X0015400D03*
X0054620Y0024950D03*
X0055120D03*
X0055620D03*
Y0026910D03*
X0055120D03*
X0054620D03*
X0054120D03*
X0025590Y0024990D03*
X0026090D03*
X0026590D03*
Y0026950D03*
X0026090D03*
X0025590D03*
X0025090D03*
X0064330Y0024940D03*
X0064830D03*
X0065330D03*
Y0026900D03*
X0064830D03*
X0064330D03*
X0063830D03*
X0035240Y0024990D03*
X0035740D03*
X0036240D03*
Y0026950D03*
X0035740D03*
X0035240D03*
X0034740D03*
X0074130Y0024950D03*
X0074630D03*
X0075130D03*
Y0026910D03*
X0074630D03*
X0074130D03*
X0073630D03*
X0122520Y0024990D03*
X0123020D03*
X0123520D03*
Y0026950D03*
X0123020D03*
X0122520D03*
X0122020D03*
X0083730Y0024980D03*
X0084230D03*
X0084730D03*
Y0026940D03*
X0084230D03*
X0083730D03*
X0083230D03*
X0132170Y0024970D03*
X0132670D03*
X0133170D03*
Y0026930D03*
X0132670D03*
X0132170D03*
X0131670D03*
X0093500Y0024950D03*
X0094000D03*
X0094500D03*
Y0026910D03*
X0094000D03*
X0093500D03*
X0093000D03*
X0141960Y0024940D03*
X0142460D03*
X0142960D03*
Y0026900D03*
X0142460D03*
X0141960D03*
X0141460D03*
X0103160Y0024950D03*
X0103660D03*
X0104160D03*
Y0026910D03*
X0103660D03*
X0103160D03*
X0102660D03*
X0151590Y0024950D03*
X0152090D03*
X0152590D03*
Y0026910D03*
X0152090D03*
X0151590D03*
X0151090D03*
X0112920Y0024960D03*
X0113420D03*
X0113920D03*
Y0026920D03*
X0113420D03*
X0112920D03*
X0112420D03*
X0162770Y0024890D03*
X0163270D03*
X0163770D03*
Y0026850D03*
X0163270D03*
X0162770D03*
X0162270D03*
G54D97*
X0005750Y0024950D03*
X0044450Y0024930D03*
X0015400Y0024950D03*
X0054120D03*
X0025090Y0024990D03*
X0063830Y0024940D03*
X0034740Y0024990D03*
X0073630Y0024950D03*
X0122020Y0024990D03*
X0083230Y0024980D03*
X0131670Y0024970D03*
X0093000Y0024950D03*
X0141460Y0024940D03*
X0102660Y0024950D03*
X0151090D03*
X0112420Y0024960D03*
X0162270Y0024890D03*
G54D98*
X0033930Y0042510D03*
Y0043010D03*
Y0043510D03*
X0031810D03*
Y0043010D03*
Y0042510D03*
Y0042010D03*
X0138800Y0053890D03*
Y0053390D03*
Y0052890D03*
X0140920D03*
Y0053390D03*
Y0053890D03*
Y0054390D03*
X0108030Y0041160D03*
Y0041660D03*
Y0042160D03*
X0105910D03*
Y0041660D03*
Y0041160D03*
Y0040660D03*
G54D99*
X0033930Y0042010D03*
X0138800Y0054390D03*
X0108030Y0040660D03*
M02*
